<?xml version="1.0" encoding="UTF-8" standalone="no"?>
<!DOCTYPE svg PUBLIC "-//W3C//DTD SVG 1.1//EN" "http://www.w3.org/Graphics/SVG/1.1/DTD/svg11.dtd">
<svg width="100%" height="100%" viewBox="0 0 603 582" version="1.1" xmlns="http://www.w3.org/2000/svg" xmlns:xlink="http://www.w3.org/1999/xlink" xml:space="preserve" xmlns:serif="http://www.serif.com/" style="fill-rule:evenodd;clip-rule:evenodd;stroke-linejoin:round;">
    <g transform="matrix(0.738928,0,0,1.00857,-65.9319,-196.896)">
        <path d="M747.5,719L746,718L745,720.5L747.5,719ZM758,704L764.5,705.5L767,709.5L770.5,708.5L758,704ZM844.5,696L841,698.5L844.5,698.5L844.5,696ZM552.5,692L551,691L550,693.5L552.5,692ZM594,689L597.5,690.5L596.5,688L594,689ZM570,686L569,688.5L571.5,689.5L572.5,687L570,686ZM631,683L638,686.5L646.5,686.5L631,683ZM530,675L534,677.5L540.5,677.5L530,675ZM848,674L848,677.5L850.5,677.5L850.5,674L848,674ZM479,665L497.5,663.5L526.5,667.5L501.5,662L489,662L479,665ZM401.5,659L399,663L398,675.5L400.5,672.5L401.5,659ZM325,639L326,641.5L341.5,640.5L366.5,645.5L370,653.5L372.5,653.5L371.5,643L325,639ZM855.5,637L853,637L851,641.5L853.5,641.5L855.5,637ZM165.5,637L164,636L163,638.5L165.5,637ZM402.5,627L395,634L389,648L382,678.5L387.5,673.5L392.5,643L402.5,627ZM144,616L146,618.5L149.5,617.5L144,616ZM670,581L670,583.5L678.5,583.5L688.5,579.5L688,582.5L691.5,582.5L694,585.5L709.5,583.5L712,586.5L724.5,586.5L726,589.5L734,591.5L747.5,589.5L733,589L729.5,584L715,585L716.5,582L695,583L693.5,578L678,577L670,581ZM729,585.5L730,587.5L728,588L729,585.5ZM674.5,581.5L676,579.5L682,580L674.5,581.5ZM160,543L162,545.5L172.5,544.5L160,543ZM886,518L885,519.5L887.5,520.5L888.5,519L886,518ZM369,511L370,513.5L374.5,513.5L369,511ZM358,512.5L364.5,510L359,510L358,512.5ZM334,509L334,511.5L338.5,510.5L334,509ZM246,496L248.5,497.5L253.5,495L246,496ZM366,486L369.5,489.5L369.5,487L366,486ZM558,471.5L564.5,471.5L569.5,468L563,470L564,467.5L574,463.5L577,464L576,468.5L589.5,465.5L593,469.5L604,466.5L609,468.5L620.5,466.5L627.5,469.5L639.5,465.5L643,469.5L658.5,469.5L666.5,466.5L669,470.5L683.5,472.5L693.5,470.5L693.5,468L678,470L671.5,464L661.5,467L645,467L645.5,463L642.5,462L627.5,468L624.5,466L628.5,463L611,467L610.5,465L614.5,462L610,462L596,468L593.5,462L579,466L578.5,462L574,461L564,465L558,471.5ZM485,455L493,465L488,478L493,476L492.5,484.5L494.5,474L492,474L493,467.5L497.5,468.5L499.5,455L497,456L495.5,464L485,455ZM853.5,452L851,452L850,457.5L853.5,452ZM751.5,443L739,444.5L746.5,445.5L751.5,443ZM887,441L886,443.5L888.5,444.5L889.5,442L887,441ZM857.5,430L855,445.5L852,446L851,449.5L855.5,446.5L858.5,434.5L857.5,430ZM564,439L565,441.5L568.5,441.5L572.5,438.5L569,437.5L573,435.5L574.5,437.5L579,433.5L583,437.5L593.5,436.5L598,433.5L604,437.5L615,433.5L620,436.5L638.5,434.5L643.5,437.5L667.5,432.5L670,436.5L675,438.5L687.5,436.5L689,439.5L695.5,440.5L707.5,437.5L710,441.5L719.5,440.5L722,443.5L732.5,443.5L734,440L725,442L722.5,438L712,439L712.5,436L691,438L692.5,434L675,436L673.5,431L647,433L646.5,430L639,430L623.5,435L620.5,433.5L622.5,430L616,430L607.5,435L605.5,434.5L606.5,432L596,430L585.5,436L583.5,434.5L584.5,431L577,431L564,439ZM498,408L507,419L507.5,431.5L509.5,418L507,418L498,408ZM572,410L574.5,411.5L584,404.5L587.5,404.5L590,408.5L599.5,408.5L610,404.5L617.5,407.5L635.5,403.5L639,406.5L646,403.5L649,405.5L663.5,403.5L666,405.5L670.5,404.5L673,407.5L699.5,408.5L705.5,406.5L708,410.5L719.5,408.5L723,412.5L734.5,411.5L736.5,413.5L740,410.5L744.5,410.5L744.5,413L740,413L744,416.5L752.5,415.5L756,419.5L764.5,418.5L767,421.5L779.5,419.5L769,420L765.5,417L756,417L758.5,413L746,414L746.5,410L743.5,409L725,411L722.5,407L710,408L711.5,404L692,406L694.5,403.5L692,402L676,406L674.5,402L670.5,400L651,404L648.5,400L641,399L622.5,405L615.5,403.5L619.5,401.5L618,400L592.5,407L590.5,405.5L591.5,402L585,402L572,410ZM639.5,403.5L642,400.5L645,401L642.5,404L639.5,403.5ZM338.5,389L334,389L329,392.5L338.5,389ZM849.5,383L847,387L846,400.5L849.5,383ZM578,382L578,384.5L580.5,384.5L592,376.5L595,380.5L600.5,380.5L613,376.5L618.5,379.5L627,376.5L635.5,378.5L648.5,375.5L650,377.5L659.5,378.5L668.5,375.5L670,378.5L684.5,377.5L686,380.5L703.5,377.5L706,381.5L715.5,380.5L715,384.5L739.5,381.5L741,386.5L752.5,385.5L755,388.5L770.5,388.5L772,392.5L776,393.5L789.5,392.5L775,391L773.5,386L757,387L760.5,382L744,385L742.5,381L744.5,380L740.5,379L720,381L720.5,377L708.5,380L705.5,376L689,378L694.5,374L673,377L672.5,373L657,376L656.5,372L639.5,376L628,374L621.5,377L618.5,376.5L622.5,373.5L620,372L599.5,379L596.5,377.5L597.5,374L592,374L578,382ZM403,362.5L407.5,360L404,360L403,362.5ZM796.5,359L789,361.5L795.5,362.5L796.5,359ZM713,353L728,355.5L737.5,353.5L739,358.5L747.5,357.5L751,360.5L763.5,359.5L766,363.5L779.5,363.5L783,367.5L794.5,366.5L784,365L780.5,361L769,362L767.5,357L753,359L752.5,356L742,357L739.5,351L713,353ZM525,346L527.5,350.5L527.5,347L525,346ZM583,357.5L591.5,355.5L599,349.5L602,354.5L609.5,353.5L616,349.5L626.5,352.5L636,348.5L642,350.5L650.5,348.5L652,351.5L669.5,348.5L673,352.5L692.5,350.5L695,353.5L704,354.5L711.5,351L703,351L704.5,347L674,350L674.5,346L654.5,349.5L654.5,346L642,349L643.5,346L640,345L627.5,350L623,350L623.5,346L603,352L603.5,347L589,350L583,355L583,357.5ZM698,348.5L700,349L699.5,352L696.5,351.5L698,348.5ZM589,330L592.5,331.5L603,324.5L610.5,327.5L620,322.5L628.5,325.5L640.5,321.5L641,325.5L672.5,320.5L675,325.5L692.5,323.5L694,326.5L707.5,324.5L712,328.5L733.5,326.5L735,330.5L747.5,329.5L750,333.5L763.5,332.5L766,336.5L780.5,336.5L785,340.5L804.5,342.5L805.5,341L800,339.5L809.5,339.5L807.5,337L792,339L791.5,336L772,334L772.5,330L751,331L750.5,327L738,328L739,325.5L744.5,325.5L743.5,323L728.5,326L712,326L711.5,324L715.5,321L702.5,324L695,324L696.5,320L675,323L676.5,318L666,318L648.5,323L644.5,322.5L647.5,318L642,318L628.5,324L625.5,323.5L626.5,320L624,319L611.5,325L608.5,323.5L609.5,321L604,319L596,323L589,330ZM766.5,334.5L767,332.5L770,333L766.5,334.5ZM606,321L604.5,324L598.5,324.5L606,321ZM411,305L412.5,307.5L413.5,305L411,305ZM441.5,294L436,293L412,297L403.5,304L399,303L393.5,310L390,310L382,321L382,338.5L376.5,350L372.5,347.5L372.5,336L369.5,330L362.5,325L338,323L318,330L318,332.5L325,337L327,342.5L345,353.5L358.5,354.5L366,351.5L370,353L372,358L371,367.5L361.5,395L352.5,388.5L350.5,374L333.5,365L304,366L277,379L278,382.5L288.5,386.5L292,391.5L299.5,392.5L303,397.5L308,399.5L314.5,399.5L319,402.5L335.5,401.5L349.5,394.5L356,401L357,408.5L351,427.5L333.5,466L328.5,464L312,465L306.5,469L277,472L266.5,477L258,477L243.5,484L218,485L211,487L209,490.5L215,488.5L226.5,489.5L235.5,486.5L241,490L239,493.5L246.5,493.5L250.5,490L245,490L244.5,487L253.5,484.5L256,487L254,489.5L263.5,496.5L268,494.5L278.5,495.5L268.5,491L280,485.5L293,488L293.5,491L289.5,488L284,489L281,492.5L284.5,491.5L285,494.5L289.5,494.5L291,491.5L292,493.5L296.5,491.5L300.5,494.5L301.5,493L297.5,491.5L299.5,486.5L309,490L306,498.5L312,494.5L317,496.5L324.5,494.5L327,498L324.5,500L302,500L301.5,497L291,496L272,498L267,500.5L292.5,499.5L293,503.5L296,498.5L303,503.5L325.5,501.5L334,506.5L344.5,504.5L347,507L345,510.5L348.5,510.5L351,506.5L364.5,506.5L382.5,510.5L387,514.5L390.5,514.5L391.5,512L386,511L385.5,509L393.5,507.5L417,516.5L426.5,513.5L445.5,522.5L445.5,519L427,511L422.5,504L417,503L410.5,495L400,494L393.5,486L384,485L377.5,477L369,475L361.5,469L346.5,466.5L359.5,426L369,416.5L378.5,412.5L389,420.5L405.5,421.5L409,418.5L425.5,418.5L438.5,413.5L441,410.5L448.5,410.5L450.5,408.5L448.5,405.5L449.5,399L421.5,388L409,388L388,393L380,400L376.5,408L363.5,412.5L372.5,385L383,375.5L388.5,374.5L395,379.5L402,380.5L422.5,378.5L442.5,370.5L457.5,359.5L457.5,356L446,354L436.5,349L414,349L395,356L391,359L384.5,371L375.5,374.5L380.5,349L384.5,340L388,336.5L397.5,337.5L405.5,335.5L419.5,326.5L430.5,316.5L430.5,313L435.5,308.5L441.5,294ZM371.5,503L375.5,502.5L382,507.5L371.5,503ZM399.5,501L403,498.5L410.5,499.5L414,508.5L418.5,506.5L422,510.5L416,513L403,506L399.5,501ZM350,503.5L337,503L327.5,499L337.5,499.5L340.5,497.5L343,500.5L348.5,500.5L350,503.5ZM259.5,483.5L260,481.5L264,482L259.5,483.5ZM291,478L289.5,481L286.5,479L278,481L279,483.5L272.5,489L262.5,485.5L263,483.5L267.5,483.5L264.5,482.5L265,480.5L269.5,480.5L274,476.5L280.5,477.5L286.5,475.5L291,478ZM292.5,480L297.5,477.5L297.5,474L300,472.5L305.5,473.5L314,469.5L326.5,467.5L331,471.5L320,473L320,475.5L325,479.5L331.5,480.5L334,486.5L363.5,495.5L363.5,492L357,492L348.5,487L335.5,483.5L337,481.5L358.5,482.5L351.5,477L344.5,476.5L347,471.5L355.5,471.5L361,477.5L374.5,479.5L378,485.5L374,487.5L389.5,488.5L398,496L396,498L398,501.5L394,501L395,502.5L393,503L385.5,497L383,499L379.5,494L377,494L382,500.5L376,503L375.5,501L370.5,500.5L374.5,497.5L371.5,493L370,493.5L373,496.5L370.5,500L358.5,497L352.5,499L350.5,497L346,498L342.5,494L338,497L335.5,493L330,494L321.5,491L317,493L313.5,491L319.5,486L309,487L304.5,484.5L307.5,482L300.5,486L298.5,484L294,485L295.5,481L292.5,480ZM365.5,393.5L360,415L361,420.5L357,425L354,437.5L351,441L342,475.5L336,474L333,477L331.5,475L339.5,464.5L346.5,442L355.5,423.5L359.5,403L365.5,393.5ZM380.5,406.5L384,400.5L386,401L385,403.5L389.5,400.5L385.5,400.5L389,395.5L409,390.5L421.5,390.5L425,393L423,396.5L428.5,396.5L427.5,394L430.5,393.5L447,402L436,409L434.5,413L428,412L425.5,415L423.5,414.5L424.5,413L420,413L418.5,416L402,413L407,416L405.5,419L390,418L383.5,413.5L383,409.5L392.5,414.5L390.5,411L385.5,409.5L387,407.5L402,404.5L416.5,407.5L411.5,404L420.5,403.5L429.5,409.5L426.5,406.5L427,403.5L439.5,402L413,402L413,397L405.5,402L396,404L396,398L393.5,404L380.5,406.5ZM281.5,379L324.5,382.5L323.5,385L309,390.5L321.5,388.5L326,383.5L344,389L334,393.5L340.5,393.5L346,390.5L348,392.5L332.5,399L327.5,397L318,399L316.5,397L308.5,396.5L313.5,393L304,393L302.5,390L294,389L291.5,384L282,381L281.5,379ZM372.5,373.5L374,380.5L367,392L372.5,373.5ZM339,372.5L343.5,372.5L348,376L349.5,387L346.5,386.5L345.5,380L344.5,385L340.5,382.5L339,372.5ZM287.5,377L298,371.5L310.5,376.5L304.5,370.5L307,368.5L330.5,368.5L337,372L339,382.5L333,382L323.5,371L322,372.5L326.5,380L287.5,377ZM376.5,354.5L375,361L374.5,355L376.5,354.5ZM453,358L447,362L445.5,366L436,368L435.5,372L424,372L425,373.5L420.5,376L402,372L411,375L410.5,377L403,378L390.5,373.5L391,371.5L397.5,372.5L395.5,370L400,368.5L416.5,371.5L408,368L408,365.5L424.5,364.5L427,367.5L430.5,367.5L426.5,364.5L428,362.5L446.5,359.5L420,361L402,364L397.5,367L395.5,366.5L397.5,363L395,363L390,369L395,359.5L412,352.5L436.5,352.5L453,358ZM372,350.5L374,351L373.5,354L372,350.5ZM359,327.5L368,332L370,337L368.5,345L365.5,342.5L367.5,339.5L365.5,337L364.5,340L362.5,339.5L358.5,331.5L359,327.5ZM322.5,331L333,327.5L341.5,327.5L347,333.5L345,335L333,333L345,336L338,340.5L351.5,338.5L361,343L354,347.5L365.5,347.5L366,349.5L355,352L343,349L339.5,344L330,341L326.5,335.5L327.5,333L322.5,331ZM342.5,326L353.5,326.5L358,331L361,339.5L356,338L352.5,333L349,335L342.5,326ZM437,297L431,305L432,308.5L428,307L428,314.5L410.5,330L394.5,335L389.5,332L402.5,329.5L402,328L393,331L392.5,329L397,325.5L414.5,323.5L416.5,321L399.5,323L409,315.5L421.5,312.5L413.5,312L427.5,302.5L428,300L395,321L391.5,327L389.5,326.5L390,321L388,330.5L383.5,330.5L386.5,318L392,312.5L396.5,315.5L397.5,309L404.5,306.5L411,299.5L417.5,300.5L421,297.5L437,297ZM95,588L95,594.5L100,601.5L119,607.5L380.5,640.5L382,642.5L378,663.5L370,682.5L355.5,698L341,706L343,710.5L364,715.5L382.5,716.5L385,718.5L392.5,715.5L410.5,692.5L418.5,658L424,657L420,660L421.5,665.5L430.5,654.5L428.5,653L432,651.5L440,656.5L453,659.5L477.5,660.5L490.5,656.5L765,701.5L803,706.5L822.5,706.5L831.5,702.5L836.5,693.5L838.5,667L848.5,620.5L855.5,572L894.5,360L898.5,354.5L899.5,345L895.5,341L884.5,338.5L884.5,329L872.5,325.5L874.5,320L871.5,315L860,314L856.5,311.5L858.5,299L855.5,296L743.5,275L677.5,268L629,269L585,278L556,291L537.5,276L519.5,267L485.5,256L456.5,251L393.5,247L269,251L259.5,272L250,272L243.5,285L233,286L228,290L209,347.5L190,391.5L109,565.5L100,576L100,580.5L95,588ZM825.5,675.5L825,682.5L829,680L828,689.5L815,694L825.5,675.5ZM680.5,676L685.5,674.5L750.5,683.5L777,690.5L765,691L727,686L680.5,676ZM601.5,663L604.5,661.5L623,665.5L613,666L601.5,663ZM555.5,655L570.5,655.5L602,662.5L598,664L565,659L555.5,655ZM448.5,652L472,653.5L461,655L448.5,652ZM478.5,651.5L479,649.5L482,650L478.5,651.5ZM483.5,643L486.5,641.5L491,644.5L483.5,643ZM517.5,640L553.5,642.5L609,653.5L636.5,654.5L637,656.5L643.5,655.5L675,661.5L700.5,663.5L748.5,671.5L760,675.5L810.5,679.5L813,684.5L790,684L730,676L518,642L517.5,640ZM568.5,639L602.5,644.5L614,648.5L611,650L569,641L568.5,639ZM490.5,628L570.5,627.5L618.5,633.5L681.5,645.5L727,657.5L762,663.5L798.5,666.5L805,674.5L779,673L628,649L622.5,645L595.5,640L493,631L490.5,628ZM472,626.5L474,628L472.5,630L470.5,628.5L472,626.5ZM448,621.5L450,622L449.5,625L447.5,624.5L448,621.5ZM452.5,621L461.5,620.5L468,625.5L457.5,622L453,623L452.5,621ZM434.5,623.5L424,633L416,645L411,663L409,681.5L396,704.5L386.5,713L374.5,710.5L378,706.5L381.5,709.5L387.5,705.5L396.5,695.5L396,692L384.5,704L378,704L374.5,701.5L375.5,698L370,701L380.5,687.5L380,683L373,693.5L361,704L366.5,705.5L367.5,710L365.5,708L354,708L352.5,705L369.5,691.5L377.5,679.5L387.5,640L394.5,629L404,620.5L411,617.5L412,619.5L406,624.5L414.5,621.5L413,624.5L415.5,628.5L424,624L416,632L409,645L397.5,690.5L404.5,678.5L408.5,656L414.5,641L425,628.5L434.5,623.5ZM565.5,617L569.5,616.5L570,618.5L565.5,617ZM489.5,623L507,619.5L549.5,618.5L537,617L544.5,615.5L560.5,616.5L553,619.5L648.5,630.5L631.5,626L572,619L574.5,616.5L639.5,622.5L748.5,642.5L753,645L750,646L708.5,638L658,632.5L776,655.5L790.5,656.5L794,661.5L753,658L677.5,641L598.5,627L566.5,624L489.5,623ZM565,605L559.5,611L544.5,609.5L549,606.5L565,605ZM476,602L475.5,606L467.5,608.5L471,602.5L476,602ZM548,600L544.5,604L541.5,603.5L548,600ZM117.5,593L172,602.5L276.5,613.5L278,615.5L301.5,617.5L310,620.5L280,619L154,603L122,597L117.5,593ZM123.5,586L135.5,585.5L184,593.5L272.5,601.5L353,614.5L383.5,616.5L397.5,619.5L398,621.5L395,623L216.5,600L170,596L123.5,586ZM105.5,582.5L107,585.5L103,588L105.5,582.5ZM119.5,579L124.5,576.5L195,585.5L346.5,598.5L387.5,604.5L413,611.5L407,613L406.5,615L162,586L119.5,579ZM591,581L585.5,587L579,587L577.5,590L572,592L573,594.5L570.5,597L567.5,596.5L568.5,593L557.5,597L547.5,595.5L572,570.5L574,572.5L568,579.5L578,571.5L581,573.5L586.5,572.5L587,574.5L570,590.5L585,581.5L591,581ZM631,570L598.5,589L595.5,588.5L623,571.5L631,570ZM128.5,571L132,567.5L328.5,582.5L367.5,588.5L399.5,596.5L436,612.5L404.5,604L357.5,596L182,580L130,573L128.5,571ZM151.5,564L285.5,568.5L193,562L235.5,560.5L332.5,567.5L371.5,574.5L397.5,582.5L413.5,589.5L411,591L386.5,582L362,578.5L404.5,590.5L424,601.5L379.5,587L341.5,580L153,566L151.5,564ZM635,560L602.5,579L597.5,579.5L599,576.5L618.5,566.5L620,563.5L623.5,564.5L635,560ZM147.5,501.5L144,512.5L138,520L144.5,503L147.5,501.5ZM751,500L701.5,531L638.5,567L630.5,569.5L670,543.5L724.5,514.5L747,499.5L751,500ZM774,478L738.5,502L634.5,559.5L635.5,555L645,548.5L737.5,499.5L767,479.5L774,478ZM790,476L768.5,491L759.5,494.5L761,491.5L765.5,490.5L781,478.5L790,476ZM783,473L776.5,478L773.5,477.5L780,472.5L783,473ZM839.5,463.5L840,469.5L816,592.5L801,659.5L798,660L795.5,653L803.5,623.5L814.5,563.5L814,560L797,629L796.5,625L794.5,626.5L805.5,563L824.5,480L827,480L827,490.5L822.5,520.5L829.5,487L836.5,466L839.5,463.5ZM821,464L784.5,643L776,643L674.5,622L567.5,610.5L570,607.5L574.5,607.5L574,605.5L587.5,604.5L589.5,606.5L589.5,603L584.5,602.5L588.5,600.5L588,598.5L603.5,597.5L606.5,595.5L603.5,594.5L605,591.5L622.5,590.5L620.5,588L616,588L617,585.5L628,579.5L635.5,579.5L631.5,578.5L634,575.5L708,532.5L711.5,532.5L715,528.5L768,497.5L780.5,497.5L773,497L773,494.5L778.5,493.5L782,489.5L785.5,490.5L800,482.5L806.5,482.5L803,479.5L815.5,479.5L816.5,478L813.5,476L818.5,469.5L818.5,465L821,464ZM789,461L786.5,465L738.5,495L636,549L598.5,573L593,573L591.5,567L586.5,568.5L591,562.5L596.5,560L593.5,562L588,561L582.5,568L577.5,566.5L583,560.5L772,450.5L781.5,453.5L785,458.5L759,473L740,487.5L756.5,479.5L782,462.5L789,461ZM786,449.5L794,455L796,459L794.5,462L785.5,451.5L786,449.5ZM780.5,448L783.5,446.5L786,449.5L782,450L780.5,448ZM171.5,446.5L172,450.5L165,462L171.5,446.5ZM836,445L832.5,450L818.5,457.5L819,454.5L836,445ZM794,442L791.5,446L786.5,444.5L787,442.5L794,442ZM781.5,442L784.5,441.5L785,443.5L781.5,442ZM844.5,438.5L845,440.5L841,443L840.5,441L844.5,438.5ZM872.5,436.5L871,450.5L869,452L868,450L861,490L861.5,492.5L863.5,488.5L864,492.5L852.5,552L851,545L842,594.5L849.5,558L851,565.5L837,643.5L835,645L840.5,604L837,614.5L834.5,615.5L840.5,573L855.5,493L858.5,491.5L861.5,465L865.5,448L869.5,447.5L867.5,444L872.5,436.5ZM789.5,438L796.5,435.5L803.5,438.5L812,450.5L809,451L807.5,446L803,443L806,453.5L801,457L799.5,454L801.5,453L797.5,450L795,451L792.5,447L796,443.5L800.5,443.5L801.5,441L789.5,438ZM821.5,422.5L827.5,425.5L835,435.5L822.5,445L815,447L801.5,432L815,423.5L821.5,422.5ZM826.5,420L838.5,418.5L844,423L844,425.5L841,426L841.5,429L836,429L826.5,420ZM889.5,345.5L894,348.5L889,357L878.5,413L877.5,409L869,430L883.5,346L889.5,345.5ZM873.5,330.5L879,333L865,415.5L853,467L821,652.5L818.5,652.5L823.5,624.5L824.5,605L823,606L811,667.5L807,670L803.5,664L811.5,634.5L851.5,438.5L858.5,395L871.5,332L873.5,330.5ZM866.5,319.5L868,325.5L851,417.5L848,420L837.5,412L854.5,339L856.5,336.5L857,340.5L850,376L851.5,379.5L862.5,323L866.5,319.5ZM546.5,310.5L548,316.5L545,320L543.5,312L546.5,310.5ZM561.5,303.5L562,308.5L556,313L558.5,305L561.5,303.5ZM547,303.5L549.5,309L546.5,306.5L547,303.5ZM239.5,291.5L209,370.5L172,447L171.5,444L211.5,355.5L232.5,293L239.5,291.5ZM256.5,277.5L257,280.5L253,283L249.5,294.5L251.5,292.5L247,307.5L244,312L244,305L241,314.5L243,311.5L244,314.5L226,359.5L171,484.5L142,545.5L138,550L142,557.5L126,566L216.5,367.5L251.5,279L256.5,277.5ZM853,302L842,367.5L830.5,415L817,418L799.5,429L775,440L770.5,447L580,557L547,589L534,604L531.5,610L505,610L470.5,613.5L489,605.5L512.5,602.5L502,601L477,605L479,598.5L496.5,594.5L478,596L479.5,590L476,591L474.5,598L471.5,600L469.5,598L475,587.5L485,581.5L500.5,578.5L498,577L481,581L475.5,585L474.5,582L498.5,509.5L507.5,474L515,470L512,482.5L508,487L510.5,488.5L516.5,482.5L513.5,481.5L516.5,468L533.5,459.5L517,462L511.5,469L510.5,466L515,454.5L520.5,453.5L524,449.5L533.5,445.5L523,447L516.5,452L515.5,449L553.5,318L556,314.5L561.5,314.5L568,308.5L591.5,300.5L565,307L567.5,300L571,297.5L606.5,286.5L593,287L578.5,292L571,292L573,288.5L596,280.5L629,274.5L681.5,273.5L764.5,283.5L853,302ZM544,289L541,291L531.5,284L517.5,278L496,272L528.5,286.5L543,298L542,303.5L540,304L536.5,300L528,296.5L542,308L536,331.5L541,317.5L545,321L545,326.5L511,443.5L508,444L508,452.5L506,454L502.5,446L492,438L500,447L500,452.5L506,455L506,459.5L466,589.5L463.5,590.5L463.5,574L455.5,565L442.5,556L461,575L460.5,582L455,579L458,587L456,592L440,572L444,576L452.5,595L433.5,581L417.5,573L411,573L423.5,577.5L442,591L441,593.5L442.5,592.5L449,598L454.5,608L439.5,596L419.5,585L379.5,571L357.5,566L296.5,558L180,554L145.5,550.5L227.5,370.5L273,256.5L370,252.5L435.5,253.5L499.5,265.5L526.5,276.5L544,289Z" style="fill:rgb(75,75,75);fill-rule:nonzero;stroke:rgb(75,75,75);stroke-width:1px;"/>
    </g>
</svg>
