<?xml version="1.0" encoding="UTF-8" standalone="no"?>
<!DOCTYPE svg PUBLIC "-//W3C//DTD SVG 1.1//EN" "http://www.w3.org/Graphics/SVG/1.1/DTD/svg11.dtd">
<svg width="100%" height="100%" viewBox="0 0 603 582" version="1.1" xmlns="http://www.w3.org/2000/svg" xmlns:xlink="http://www.w3.org/1999/xlink" xml:space="preserve" xmlns:serif="http://www.serif.com/" style="fill-rule:evenodd;clip-rule:evenodd;stroke-linejoin:round;">
    <g transform="matrix(0.778577,0,0,1.01736,-101.608,-186.398)">
        <path d="M746,708L748,710.5L750.5,709.5L748.5,707L746,708ZM695,695L696.5,697.5L697.5,695L695,695ZM723,690L726.5,693.5L726.5,691L723,690ZM662,691L665.5,692.5L664.5,690L662,691ZM626,683L628.5,686.5L629.5,684L626,683ZM710,679L716.5,684.5L715.5,681L710,679ZM680,679L684.5,680.5L684.5,678L680,679ZM652,674L654,677.5L658.5,676.5L655.5,673L652,674ZM677,672L681.5,673.5L679.5,671L677,672ZM628,664L630,666.5L635.5,666.5L635.5,664L628,664ZM663,661L686.5,662.5L696.5,667.5L705.5,675.5L689.5,661L663,661ZM580,660L582.5,663.5L583.5,661L580,660ZM635,659L636,661.5L644.5,661.5L635,659ZM795,657L795,659.5L798.5,658.5L795,657ZM603,656L610.5,657.5L606.5,655L603,656ZM549,656L552.5,657.5L551.5,655L549,656ZM565,647L570.5,650.5L570.5,648L565,647ZM799,645L798,647.5L801.5,646L799,645ZM514,641L513,643.5L515.5,644.5L516.5,643L514,641ZM791.5,637L786,639L784,652.5L791.5,637ZM538,637L544,642.5L547.5,642.5L545.5,639L538,637ZM464,636L467.5,637.5L466.5,635L464,636ZM820.5,635L819,634L817,637.5L820.5,635ZM255,633.5L258.5,634.5L261.5,632L257,631L255,633.5ZM717,629L718.5,632.5L719.5,631L717,629ZM506,629L508,632.5L511.5,632.5L506,629ZM484,629L486,632.5L489.5,631.5L486.5,628L484,629ZM810.5,627L801,632.5L803.5,633.5L810.5,627ZM288,628.5L290.5,629.5L291.5,627L288,628.5ZM840.5,624L837,624L836,626.5L838.5,627.5L840.5,624ZM860,624L863.5,625.5L863.5,623L860,624ZM514,623L516,626.5L526.5,630.5L514,623ZM829.5,617L820,623.5L825.5,622.5L829.5,617ZM676.5,616L653,618.5L672.5,619.5L676.5,616ZM478,612L477,614.5L480.5,616.5L481.5,614L478,612ZM496,612L503,618.5L507.5,619.5L498.5,611L496,612ZM315.5,611L311,614.5L314.5,614.5L315.5,611ZM688.5,610L662,612.5L678.5,612.5L688.5,610ZM303.5,611L300,611L299,613.5L303.5,611ZM483,609L485,613.5L489.5,614.5L485.5,609L483,609ZM842.5,608L834,614.5L839.5,613.5L842.5,608ZM342.5,607L340,609L341,610.5L343.5,609.5L342.5,607ZM458,607L463,612.5L466.5,611.5L465.5,609L458,607ZM403,606L404.5,608.5L405.5,607L403,606ZM606,605L624.5,608.5L619.5,606L606,605ZM371,605L372.5,607.5L373.5,606L371,605ZM884,601L883,603.5L885.5,603.5L886.5,601L884,601ZM854.5,600L852,600L849,605.5L851.5,605.5L854.5,600ZM861.5,599L856,604L857,606.5L861.5,599ZM725,594L725,598.5L727.5,598.5L725,594ZM328.5,594L320,597L318,600.5L324.5,598.5L328.5,594ZM774.5,593L762,599.5L769.5,597.5L774.5,593ZM684.5,593L682,594.5L683.5,595.5L684.5,593ZM568,591L572,594.5L579.5,595.5L568,591ZM440,591L445.5,593.5L444.5,591L440,591ZM472,589L474,594.5L483.5,602.5L482.5,599L472,589ZM397,589L398,591.5L401.5,591.5L400.5,588L397,589ZM870.5,583L866,586L866,589.5L871.5,586.5L870.5,583ZM428.5,582L418,583.5L422.5,584.5L428.5,582ZM359,583L360,585.5L366.5,585.5L362.5,582L359,583ZM352.5,582L348,581L343,586.5L347.5,586.5L352.5,582ZM454,580L454,583.5L457.5,585.5L454,580ZM377,578L380,580.5L385.5,580.5L377,578ZM787.5,576L773,585.5L780.5,583.5L787.5,576ZM397,574L400,576.5L407.5,575.5L397,574ZM436.5,569L421,570L418,572.5L432.5,571.5L436.5,569ZM239.5,567L234,570.5L239.5,570.5L239.5,567ZM541,562L541,564.5L545.5,567.5L541,562ZM821.5,552L818,556.5L821.5,554.5L821.5,552ZM196,552L197.5,554.5L198.5,552L196,552ZM251.5,550L245,553L245,557.5L251.5,550ZM233,542L244.5,550.5L240.5,545L233,542ZM658,540L650,551L650,559.5L653,564.5L664,573.5L672.5,573.5L680.5,570.5L687.5,560.5L687.5,553L684.5,546L673.5,538L658,540ZM671.5,567L676,566L675.5,568L671.5,567ZM214,535L216,538.5L221.5,540.5L218.5,536L214,535ZM167,535L167,537.5L170.5,537.5L167,535ZM812.5,532L806,542.5L810.5,538.5L812.5,532ZM360,530L369,532.5L389.5,531.5L360,530ZM188,528L188,531.5L191.5,532.5L192.5,530L188,528ZM198,526L206.5,531.5L199.5,525L198,526ZM590,523L591.5,525.5L592.5,523L590,523ZM579.5,523L571,528.5L578.5,525.5L579.5,523ZM347,521L355,524.5L376.5,525.5L347,521ZM834.5,519L820,543.5L827.5,535.5L834.5,519ZM572.5,519L560,525L556.5,530L522,547.5L547.5,537.5L572.5,519ZM142,517L143,519.5L145.5,518.5L142,517ZM445.5,515L432,516L419,521.5L445.5,515ZM610,513L610,515.5L612.5,514.5L610,513ZM824.5,512L822,520.5L825.5,514.5L824.5,512ZM180,512L180,514.5L190.5,522.5L189.5,519L180,512ZM597.5,509L593,512L593,514.5L597.5,509ZM591.5,507L578,514.5L584.5,514.5L591.5,507ZM260,506L264,509.5L296.5,517.5L290.5,514L260,506ZM308,505L308,508.5L312.5,508.5L311.5,505L308,505ZM169,505L166,508L166,512.5L171.5,514.5L172.5,509L169,505ZM853.5,504L848,522.5L837,542.5L810.5,569L787,585L785,588.5L809.5,574.5L826,557.5L827.5,560.5L848.5,528.5L850.5,517L854.5,512.5L853.5,504ZM235,496L240,499.5L247.5,500.5L242.5,497L235,496ZM830.5,492L828,494L829,497.5L830.5,492ZM443,493.5L445.5,494.5L446.5,492L443,493.5ZM239,492L241,495.5L257.5,500.5L239,492ZM603.5,491L589,502.5L598.5,498.5L603.5,491ZM151,490L150,493.5L153.5,493.5L151,490ZM497.5,486L494,486L472,498.5L477.5,497.5L497.5,486ZM485.5,477L484,476L482,478.5L485.5,477ZM618.5,473L607,483.5L614.5,481.5L618.5,473ZM828,470L830.5,477.5L831.5,474L828,470ZM224,469L230,475.5L239.5,479.5L224,469ZM853,467L854,488.5L856.5,489.5L857.5,476L853,467ZM506,467L506,469.5L509.5,468.5L506,467ZM528.5,466L516,476.5L526.5,470.5L528.5,466ZM246,456L247.5,458.5L248.5,457L246,456ZM526.5,452L518,461.5L526.5,454.5L526.5,452ZM631.5,451L626,455L627,461.5L632.5,453.5L631.5,451ZM826,448L829.5,454.5L830.5,453L826,448ZM557.5,446L550,455.5L554.5,452.5L557.5,446ZM370,446L362,453L360,458L363,471.5L375,480.5L385.5,480.5L392.5,477.5L399.5,467.5L399.5,458L396.5,453L385.5,445L370,446ZM390,472L388.5,475L382.5,474.5L388,470.5L390,472ZM385,463.5L386,465.5L384,466L385,463.5ZM393,460.5L395,461L394.5,466L392.5,465.5L393,460.5ZM842,440L849.5,455.5L849.5,449L842,440ZM212,434L214,440.5L219.5,446.5L212,434ZM641.5,433L636,434L635,441.5L641.5,435.5L641.5,433ZM650,430L652.5,432.5L652.5,430L650,430ZM528,429L527,432.5L530.5,431L528,429ZM824,419L835.5,432.5L833.5,427L824,419ZM574.5,416L561,440.5L563.5,440.5L568.5,432.5L574.5,416ZM644.5,414L642,420.5L645.5,417.5L644.5,414ZM590.5,414L589,413L579,436.5L562,459.5L524.5,491L482.5,513L430,526.5L457.5,522.5L487.5,513.5L532.5,489.5L574.5,450.5L577.5,442L587.5,428.5L590.5,414ZM566.5,406L564,408L563,414.5L565.5,412.5L566.5,406ZM546,405L544,407.5L546.5,408.5L546,405ZM596.5,395L593,407.5L596.5,407.5L597.5,404.5L596.5,395ZM716.5,395L689,393L681,399L666,516L672,523.5L680.5,523.5L686.5,516.5L721.5,423.5L725.5,409L716.5,395ZM685.5,501.5L683,510L682.5,506L685.5,501.5ZM690.5,489.5L691,493.5L688,497L688.5,490L690.5,489.5ZM686,475.5L687,479.5L685,480L686,475.5ZM696.5,470.5L698,474.5L692,485L696.5,470.5ZM678.5,467.5L678,475.5L676,476L676.5,468L678.5,467.5ZM701.5,455.5L703,459.5L699,468L697.5,463L701.5,455.5ZM707.5,440.5L709,443.5L706,452.5L703,454L703.5,447L707.5,440.5ZM681.5,438.5L682,446.5L680,450L679.5,442L681.5,438.5ZM701.5,432.5L702,436.5L697,448.5L696.5,441L692.5,446L691,444L682,473L681.5,467L688.5,447.5L688.5,443L685,446L684.5,441L687.5,439.5L692.5,441.5L694.5,437L696.5,437.5L701.5,432.5ZM697.5,427.5L698,431.5L695,436L697.5,427.5ZM713.5,424.5L715,427.5L711,438.5L708,439L710.5,426L713.5,424.5ZM718.5,408.5L719,417.5L715,423L713.5,419L715.5,418.5L714.5,415L718.5,408.5ZM226,389L225,390.5L227.5,391.5L226,389ZM794.5,385L794,386.5L829.5,410.5L851,436L864,466L866,499.5L856,532.5L848,545.5L830.5,565L797.5,590L751,610L746,614L746.5,620.5L746.5,615L753,612L752,623.5L756,636.5L757.5,634L754.5,625.5L754.5,615L758,611.5L771.5,609.5L803.5,593.5L824.5,578.5L848.5,554.5L864.5,526.5L870.5,505.5L870.5,474L858.5,439L849.5,426L829.5,406L794.5,385ZM764,385L774.5,388.5L770.5,385L764,385ZM646.5,384L644,385L645,389.5L646.5,384ZM179,381L175,390L175,414.5L180,424L181,435.5L187,447.5L211,476.5L223,486.5L235.5,491.5L223,483L203.5,464.5L188.5,442.5L178.5,417.5L176.5,402L179,381ZM738,377L738,379.5L742.5,379.5L738,377ZM762,373L782.5,381.5L776.5,377L762,373ZM726,364L752.5,370.5L738.5,365L726,364ZM569,364L570.5,374.5L571.5,369L569,364ZM582,363L584.5,373.5L584.5,367L582,363ZM595,361L595,378.5L597.5,383.5L598.5,368L595,361ZM677,360L717.5,363.5L709.5,360L677,360ZM188.5,357L184,363L184,370.5L186.5,368.5L188.5,357ZM222.5,336L217,340L212,348L210,358.5L213.5,354.5L215.5,344L222.5,336ZM639,333L642.5,334.5L641.5,332L639,333ZM581,329L588,347.5L590.5,347.5L587.5,337L581,329ZM228.5,330L227,329L224,333.5L226.5,333.5L228.5,330ZM212.5,324L204,333L203,337.5L212.5,324ZM552,319L557,325.5L559.5,325.5L552,319ZM562,307L561,308.5L575.5,322.5L567.5,310L562,307ZM531.5,303L530,302L529,304.5L531.5,303ZM508,299L510.5,301.5L510.5,299L508,299ZM549,296L557.5,304.5L557.5,302L549,296ZM259.5,293L243,302L241,305.5L259.5,293ZM239,290L205,314L182,340L178,351.5L167,370L161,395L162,421.5L171,447.5L187,471.5L214,496.5L225.5,501.5L234,508.5L263,521.5L270.5,520.5L276,524.5L280.5,523.5L283,531L279,540L280.5,542.5L286.5,529.5L282.5,530.5L283.5,522L236,503L206,482L189.5,465.5L173.5,440.5L166.5,417.5L166.5,387L177.5,354L198.5,326L218,307.5L240.5,290.5L239,290ZM423.5,288L411.5,285L389,284L362,289L340,301L332,309L325,321L323,330L324,343.5L328,350.5L341,358.5L354.5,356.5L363.5,349.5L364.5,338L360.5,331.5L361.5,326L371,314.5L386,309.5L405.5,310.5L414.5,314.5L421,323L422,335.5L417,346.5L404.5,359L386,371L374,383L367,397L367,418.5L369,425.5L374,429.5L386.5,429.5L393.5,424.5L394.5,410L400.5,401L418,386.5L443.5,371.5L456.5,358.5L460.5,350.5L463.5,334L459.5,317L442.5,298L423.5,288ZM388.5,410.5L387,423L386.5,411L388.5,410.5ZM385.5,395.5L384,401L383.5,397L385.5,395.5ZM377.5,391.5L375,397L375.5,392L377.5,391.5ZM383.5,390.5L379,400L378.5,397L383.5,390.5ZM394.5,383.5L392,388L391.5,385L394.5,383.5ZM423,377L409.5,389L400,394L391.5,408L388.5,406.5L390.5,401L400,390.5L413,380.5L423,377ZM431,372L428.5,376L424.5,375.5L426,372.5L431,372ZM412,370L408.5,378L395.5,382.5L397,379.5L407.5,374.5L406,373L399,376L400,373.5L412,370ZM441,365L434.5,372L431.5,370.5L438,364.5L441,365ZM446.5,357.5L448,360.5L444,364L442.5,361L446.5,357.5ZM447.5,356L450.5,355.5L451,358.5L448,359L447.5,356ZM341.5,352L349.5,350.5L350,353.5L344,354L341.5,352ZM454.5,346.5L455,351.5L452,354L451.5,348L454.5,346.5ZM424.5,346.5L422,351L422.5,347L424.5,346.5ZM446.5,345.5L444,353.5L439,357L442.5,350.5L440.5,348L446.5,345.5ZM358.5,343.5L359,347.5L355.5,351L352,351L351.5,349L358.5,343.5ZM432.5,341.5L433,344.5L429,348L432.5,341.5ZM443.5,338.5L444,341.5L441,344L443.5,338.5ZM341.5,334L345,335.5L342,336L341.5,334ZM457,330.5L458,343.5L456,344L454.5,341L457,330.5ZM337,329.5L338.5,333L335.5,332.5L337,329.5ZM447,327.5L449,329L448.5,333L447,327.5ZM429.5,327.5L428,335L427.5,328L429.5,327.5ZM341,325.5L342,329.5L345,330L341.5,333L339.5,331.5L341,325.5ZM444,324.5L446,329L444.5,339L444,324.5ZM436,316.5L441,326L438.5,341L436,316.5ZM445,313.5L449,317L448.5,320L445,313.5ZM440,311.5L445,316L445.5,321L439.5,314.5L440,311.5ZM366.5,311.5L358,320L357,326.5L355,327L356.5,317L362,311.5L366.5,311.5ZM415.5,306L419.5,306.5L420,309.5L415.5,306ZM379,306L364.5,310.5L374,305.5L379,306ZM359.5,305.5L357,309L356.5,307L359.5,305.5ZM346,306L346,309.5L341.5,315L336.5,313.5L344,305.5L346,306ZM419.5,305L423,306.5L420,307L419.5,305ZM380.5,305.5L382,303.5L387,304L385.5,306L380.5,305.5ZM424,302L420,302L419.5,305L412.5,302.5L419,299.5L424,302ZM406.5,296L412.5,295.5L418,298.5L412,299L406.5,296ZM387.5,297L394.5,295.5L398,298.5L388,299L387.5,297ZM363,296L355.5,301L352.5,300.5L363,296ZM414.5,293L425,296.5L419,297L414.5,293ZM387.5,291L408.5,291.5L409,293.5L387.5,291ZM253.5,282L244,286L242,289.5L249.5,286.5L253.5,282ZM523,280L529.5,283.5L528.5,281L523,280ZM317.5,269L314,271.5L315.5,272.5L317.5,269ZM587.5,312L560.5,287L531.5,270L521,267L549.5,283.5L579,309L597,335L606,362L608,391.5L604,413.5L590,442.5L561.5,476L522.5,504L467.5,526L458.5,528L452,526L454,528.5L402.5,536L339,534L327,545L316.5,559L276.5,590L242.5,602L238.5,601L245.5,595.5L243,595L231,606.5L234.5,607.5L257.5,601.5L263,594.5L269.5,596.5L276.5,592.5L277,589.5L281.5,590.5L294.5,583.5L303,574.5L307.5,573.5L317,563.5L322.5,561.5L338,539.5L397.5,541.5L424.5,539.5L470.5,530.5L518.5,512.5L546.5,495.5L564.5,481.5L593.5,448.5L608.5,417.5L612.5,399.5L613.5,377L609.5,354L599.5,330L587.5,312ZM466,260L467,262.5L475.5,263.5L466,260ZM489,255L491,257.5L510.5,263.5L501.5,258L489,255ZM471,251L475,253.5L481.5,253.5L471,251ZM355.5,248L315,256L286,266L280,270.5L319,257.5L352.5,250.5L355.5,248ZM386,245L435.5,246.5L426.5,244L386,245ZM161,344L149,372L144,397L144,423.5L152,459.5L169,488.5L195,514.5L231,535.5L261,547L255,560.5L237,584.5L218.5,603L202,615L202,620.5L205,622.5L239.5,622.5L280.5,612.5L306.5,600.5L338,577.5L338,580.5L343,576.5L345,578.5L331,590L333.5,590.5L351,574.5L350,578.5L357,574.5L380.5,575.5L364.5,571L351,573L350,569.5L362.5,568.5L364,566.5L419.5,566.5L445,562.5L459.5,564.5L455.5,562L461.5,560.5L463,562.5L461,563.5L463.5,563.5L466.5,569L462.5,566L444,565L439,567.5L445.5,566.5L457,570.5L452,572L443,570L436,572L436,574.5L442.5,573.5L446.5,576.5L449,573.5L456.5,572.5L460,577L459.5,580L456,577L457,579.5L464.5,584.5L456.5,571L460.5,570.5L469.5,582.5L469.5,577L463.5,572.5L467.5,570.5L482,589.5L499,605.5L521,620.5L548,633.5L574,642.5L609,650.5L662,654.5L693.5,652.5L700,659L698,660L694,657L695,659.5L702.5,661.5L718,676.5L748,694.5L781,706.5L808.5,710.5L816.5,708.5L817.5,704L797.5,683.5L778.5,652.5L773.5,635L808.5,621.5L846.5,595.5L862.5,579.5L874.5,563.5L883.5,547.5L889.5,530.5L893.5,506.5L893.5,491L890.5,471L882.5,448L859.5,413L829.5,386L789.5,364L737.5,349L707.5,345L674.5,344L630,348L615.5,319L603.5,303L585.5,285L559.5,266L541.5,256L489.5,237L439.5,229L388,228L339,234L299,244L253,262L212,287L178,319L161,344ZM628.5,643L643.5,643.5L644,645.5L629,645L628.5,643ZM656.5,641L672,641.5L658,643L656.5,641ZM629.5,640L656,641.5L653,643L654.5,646L646,646L645.5,642L629.5,640ZM547.5,623L570,631.5L558,629L547.5,623ZM551.5,621L568,627.5L556,625L551.5,621ZM539.5,616L543,617.5L540,618L539.5,616ZM288,599L280.5,604L277.5,603.5L288,599ZM480.5,573L510,598.5L531,611.5L529,613.5L537,618.5L518,610L501,598L485.5,582.5L480.5,573ZM344.5,571.5L340,577L339.5,575L344.5,571.5ZM336.5,565.5L332,571L331.5,569L336.5,565.5ZM334,564L327,573.5L317,581L330,573L318.5,584L293.5,598L289.5,597.5L316.5,579.5L334,564ZM862,559L858,565.5L862,562.5L864,563L841.5,590L826.5,602L822.5,602L829,596L813.5,604.5L820.5,598.5L818.5,597.5L841.5,580.5L862,559ZM478.5,556L485.5,555.5L487,558.5L481,559L478.5,556ZM444,554L441.5,556L417.5,559L378.5,558.5L444,554ZM497.5,550.5L498.5,555L495,554L496,555.5L494,556L491.5,553.5L497.5,550.5ZM456,547L455.5,549L416.5,555L376.5,554.5L379,552.5L415.5,552.5L456,547ZM513,549L508.5,552L501.5,550.5L510,545.5L512,546L510,548.5L513,549ZM461,545.5L462,547.5L460,548L461,545.5ZM487,539L471.5,546L469.5,544.5L487,539ZM563,507L555.5,514L553.5,513.5L559,507.5L563,507ZM885.5,492.5L886,512.5L883,517L883.5,511L882,513L881.5,509L885.5,492.5ZM164.5,466L198,499.5L231,520.5L215,514L227,522.5L224,523L194,504L173.5,482.5L164.5,466ZM603.5,459.5L602,470.5L586,487L587,488.5L583,489L574.5,497L572,494L559,505L603.5,459.5ZM609.5,457.5L606,464L605.5,461L609.5,457.5ZM614.5,448.5L615,451.5L612,455L614.5,448.5ZM627,386.5L629,390L628.5,410L625.5,405.5L627,386.5ZM635.5,365L640.5,364.5L642,370.5L637,371L635.5,365ZM639.5,354.5L640,360.5L636,362L633.5,356L639.5,354.5ZM642,353.5L674,350.5L708.5,351.5L746.5,357.5L777.5,366.5L811.5,382.5L830.5,395.5L856,421L870,445L878,473L879,498.5L874,522.5L863,545.5L847,566.5L825.5,586L789.5,607L761,618L763,633.5L777,664.5L802.5,699L790,697L771,690L741,674L723,661L696.5,632L675.5,634L624,633L585,626L548,613L515,595L496,579L482.5,562.5L483,560.5L488.5,560.5L504,578.5L531,597.5L573,616.5L614,625.5L642,628.5L700.5,626.5L709,641.5L739,668.5L751.5,673.5L759,680.5L780,690.5L789.5,691.5L779.5,678L779,680.5L783,684L780,686L755,673L749.5,668L744,667L723.5,649.5L700.5,622L637,623L607,619L574,611L549,601L524,586L497.5,561.5L500.5,559L495.5,558.5L496,556.5L501.5,555.5L521,575.5L561,599.5L583,607.5L615.5,613.5L577,603L554,593L531,579L512.5,562.5L515.5,559L509,560L505.5,555L516.5,550.5L524,561.5L528.5,561.5L521.5,555.5L519.5,549L515.5,548.5L515.5,544L542.5,531.5L573.5,511.5L610.5,474.5L619.5,460.5L633.5,428.5L637.5,407.5L636.5,374L642.5,372.5L645.5,378.5L643,363.5L664.5,361.5L643,361L640.5,356.5L642,353.5ZM596,309L610,332L619,359L622,381L619,410.5L611,433.5L600,452.5L589,467.5L564.5,491L551.5,501L516.5,521L464.5,539L432.5,545L398.5,548L342,545L322.5,567L294.5,588L257.5,605L232.5,612L217.5,612.5L241.5,590.5L255.5,572.5L266.5,554.5L274.5,532L270.5,527L254,523L228,512L198,492L172.5,465.5L162.5,448.5L154.5,427.5L151.5,401L154.5,380L159.5,364L180.5,327L206,300.5L242,275.5L273,260.5L300,250.5L365,236.5L421.5,234.5L465.5,238.5L521.5,254.5L545.5,266.5L566.5,280.5L596,309Z" style="fill:rgb(75,75,75);fill-rule:nonzero;stroke:rgb(75,75,75);stroke-width:1px;"/>
    </g>
</svg>
