<?xml version="1.0" encoding="UTF-8" standalone="no"?>
<!DOCTYPE svg PUBLIC "-//W3C//DTD SVG 1.1//EN" "http://www.w3.org/Graphics/SVG/1.1/DTD/svg11.dtd">
<svg width="100%" height="100%" viewBox="0 0 603 582" version="1.1" xmlns="http://www.w3.org/2000/svg" xmlns:xlink="http://www.w3.org/1999/xlink" xml:space="preserve" xmlns:serif="http://www.serif.com/" style="fill-rule:evenodd;clip-rule:evenodd;stroke-linejoin:round;">
    <g id="color_0" transform="matrix(0.671651,0,0,0.671651,-43.2249,-55.0682)">
        <path d="M413,839L414,841.5L419.5,840.5L413,839ZM382,832L383,834.5L387.5,834.5L382,832ZM458,832.5L460.5,833.5L461.5,831L458,832.5ZM334,817L345.5,819.5L341.5,817L334,817ZM552,815L553.5,817.5L554.5,816L552,815ZM490.5,814L480,819.5L488.5,817.5L490.5,814ZM287.5,810L285,810L283,813.5L285.5,814.5L287.5,810ZM423.5,810L407,811.5L409,813.5L417.5,813.5L423.5,810ZM373,801L374,803.5L395.5,808.5L391.5,805L383,805L373,801ZM551.5,801L549,800L546,803.5L551.5,801ZM540.5,791L532,795.5L537.5,794.5L540.5,791ZM560,788L560,791.5L562.5,792.5L562.5,789L560,788ZM273,787L274,790.5L277.5,790.5L273,787ZM537,783L539,785.5L541.5,784.5L537,783ZM548,779L548,781.5L553,784.5L559.5,783.5L548,779ZM273.5,777L267,782.5L272.5,780.5L273.5,777ZM563,771L565,773.5L566.5,772.5L563,771ZM540,771L543,773.5L545.5,772.5L540,771ZM828,767L833.5,768.5L834.5,766L831,765L828,767ZM327.5,765L297,774.5L312.5,778.5L313.5,777L309,776L308,773.5L313.5,773.5L315,770.5L327.5,767.5L327.5,765ZM760,763L760,767.5L765.5,765.5L760,763ZM861.5,760L858,761L858,763.5L860.5,763.5L861.5,760ZM896,759L899.5,760.5L900.5,758L896,759ZM704,757L706,759.5L708.5,758.5L704,757ZM665,757L664,759.5L666.5,759.5L665,757ZM687,756L688,758.5L694.5,759.5L687,756ZM923,749L925.5,751.5L925.5,749L923,749ZM348.5,749L346,751L345,757.5L348.5,749ZM494,748L493,750.5L495.5,750.5L494,748ZM186,746L190.5,747.5L188.5,745L186,746ZM904.5,743L895,744L894,746.5L904.5,743ZM712,740L722,744.5L739,747.5L760.5,748.5L755.5,746L736,745L712,740ZM633,739L639.5,740.5L637.5,738L633,739ZM894.5,735L886,738.5L892.5,737.5L894.5,735ZM660,735L661,737.5L664.5,737.5L660,735ZM193,735L206,741.5L215.5,741.5L213.5,739L193,735ZM942,734L941,736.5L943.5,736.5L942,734ZM247.5,735L240,736L237.5,739L220,741.5L229.5,742.5L238,738.5L243.5,738.5L247.5,735ZM128,735.5L130.5,736.5L131.5,734L128,735.5ZM827.5,732L818,733L808.5,738L778,746.5L797.5,744.5L827.5,732ZM354.5,732L350,742.5L352.5,741.5L354.5,732ZM927.5,731L925,731L925,733.5L927.5,731ZM664,731L667,733.5L670.5,732.5L664,731ZM596,731L597,733.5L602.5,732.5L598.5,730L596,731ZM262.5,727L252,730L251,732.5L262.5,727ZM373,726L373,730.5L375.5,731.5L377.5,728L373,726ZM105,722L106,724.5L112.5,724.5L105,722ZM949.5,720L946,720L945,722.5L948.5,722.5L949.5,720ZM932.5,717L928,719.5L932.5,719.5L932.5,717ZM676,715L682,726.5L691,732.5L704.5,736.5L690,730L680.5,720.5L678.5,715L676,715ZM312.5,714L307,715L306,717.5L312.5,714ZM942.5,714L935,715.5L939.5,717.5L942.5,714ZM538,714L560,720.5L580.5,722.5L573.5,717L538,714ZM378.5,713L375,717L375,723.5L377.5,723.5L378.5,713ZM333.5,714L332,713L330,715.5L333.5,714ZM294.5,713L281,718.5L285.5,718.5L294.5,713ZM528,712L536.5,714.5L534.5,712L528,712ZM216,714.5L225.5,716.5L234.5,712L223.5,714L216,712L216,714.5ZM88,712L88,714.5L90.5,714.5L88,712ZM556,711L573,715.5L577.5,713.5L556,711ZM194,708L207.5,712.5L206.5,710L194,708ZM656,708L659.5,709.5L660.5,707L656,708ZM113,706L116,709.5L144.5,718.5L142.5,716L113,706ZM933,703L938.5,709.5L939.5,706L933,703ZM922,703L922,705.5L926.5,706.5L925.5,703L922,703ZM904.5,703L892,710.5L903.5,705.5L904.5,703ZM101,703L102,705.5L108.5,705.5L101,703ZM389.5,702L386,702L384,705L381,725.5L383.5,724.5L385.5,726.5L388.5,720.5L388.5,714L386,715L384.5,712L389.5,711.5L385.5,709.5L389.5,708.5L389.5,702ZM384,719.5L386,721L384.5,724L382.5,722.5L384,719.5ZM386.5,715.5L385,719L384.5,716L386.5,715.5ZM825,700L823,704.5L826.5,705.5L825,700ZM380.5,700L378,704L379,710.5L380.5,700ZM854.5,699L842,702.5L850.5,702.5L854.5,699ZM92,697L94,700.5L96.5,700.5L95.5,697L92,697ZM691.5,695L680,703L676,711.5L691.5,695ZM926,694L927,696.5L931.5,697.5L931.5,695L926,694ZM78,693L77,696.5L79.5,696.5L80.5,694L78,693ZM672.5,689L664,690L659,693.5L672.5,689ZM714.5,688L712,693.5L714.5,692.5L714.5,688ZM558,688L560,690.5L564.5,689.5L558,688ZM868.5,685L858,689.5L864.5,688.5L868.5,685ZM942.5,684L940,685.5L941.5,686.5L942.5,684ZM673,682.5L677.5,682.5L679.5,680L675,680L673,682.5ZM170.5,681L168,680L167,683.5L170.5,681ZM132.5,681L121,682L118,685.5L129.5,688.5L130.5,686L126.5,685L132.5,681ZM94,679L93,682.5L95.5,682.5L96.5,679L94,679ZM169,675L171.5,677.5L171.5,675L169,675ZM680,674.5L686.5,674.5L687.5,672L680,674.5ZM580,671L583.5,672.5L583.5,670L580,671ZM467,671L470.5,672.5L468.5,670L467,671ZM112.5,668L111,667L110,669.5L112.5,668ZM340,664L338,666.5L341.5,667.5L342.5,665L340,664ZM607.5,663L604,669L600,687.5L603.5,682.5L607.5,663ZM636.5,656L634,659L633,668.5L636.5,656ZM787.5,647L781,654L774,674.5L787.5,647ZM877,638L880,645.5L882.5,646.5L881.5,642L877,638ZM639.5,638L637,641L638,645.5L639.5,638ZM257,633L258,643.5L260.5,644.5L259.5,633L257,633ZM865,629L869,633.5L872.5,633.5L870.5,630L865,629ZM838,629.5L845,627.5L861.5,628L859.5,626L846,626L838,629.5ZM814.5,619L802,626L789,639L788,643.5L814.5,619ZM169.5,618L167,628.5L169.5,624.5L169.5,618ZM645.5,613L640,631L641,633.5L645.5,613ZM185,613L184,614.5L186.5,615.5L185,613ZM574,594L586,596.5L604.5,596.5L574,594ZM190.5,594L186,602L186,610.5L188.5,607.5L190.5,594ZM468,593L476,596.5L498,598.5L508.5,597.5L586,605.5L604.5,604.5L468,593ZM585,588L606.5,590.5L600.5,588L585,588ZM338,583L363,587.5L464.5,593.5L416.5,588L338,583ZM532,581L549.5,583.5L544.5,581L532,581ZM711.5,580L705,582.5L710.5,582.5L711.5,580ZM294,572L301,574.5L308.5,573.5L294,572ZM753.5,570L749,571L748,573.5L753.5,570ZM745,567.5L752.5,565L747,565L745,567.5ZM703,566L703,568.5L705.5,567.5L707,569.5L711.5,567.5L708,567L708.5,565L703,566ZM501,566L519,569.5L607.5,574.5L606.5,572L501,566ZM413,560L421,562.5L441.5,562.5L437.5,560L413,560ZM355,554L370.5,556.5L366.5,554L355,554ZM203.5,520L201,531.5L203.5,527.5L203.5,520ZM196.5,513L194,516L192,530.5L195.5,525.5L196.5,513ZM765,499L768,516.5L773.5,529.5L765,499ZM265.5,486L262,493L259,509.5L265.5,486ZM670.5,450L668,452L669,455.5L670.5,450ZM659,398L659,400.5L664.5,399.5L659,398ZM710.5,390L697,400.5L702.5,400.5L706.5,397.5L710.5,390ZM263,385L270,387.5L279.5,386.5L263,385ZM690,386L691,392.5L694,394.5L700.5,394.5L705.5,389.5L699.5,382L695,382L690,386ZM696,385.5L701,387L699.5,392L694.5,391.5L696,385.5ZM455.5,372L429,375.5L446.5,375.5L455.5,372ZM276,373L276,379.5L278,380.5L286.5,376.5L283.5,371L276,373ZM278.5,376.5L279,373.5L283,374L278.5,376.5ZM768,366L772,379L773,393.5L775.5,394.5L768,366ZM720.5,359L718,362L718,372.5L720.5,359ZM727.5,324L725,326L724,334.5L726.5,332.5L727.5,324ZM281.5,301L275,301L272,304L272,308.5L275.5,310.5L281.5,304.5L281.5,301ZM661,300L671,302.5L686.5,301.5L675.5,299L661,300ZM566,300L571,303.5L579.5,300.5L566,300ZM557.5,299L550,298L542,300.5L557.5,299ZM356,296L362,298.5L375.5,297.5L356,296ZM673.5,283L670,279L668.5,283L661,283.5L673.5,283ZM333,280L337.5,281.5L336.5,278L333,280ZM326,269L336,273.5L338.5,271.5L335.5,269L326,269ZM670,227L671,229.5L673.5,228.5L670,227ZM331.5,226L330,225L328,227.5L331.5,226ZM660,202L651,206L643,216L640,224L641,234.5L645,244.5L652,251.5L661,255.5L675.5,254.5L684.5,249.5L691.5,238.5L691.5,220L687.5,212L680.5,205L660,202ZM682,241.5L683,243.5L681,244L682,241.5ZM687.5,230.5L688,233.5L685,237L684.5,232L687.5,230.5ZM685,220.5L686.5,225L684.5,224.5L685,220.5ZM666,205.5L673.5,206.5L682,212L683,225.5L676,228.5L684,230L681,239.5L668.5,247L654,242L651.5,238L651,243L646.5,234.5L647,231.5L650,233.5L651.5,231.5L651.5,221L649,222L649,227.5L646.5,228.5L646.5,222L650.5,214L666,205.5ZM319,202L313,204L305,212L301,220L300,232.5L305,243.5L311,249.5L320,253.5L331.5,253.5L342.5,248.5L347.5,242.5L351.5,230.5L350.5,220L340.5,205L332.5,202L319,202ZM307,230.5L309,231L310.5,240L307.5,236.5L307,230.5ZM324,205.5L333.5,206.5L343,215L340,217L343,224.5L333,227L341.5,227.5L343,232.5L336.5,242L332,242L328.5,246L312.5,238.5L309.5,232.5L311.5,230.5L312.5,217L306.5,225.5L311.5,213L324,205.5ZM103,684L104,697.5L117,704.5L218,735.5L230.5,734.5L262,721.5L266.5,722.5L267,719.5L291,708.5L307.5,707.5L314.5,703.5L309,704L310.5,700L315.5,700.5L318,695.5L322.5,695.5L325,689.5L328.5,690.5L329,693.5L318,701.5L334.5,690.5L332.5,688L323.5,686.5L323.5,675L318.5,671L301,667L282.5,659.5L278.5,640L282.5,632.5L293,591.5L374.5,598.5L378,603L378,612.5L378.5,609L381.5,607.5L382,614.5L337,748.5L332.5,753L285,769L282,773L282,784.5L287,790.5L300,796.5L407,833.5L418.5,833.5L491,806.5L498.5,806.5L510.5,802.5L512,800L498.5,806L498,803.5L519,794.5L524.5,795.5L533.5,783.5L530.5,768L480.5,751.5L434.5,611L430.5,605.5L432,603.5L602.5,617.5L594,662.5L580,716L583,722.5L592,726.5L626,731.5L641,727.5L644,729.5L654.5,728.5L645,727L644.5,725L652.5,724.5L659.5,716.5L659.5,712L654,712L652.5,706L662.5,704.5L660,703L654,705L655,700.5L661.5,699L655,700L653.5,698L674.5,603L705,593.5L739.5,595.5L743,609.5L728,621L716,634L707,650L701,672.5L693,679L690.5,686L687,686L686.5,684L677,686L686,687.5L673,697L667,704L664,711L665,714.5L662,715L666,717L672,729.5L688,742.5L708,750.5L738,757.5L782.5,757.5L808.5,752.5L818,748.5L843.5,747.5L853.5,743L850,741.5L862,738.5L871.5,739.5L911.5,725.5L894,728L888.5,733L884.5,732.5L888.5,730.5L885.5,729.5L887,727.5L895.5,725.5L903,720.5L918.5,719.5L922.5,717.5L923,714.5L928.5,712.5L924.5,709L916.5,710.5L919.5,704.5L919.5,694L911.5,685.5L909.5,678L904.5,674.5L899.5,652L889.5,634L867.5,611L854.5,603L818.5,590L797.5,588.5L756.5,416.5L757,411.5L772.5,411.5L784.5,403.5L786.5,399.5L760.5,296L753.5,289L709.5,286.5L709.5,268L697.5,261L706.5,251.5L712.5,237.5L710.5,216L704.5,205L697.5,198L687.5,192L675.5,189L660,190L648,195L640,202L632,215L630,224L631,239.5L636,250.5L645,261.5L634,267L631.5,287L368,284L366.5,266L355.5,260.5L364.5,250.5L370.5,235.5L370.5,221L363.5,205L352.5,195L335.5,189L319,190L305,197L293,213L290,232.5L293,244.5L306,259.5L295,266L293.5,284L267,284L260,288L234,393L235,396.5L244,403.5L274,405L246,512L245,523.5L247,526.5L250.5,524.5L277.5,416L279.5,415.5L281,418.5L270,467.5L282.5,419L286.5,416.5L288,421.5L286,423.5L288.5,424.5L289.5,418L292,418L290,436.5L292.5,426L298,426L289,463.5L299.5,427L302,424.5L304,426L290,481L289.5,490.5L303.5,435L309.5,425.5L311.5,415L316,413L294,496L269,605.5L266.5,605.5L265.5,595L268.5,587.5L269.5,574L266,589.5L262.5,591.5L234.5,497L228.5,493L218.5,491L197,493L189,501L147,661.5L107,679L103,684ZM408,821.5L411,822L410.5,826L408.5,825.5L408,821.5ZM391.5,818L394.5,817.5L395,819.5L391.5,818ZM326.5,795L346.5,799.5L372,810.5L368,811L355.5,806L353,808L351.5,805L349,807L344,805L341.5,801L340.5,803L334,802L331.5,797L328,799L326.5,795ZM377.5,793L380.5,792.5L381,794.5L377.5,793ZM322,792.5L326,794L324.5,797L321.5,796.5L322,792.5ZM386.5,787L395,788.5L388,789L386.5,787ZM371.5,787L377,788.5L372,789L371.5,787ZM306.5,787L320,792.5L312,792L306.5,787ZM296.5,784L299.5,783.5L306,787.5L300,788L296.5,784ZM363.5,786.5L365,780.5L380,785L377,787L368,784L366.5,788L363.5,786.5ZM479,767.5L482,773L481.5,778L478.5,777.5L479,767.5ZM470,765.5L473,768L471.5,770L469.5,769.5L470,765.5ZM289.5,774L331.5,759.5L330,774.5L342,787.5L359,795.5L389,802.5L425.5,802.5L451.5,798.5L462,794.5L466.5,795.5L467,792.5L475.5,789.5L485.5,781.5L488.5,775.5L487,766.5L508.5,774.5L503,778L504,779.5L515.5,777.5L517.5,774L489.5,765L486,766L484,759.5L518.5,770.5L525,775.5L441.5,809L411,818L294,778L289.5,774ZM850,741L844.5,745L835.5,744.5L844,740.5L850,741ZM867,735L865.5,737L861.5,736.5L867,735ZM460,734.5L461,736.5L459,737L460,734.5ZM435,732L430.5,736L425,735L421.5,737L388.5,735.5L396,733.5L400,735.5L415.5,735.5L435,732ZM882,731L880.5,734L872.5,736L870.5,734.5L875,731.5L882,731ZM464,727.5L467,730L478,763L474.5,768L472.5,767.5L469.5,750L461.5,731.5L464,727.5ZM420,728L415.5,731L403.5,729.5L420,728ZM873,725L864.5,727.5L869,724.5L873,725ZM334.5,772.5L352,724.5L357,730.5L368.5,733.5L374,737.5L399,741.5L427.5,740.5L459.5,732.5L452,738.5L462,739L467.5,758L465.5,756.5L461,745L453.5,754L443,757L445.5,758.5L455,753.5L457.5,756.5L457.5,752L460.5,750.5L463,757.5L456.5,763L445,767.5L456,763.5L460.5,765.5L460.5,762L464.5,760.5L466,766.5L460,770.5L463.5,772.5L465.5,768.5L468,771.5L452.5,779L427.5,784L390,783L368,779L359.5,774L355,774L363,781.5L360.5,784L354,784.5L376,792L374.5,794L352,787L342,781L341,777.5L346.5,779.5L345,773.5L353.5,773.5L342.5,763L338,775.5L334.5,772.5ZM408.5,722.5L406,727L404.5,724L408.5,722.5ZM417,718L414.5,721L405.5,720.5L406,718.5L417,718ZM650.5,718.5L652,715.5L655,717L650.5,718.5ZM908.5,717.5L914,713.5L920,715L908.5,717.5ZM179.5,714L185.5,713.5L191,716.5L189,718L179.5,714ZM431.5,712.5L432,716.5L427,719L431.5,712.5ZM878,710.5L879,712.5L877,713L878,710.5ZM422.5,710.5L420.5,715L416.5,714.5L422.5,710.5ZM393.5,718.5L395,708.5L411,710L409.5,712L396,712.5L411.5,713.5L411.5,716L398,715L396,716L396.5,720L393.5,718.5ZM784.5,709L800.5,708.5L803,714L802,722.5L785,724L782,722L784.5,709ZM878.5,702.5L879.5,706L866,711L872,712L872,714.5L866,718L863.5,706L866,703.5L878.5,702.5ZM308,701L306.5,705L302.5,703.5L308,701ZM221,699L220.5,701L210.5,701.5L211,699.5L221,699ZM131.5,699L146.5,701.5L180,713.5L156,710L152.5,707L149,708L133.5,700L132,702L131.5,699ZM640.5,696.5L639,702L638.5,698L640.5,696.5ZM125.5,697L129.5,696.5L130,698.5L125.5,697ZM451,690.5L454,692L463.5,725L460.5,723.5L451,690.5ZM210.5,695.5L214,690.5L217,693.5L222,694L220.5,696L210.5,695.5ZM110,690.5L113,692L112.5,695L110,690.5ZM365.5,687.5L369,691.5L364,695L355,725L352.5,721L362.5,691L365.5,687.5ZM192.5,692L196.5,690.5L197.5,687.5L202,693.5L195,694L192.5,692ZM197.5,686.5L198,683.5L202,684L199,685L200.5,687L197.5,686.5ZM903,681.5L906,683L904.5,696L903,681.5ZM700,680.5L708,684L704.5,699L699.5,694.5L700,680.5ZM879.5,676.5L881,681.5L878,684L876.5,682L879.5,676.5ZM244.5,674.5L242,678L241.5,676L244.5,674.5ZM236,675L223,677L221.5,680L215.5,681L210.5,677.5L212,675.5L236,675ZM181.5,690.5L185.5,688.5L183.5,682L187.5,680.5L184.5,676.5L186,674.5L207,679L194,680L191,678L189,680L190,683.5L187,686L188,691.5L181.5,690.5ZM885,669.5L887,672L886.5,680L884.5,679.5L885,669.5ZM234.5,671.5L235,669.5L238,670L234.5,671.5ZM317,678L315.5,681L265.5,704L223.5,720L174,707L111.5,686.5L112,683.5L144.5,669.5L143,680.5L150,690.5L160,696.5L182.5,702.5L185,706.5L186,704.5L227.5,706.5L251.5,702.5L278.5,691.5L287.5,681.5L285,667.5L306,675L298,676L298,679.5L301,681.5L297,684.5L309.5,681.5L309,675.5L317,678ZM249,667L248.5,669L240.5,669.5L249,667ZM881,665.5L883,668L881.5,674L879.5,672.5L881,665.5ZM156.5,679.5L157,676.5L161.5,678.5L157.5,672L159.5,670.5L161.5,672.5L162.5,670.5L159.5,669.5L160,666.5L162.5,667.5L162,658.5L169.5,659.5L177.5,664.5L179,667.5L177,669L177,674.5L179,675.5L182,666.5L210,671.5L229,669.5L233,671L220.5,674L201,674L185,671L179.5,690L176.5,689.5L179.5,677L175,677L176,680.5L173,683L172.5,689L164,686L156.5,679.5ZM273,653.5L276,657L282,678L280.5,681L278.5,680.5L273,653.5ZM157,651.5L159,656.5L152,681.5L159,686.5L163.5,686.5L169,691.5L187.5,696.5L187.5,699L162,692L148.5,681.5L157,651.5ZM437,647.5L440,649L451,683L449.5,687L445.5,684.5L437,647.5ZM410.5,647L413.5,646.5L414,648.5L411,649L410.5,647ZM433.5,649.5L433.5,652L427,654L432,656L433,668.5L436,673L436,677.5L432,677L431,679.5L438.5,677.5L433.5,658.5L435.5,656.5L443,680L443,684.5L438,687.5L443,689.5L437.5,693L419.5,696L400,696L380,692L380,694.5L392,699.5L409,701.5L423.5,699.5L424,701.5L408.5,704L398,703L410.5,707L396,707L393,705L389,726.5L398.5,727.5L399,730.5L384,728L384,730.5L388,731L386.5,736L366,732L359,728L357.5,725L362.5,716L366.5,714.5L364.5,709L370.5,696.5L368.5,692L375.5,691.5L366,685L365.5,682L377.5,646L400,652.5L419.5,652.5L433.5,649.5ZM411.5,645.5L412,643.5L415,644L411.5,645.5ZM411.5,640L415,639L414.5,641L411.5,640ZM409,640L407.5,642L403.5,640.5L407,638.5L409,640ZM403.5,636L405.5,634.5L408,636.5L403.5,636ZM812,631.5L813,633.5L811,634L812,631.5ZM402.5,632L405.5,631.5L406,633.5L402.5,632ZM404,625.5L404.5,631L402.5,629.5L404,625.5ZM276.5,623.5L277,628.5L275,630L276.5,623.5ZM387,617.5L389,620.5L383,641.5L385.5,641.5L390,619.5L408,623L401,624L399,639.5L402,640.5L398,642L401,644.5L396.5,648L393.5,646L386,647L379.5,642.5L387,617.5ZM867,619L866,622L852.5,617L841,618L815.5,630.5L823,622.5L838,616.5L861.5,615.5L867,619ZM199.5,616L204.5,615.5L207,620.5L202,621L199.5,616ZM192.5,618L198,616L197.5,620L192.5,618ZM395.5,615L410,616.5L399,617L395.5,615ZM237,614L229.5,620L225,618L211,621L209.5,618.5L211,616.5L229.5,616.5L237,614ZM261,612.5L263,613L273,648L271.5,652L268.5,651.5L264.5,630L259.5,617.5L261,612.5ZM156.5,648L167,612.5L183,621.5L204,625.5L232.5,624.5L252,618.5L255.5,623.5L254.5,618L256.5,616.5L266,645L261,652L263,656L261.5,658L232.5,666L200,666L173.5,659L170,660L156.5,648ZM200.5,612L205.5,611.5L206,613.5L203,615L200.5,612ZM201.5,607L206.5,606.5L207,608.5L203,610L201.5,607ZM394,605.5L396,606.5L392,609L392,612.5L395.5,615L388.5,611.5L394,605.5ZM396.5,605L415.5,603.5L421.5,605.5L428,611.5L423,615L424.5,610L419.5,607L396.5,605ZM818.5,598L824.5,597.5L826,599.5L820,600L818.5,598ZM256,596.5L258,597L257.5,601L256,596.5ZM223.5,596.5L224,600.5L218,608L223.5,596.5ZM914,697L910.5,707L908,704L897.5,713L881,719L875.5,725L873.5,724L876.5,721L861,723L799.5,747L773.5,752L739,751L705,743L682,731L672.5,717.5L672.5,710L675.5,704L691,691.5L693.5,691.5L698,699.5L705.5,702.5L710,707.5L729.5,714.5L728.5,712L713,706L708.5,701.5L710.5,699.5L710.5,684L705.5,676L715.5,646L722.5,636L731,629L719,662L715,680L716.5,683.5L725.5,651L740.5,620L753,609.5L767.5,603.5L741,629L730,648L725.5,667.5L737.5,639L759,615.5L762,615L749,638L743,662L744.5,666.5L751.5,637L763.5,616L783,599.5L797,595.5L813.5,595.5L814,597.5L792,604L769,625L754,649L746,674.5L764.5,642L786,618.5L799,610.5L816,604.5L841.5,604.5L854,611.5L827,616L818,621L803,635L788,656L778,675L773,695.5L781.5,677L797.5,653L818,633.5L843,622.5L864.5,623.5L873.5,627.5L883,636L896,662L899,678L898,689.5L895.5,688.5L895.5,673L891.5,658L884,649L888,659L886,660L881.5,651L878,649L878,652.5L883,659.5L879,665L874,654L878,675.5L872,683.5L876,684.5L862,692L872,691.5L857,699L866,698L859,702L860,704.5L857.5,707L857.5,702L835,708.5L851.5,706.5L850.5,709L832,713L835,715.5L850.5,714.5L848.5,717L808,723L803.5,705L795.5,702L788,703L792.5,707L787,707L786.5,704L783,706L776.5,722L756,720L738.5,714L734,714L744,721.5L776.5,723.5L786,727.5L801.5,728.5L807,725.5L832.5,724.5L859,718.5L867.5,720.5L888.5,712L885.5,711.5L887,707.5L899.5,703.5L907,697.5L909.5,701.5L909,692.5L911.5,692.5L914,697ZM280.5,593.5L277,610L277.5,599L280.5,593.5ZM217.5,593L227,593.5L221,595L217.5,593ZM277.5,591.5L278,597.5L273,617.5L271,618L272.5,604L277.5,591.5ZM213,591.5L216,592L215,595.5L217,597.5L215,599.5L220,601L216,602L214,610.5L221,612.5L211,615L210.5,600L213,591.5ZM206.5,591.5L208,600.5L203,606L202.5,599L204.5,598.5L204.5,592L206.5,591.5ZM765,588.5L766.5,596L764.5,595.5L765,588.5ZM739,588L737.5,590L723.5,588.5L735,585.5L739,588ZM178.5,575.5L171,610.5L169,611L168.5,605L176.5,576L178.5,575.5ZM765,566.5L771,584L771.5,595L765.5,577.5L765,566.5ZM734,558L733,565.5L729,568L734,569.5L728,573.5L729.5,575.5L734.5,571.5L738,573L737.5,575L718.5,583L684.5,592.5L688.5,588.5L685.5,587.5L688.5,584.5L686.5,582.5L688,580.5L702,577.5L708.5,578.5L714.5,575.5L714.5,571L704,572L704,575.5L693,578L692.5,575L687,576L693,565.5L729,556.5L734,558ZM749.5,553.5L754,561L757,576.5L745,580L737.5,555L749.5,553.5ZM524.5,552.5L525,550.5L536,551L524.5,552.5ZM732,550L731.5,552L708.5,558L686.5,559.5L720,550.5L732,550ZM686.5,550L697,550.5L688,552L686.5,550ZM504.5,550L518.5,548.5L522,550.5L506,552L504.5,550ZM742,548L740.5,550L732.5,550.5L742,548ZM290.5,547.5L288,564.5L286.5,562L280,589.5L278,591L285.5,553L290.5,547.5ZM288.5,584.5L290,580.5L309.5,580.5L291,578L293,566.5L327.5,568.5L295,564L295,557.5L313.5,558.5L308.5,556L297,556L295.5,553L298,549.5L318,553.5L345.5,554.5L298,548L299,544.5L525.5,560.5L615,569L611.5,581L567,578L598,582.5L610.5,581.5L611,587.5L604.5,611L288.5,584.5ZM466.5,542L490.5,541.5L494,543.5L504.5,542.5L518,545.5L546.5,545.5L566,548.5L529,549L476,545L466.5,542ZM322.5,537L328.5,535.5L329,539.5L325,541L322.5,537ZM742,534.5L744,536L743.5,541L739.5,539.5L742,534.5ZM238,534.5L241,536L251,571L248.5,574L236.5,538.5L238,534.5ZM234.5,537.5L244,567L240,573.5L243.5,571.5L244.5,576L224.5,582L198.5,580L190,581.5L208,586.5L229.5,585.5L233,582.5L241,583.5L238.5,586L224,588L222.5,590L204,589L200,608.5L198,610L199.5,614L194.5,613.5L199.5,588L190,588L189,592.5L191,589.5L197,592L196,600.5L192,603L194,606.5L189,615L190,618.5L179,618L173.5,612L176,606.5L179.5,606.5L181.5,594L179.5,598L177.5,597L178.5,592L181.5,591.5L183.5,587.5L181.5,580L187.5,579.5L177.5,572.5L186.5,536L189.5,534.5L201,539.5L211,540.5L234.5,537.5ZM411.5,531L619.5,544.5L620,547.5L534.5,543L520,544L515.5,541L464.5,537L446,540L444.5,538L446.5,537L435,537L449,543.5L480,547.5L427,548L418.5,544.5L420,542.5L426.5,542.5L425.5,541L415,540L414.5,538L430.5,536L412,533L411.5,531ZM370,529.5L375.5,529.5L377,527.5L379,529L380,535.5L377,536L377.5,533L374,535.5L377,536L375,537L376,539.5L380,537.5L382,539L381.5,545L379.5,540L376.5,544L372.5,542.5L370,529.5ZM744,525.5L752.5,543L746.5,540.5L744,525.5ZM377,523L340.5,531L305.5,534.5L306,532.5L367,522.5L377,523ZM212,522.5L213,524.5L211,525L212,522.5ZM209.5,519L213,520.5L210,521L209.5,519ZM749,514.5L752,520L753.5,533L748.5,519.5L749,514.5ZM744,511.5L746,512L745.5,519L744,511.5ZM735,510.5L740,522L741.5,534L738.5,530.5L735,510.5ZM194,509.5L210,513L204.5,536L194,535L188.5,530.5L194,509.5ZM728,506.5L732,519.5L735,522L734,526.5L737.5,543L733.5,537.5L727.5,512.5L728,506.5ZM746,502.5L749,506L748.5,515L746,502.5ZM195.5,501L197.5,500.5L200,505.5L211,507.5L198,507L195.5,501ZM225.5,500L228.5,499.5L230,502.5L228,504L225.5,500ZM730,497.5L732,500L731.5,507L730,497.5ZM218.5,498L226,499.5L220,500L218.5,498ZM205.5,498L217,497L216.5,499L205.5,498ZM733,480.5L740,502L742.5,523L732.5,486.5L733,480.5ZM361,476.5L374,513L373.5,516L368.5,518L364.5,516.5L357.5,488.5L359,484L364,502.5L367.5,506.5L361.5,487.5L361,476.5ZM376,475.5L378.5,481L375.5,478.5L376,475.5ZM744,456.5L748,464L760,519.5L779,592L777.5,594L773.5,591.5L762.5,545L760,541L764,558L763,563L759.5,548L756.5,544.5L753.5,517L748.5,498.5L750.5,497.5L748.5,480L743.5,464.5L744,456.5ZM707,455.5L709,457L729,541L727.5,545L703,545L688.5,542.5L707,455.5ZM362,453.5L365,457L364.5,461L361.5,458.5L362,453.5ZM741,448.5L744,451L743.5,457L741,448.5ZM318.5,447.5L298,539.5L296,540L300.5,514L294,535L295.5,510L307.5,463L314.5,447.5L312.5,466.5L318.5,447.5ZM698.5,444.5L698,454.5L699.5,452.5L698,467.5L677,563.5L676.5,554L674,560L672,575.5L661,615L657.5,640.5L674.5,564L676,570.5L645,706L649.5,676L645,691.5L641.5,694L642.5,678L662.5,589L665,587L664.5,594.5L666.5,587.5L667.5,568L669.5,569.5L671.5,560L669.5,564L668.5,561L678.5,527.5L683.5,495L698.5,444.5ZM347,442.5L353.5,466L349.5,458.5L347,442.5ZM739,440.5L741.5,448L738.5,444.5L739,440.5ZM703.5,437.5L704,442.5L702,444L703.5,437.5ZM370,436.5L380,465L399,544L397.5,546L394.5,544.5L390.5,528L393,544.5L389.5,543.5L388.5,537L386.5,540.5L384.5,534.5L385,530.5L387.5,534.5L382.5,519L375.5,516.5L374.5,507L369.5,494.5L365.5,475.5L367,470L373,489L372,495.5L375,496L377,511.5L383.5,516.5L378.5,506.5L379.5,501L373.5,482.5L375,479L383,510.5L389.5,526.5L382.5,494L378.5,486.5L379.5,479L370,436.5ZM678.5,434L682.5,432.5L683,436.5L680,437L678.5,434ZM675,432.5L677,435.5L674,437L675,432.5ZM666.5,434L669.5,432.5L671,435.5L666.5,434ZM659.5,433L664.5,432.5L666,435.5L660,437L659.5,433ZM693.5,426.5L694,433.5L673,518L629,721.5L626,724L621.5,719L595.5,716.5L598,712.5L609,715.5L616.5,714.5L622,717.5L625.5,714.5L632.5,670L622,711.5L618.5,711.5L619.5,704L616.5,712L610.5,711.5L621.5,659L618,667L616,685.5L609,710.5L604.5,710.5L608,684L603,709.5L597.5,709.5L600.5,699.5L598,696L593,708L594,715.5L589,717L587.5,714L627.5,546.5L651.5,433L656,433L654,437L655,442.5L650,456L649,470.5L632,542L631.5,552.5L657.5,441L663.5,437.5L664,446.5L666.5,446.5L665.5,440L669.5,438.5L668,446.5L670.5,448.5L672.5,439L676,439L670.5,476.5L677.5,440L682,439L666.5,512.5L670.5,503.5L683.5,446L693.5,426.5ZM695.5,420.5L694,427L692.5,422L695.5,420.5ZM333.5,420.5L359,518.5L308,527L316.5,484L331.5,422L333.5,420.5ZM303,418.5L305,419L304.5,422L302.5,421.5L303,418.5ZM371,417.5L378,434.5L384,441.5L380.5,422.5L382,419L408,522L407,525L403.5,516L401.5,517.5L401.5,509L393,484L405.5,546L403.5,545.5L371,417.5ZM296,417.5L300,419L298.5,424L293.5,423.5L296,417.5ZM737,409.5L740,413L745,435.5L749.5,439.5L747.5,431.5L749,428L756,457.5L757.5,457L749.5,420L752,422L791.5,591L788.5,589.5L784.5,569L776.5,547L777,557.5L785,586L785,591.5L781.5,589.5L755.5,475L740.5,428.5L737,409.5ZM386.5,410L647.5,418.5L622,537.5L601,538L416,525L405.5,490.5L386.5,410ZM368,408.5L370,410L369.5,414L368,408.5ZM728.5,404.5L729,410.5L723,413L721.5,409L728.5,404.5ZM611,398L608,401L609.5,404L602.5,403.5L606,398.5L611,398ZM648,397L644.5,405L613.5,403.5L641.5,400.5L641,397.5L648,397ZM547,396L543.5,402L512.5,400.5L514,398.5L535.5,398.5L547,396ZM502.5,399L508.5,395.5L510,399.5L502.5,399ZM402.5,396.5L404,394.5L409,395L402.5,396.5ZM446,393L442.5,398L419.5,396.5L446,393ZM304.5,392.5L307,389.5L313,391.5L348,390L343.5,395L304.5,392.5ZM732.5,379.5L731,397.5L729,399L732.5,379.5ZM669,375L657.5,389L654,389L654,392.5L651.5,394L630,393L630,390.5L645.5,389.5L645.5,386L636,386L634.5,384L625,385L626,387.5L620,389L621,391.5L618.5,393L613.5,391.5L631,374.5L642.5,375.5L645.5,372.5L650,375.5L642,377.5L669,375ZM651.5,373.5L652,371.5L659,372L651.5,373.5ZM671,369.5L672,371.5L670,372L671,369.5ZM661.5,372L668,370L666.5,374L661.5,372ZM553,372L552.5,374L546.5,375L527.5,373.5L531,370.5L549.5,369.5L553,372ZM652.5,368L655.5,366.5L657,368.5L652.5,368ZM430.5,367L438,367.5L433,369L430.5,367ZM669.5,367L673.5,365.5L676,367.5L672,370L669.5,367ZM443.5,367L448.5,365.5L450,367.5L443.5,367ZM752,362.5L755,368L754.5,375L752,362.5ZM450.5,363L456,362L455.5,364L450.5,363ZM371,362L366,370.5L349.5,385L332.5,382.5L346.5,380.5L339.5,378.5L342.5,375L338,375L333.5,380L331.5,379L335.5,375L328,375L323.5,379L318.5,378.5L331,364.5L342.5,365.5L348.5,362.5L350,364.5L346.5,367L335,370L350.5,369.5L353,365.5L357,367L353,369.5L359.5,369.5L357.5,367L360,364.5L371,362ZM640.5,362L643.5,360.5L647,362.5L640.5,362ZM260,351L256.5,355L252.5,355.5L257,350.5L260,351ZM675,350L673.5,353L662.5,353.5L675,350ZM366,347L357.5,349.5L358,347.5L366,347ZM377,347L367.5,350.5L370,346.5L377,347ZM356,345L354.5,348L350.5,348.5L356,345ZM388,344L377.5,357L370.5,360L365.5,359.5L370.5,355.5L367,355L351.5,361L344,361L346,358.5L360.5,354L337.5,357.5L341,352.5L378.5,350.5L379,345.5L388,344ZM662.5,344.5L665,342.5L681,343L675.5,346L662.5,344.5ZM735.5,341.5L735,363.5L732,371L732.5,350L735.5,341.5ZM689,342L683.5,345.5L685,342.5L689,342ZM739.5,339.5L740,344.5L737,350L739.5,339.5ZM549.5,350.5L563.5,344.5L556.5,343.5L559,339.5L585,341L557.5,351L549.5,350.5ZM457.5,347.5L460,344.5L467.5,342.5L462,342L464,339.5L479,340L466.5,347L457.5,347.5ZM384,338L380.5,341L377,340L364.5,345L361.5,344L366.5,342L356.5,342.5L363,338.5L384,338ZM279,337L276.5,340L273.5,339.5L279,337ZM570,337L567.5,340L562.5,338.5L568,335.5L570,337ZM704,335L679.5,364L672,364L671,360L657,365L657,361.5L664.5,359L655,360L654.5,363L651,363L651.5,360L644.5,359.5L646,356.5L649,358.5L662,355.5L670.5,357.5L686.5,353L683,353L682.5,351L690.5,346.5L689.5,342L700,334.5L704,335ZM288,335L283.5,340L279.5,340.5L281,337.5L288,335ZM467.5,333.5L468,336.5L464,338L467.5,333.5ZM379,334L366.5,336.5L370,333.5L379,334ZM273,337L262.5,342L260.5,341.5L261,339L253.5,343.5L254.5,340L264,332.5L266,333L264,336.5L273,337ZM484,332L473.5,337.5L479,332.5L484,332ZM285,331L280.5,333.5L281,331.5L285,331ZM280,330L278.5,334L272.5,335.5L275,331.5L280,330ZM682,329L680.5,332L675.5,333.5L677,329.5L682,329ZM711,328L707.5,333L702.5,332.5L704,328.5L711,328ZM567.5,330.5L574,327.5L590,329L583.5,333L571.5,335L567.5,330.5ZM287.5,328.5L290,325.5L293,326L287.5,328.5ZM476.5,324.5L477,328.5L468,334L469.5,329L476.5,324.5ZM274,325L272.5,328L267.5,329.5L272,324.5L274,325ZM386,325L384.5,328L376.5,331L372.5,330.5L374.5,328L364.5,328.5L368,324.5L386,325ZM749,322.5L755,341L768.5,405L752,405L745.5,402.5L750,399.5L754.5,400.5L758.5,398.5L754.5,384.5L755,376.5L762.5,398.5L748.5,330.5L749,322.5ZM289,323L287.5,326L279.5,329.5L284,323.5L289,323ZM282,323L282,325.5L271.5,335L268.5,334.5L277,324.5L282,323ZM674.5,326.5L680,321.5L696.5,321.5L701,324L699.5,326L691,326L689,330.5L695,331L691.5,333L682.5,332.5L688.5,326L674.5,326.5ZM719,320L716,325.5L711.5,328L703.5,326.5L707,322.5L719,320ZM695,317L693.5,320L685.5,319.5L691,316.5L695,317ZM686,318L680.5,320.5L683,316.5L686,318ZM620,316L594,344L587,354.5L574.5,366L570,367L572,370.5L560.5,383L553,387L552.5,391L540,390L543.5,385L532,386L533.5,382L523,385L519.5,389L514.5,388.5L526,375.5L551.5,375.5L556,369.5L562,370L558,373.5L567.5,370.5L565.5,368L574.5,362.5L571.5,361L556.5,366L542.5,365L559.5,362.5L570.5,357L549.5,363L540,362L539.5,360L551.5,358.5L542.5,357.5L550,354.5L578.5,354.5L583.5,349L561.5,351L585.5,344.5L590,337.5L593.5,337.5L605.5,325.5L573,325L579,316.5L603.5,316.5L602.5,319L596,320L600.5,321.5L608.5,320.5L613,315.5L620,316ZM299,318L297.5,320L284.5,322L276.5,320.5L280,316.5L292.5,317.5L297.5,315.5L299,318ZM743.5,312.5L744,319.5L740,334L737.5,324L739,320.5L740.5,322.5L743.5,312.5ZM700,312.5L706,315L702.5,321L697.5,319.5L697.5,315L700,312.5ZM518,313L511.5,323L503,326L496,333L501,332L499,336.5L475,360L451.5,388L440,388L440,385.5L445.5,384.5L445.5,381L444.5,383L440.5,382.5L441.5,379L437,379L433.5,384L429.5,383.5L432.5,379L415.5,383.5L428,369.5L435,371.5L449,368.5L458.5,369.5L462,365.5L466.5,367.5L465.5,364L473.5,360.5L467.5,359.5L470.5,356L463,356L447.5,361L438,361L437.5,358L442,353.5L444,355.5L441,357.5L447.5,357.5L446,354.5L453.5,353.5L462,348.5L466.5,349.5L470.5,347.5L472,350.5L458,353.5L475.5,352.5L477.5,350L474,350L474,347.5L479.5,347.5L484.5,344.5L484,341L479,345L479.5,341L485,335.5L487.5,338.5L500.5,326.5L501.5,323L488,324L483.5,329L476,332L478,327.5L484.5,324.5L470.5,323.5L479,313.5L501.5,313.5L504,317.5L497,319.5L507.5,318.5L511,313.5L518,313ZM734.5,311.5L716,406.5L697,408L649,406L648.5,403L659.5,393.5L672.5,377L734.5,311.5ZM374.5,317.5L379,311.5L402,313L392.5,317L374.5,317.5ZM751,310.5L753,311L758,328.5L758,317.5L762,327L778,389L779,398.5L775.5,402L773,402L751,310.5ZM418,311L408.5,323L401,326L403.5,325.5L404,327.5L390.5,342L383,342L383.5,339L392.5,332.5L401.5,321L369.5,322.5L373,318.5L404.5,318.5L407.5,317L403,316L403,313.5L418,311ZM280.5,312L283.5,310.5L286,312.5L282,314L280.5,312ZM584.5,311L586.5,309.5L602,311.5L586,313L584.5,311ZM489.5,310L497.5,308.5L499,310.5L489.5,310ZM390.5,309.5L391,307.5L405,308L390.5,309.5ZM381.5,309.5L382,307.5L388,308L381.5,309.5ZM690.5,307L693.5,306.5L694,308.5L691,309L690.5,307ZM591.5,304L593.5,302.5L595,304.5L591.5,304ZM488.5,303.5L489,301.5L495,302L488.5,303.5ZM388.5,302.5L389,300.5L394,301L388.5,302.5ZM291.5,302.5L293,298.5L297,299L296.5,302L291.5,302.5ZM752.5,295.5L754,298.5L749,301L748.5,298L752.5,295.5ZM740,296L735.5,308L732.5,306.5L732.5,300L693,299L601,398L598.5,403L549.5,401.5L571.5,375L642.5,300.5L644,294.5L740,296ZM241.5,390.5L246.5,369L260.5,368.5L259.5,366L278.5,348.5L263,347L253,349L252.5,346L282.5,343.5L292.5,333.5L291.5,331L304.5,321.5L301.5,319L310.5,314.5L304,313L288,315L288,310.5L314.5,310.5L318,308.5L321,310.5L295.5,336L288,340L288.5,341.5L291.5,339.5L292,341.5L275.5,358L273,358L274,359.5L265.5,369L263,369L262.5,374L257,374L254.5,380L251.5,379.5L254.5,373L248,377L247,383.5L250.5,383.5L250,388.5L252.5,388.5L260,381.5L263.5,381.5L264.5,375L340.5,295.5L297,295L295.5,293L286,295L289,297L288,300.5L256,334L262.5,302L267,290.5L565.5,292.5L641,295L638.5,298L592,297L497.5,400L448,399L447.5,397L539.5,299.5L540.5,295L536.5,297L488,297L396.5,397L350,396L347.5,394L360.5,382.5L438,297.5L476.5,299.5L475.5,297L439,298L439.5,294L434.5,296L400,295L393.5,297L391,294L377,297L384,298L380,305.5L299.5,393L241.5,390.5ZM360,269.5L360.5,283L358.5,277.5L360,269.5ZM639.5,271L648,267.5L681.5,268.5L683.5,272L663.5,270L644,271.5L682.5,273.5L684,285.5L650,286L649.5,282L647,282L647,285.5L645,286L644,275L644,285.5L641,287L639.5,271ZM300.5,269L310,265.5L339.5,267.5L342,270L340,272L340,283.5L330,284L328.5,277L325.5,280L320,279L319.5,283L312,283L310.5,280L308,283L305.5,278.5L306,271.5L321.5,271.5L322.5,269L306,269L305,282.5L301,283L300.5,269ZM682.5,263L689.5,262.5L691,266.5L684,266L682.5,263ZM341.5,262L349.5,262.5L353,266.5L351,268L346.5,265L344,266L341.5,262ZM705,229.5L705.5,233L703.5,231.5L705,229.5ZM363,227.5L365,229L363.5,232L363,227.5ZM691.5,202.5L701,212L705,224.5L702.5,222L699.5,224.5L698.5,217L693.5,208L683,202L692,211L696,220L697,232.5L691,248.5L679.5,258L674,258L672.5,260L660,259L667,261.5L675.5,260.5L678,262L676.5,265L652,266L655.5,258L645.5,252.5L636.5,236.5L636.5,222L642.5,209L651,200.5L663,195.5L675.5,195.5L691.5,202.5ZM323,195.5L334.5,195.5L348.5,200.5L359,210L363,219L360,226L354.5,210L347.5,203L342,201L353,214L356,230.5L350,246.5L343.5,253L334,257L337,261L335.5,264L312,264L312.5,260L318.5,257L311,255L301.5,246.5L296.5,234.5L297.5,220L303.5,207L314,198.5L323,195.5Z" style="fill:rgb(75,75,75);fill-rule:nonzero;stroke:rgb(75,75,75);stroke-width:1px;"/>
    </g>
</svg>
