<?xml version="1.0" encoding="UTF-8" standalone="no"?>
<!DOCTYPE svg PUBLIC "-//W3C//DTD SVG 1.1//EN" "http://www.w3.org/Graphics/SVG/1.1/DTD/svg11.dtd">
<svg width="100%" height="100%" viewBox="0 0 603 582" version="1.1" xmlns="http://www.w3.org/2000/svg" xmlns:xlink="http://www.w3.org/1999/xlink" xml:space="preserve" xmlns:serif="http://www.serif.com/" style="fill-rule:evenodd;clip-rule:evenodd;stroke-linejoin:round;">
    <g transform="matrix(0.979067,0,0,0.980493,-197.829,-187.962)">
        <g id="color_0">
            <path d="M519,775C519,775 519.025,778.105 521,778.5C526.17,779.535 531.5,777.5 531.5,777.5L530.5,774C530.5,774 528.73,775.805 526.5,776C522.73,776.33 519,775 519,775ZM459,776.5C459,776.5 461.45,777.43 463.5,776.5C464.725,775.945 464.5,774 464.5,774L459,776.5ZM639,772C639,772 638.17,773.565 639,774.5C640.485,776.17 640.785,776.205 643,776.5C644.805,776.74 646.5,775.5 646.5,775.5C646.5,775.5 646.72,773.57 645.5,773C642.52,771.61 639,772 639,772ZM479.5,772C479.5,772 476.98,770.935 475,772C473.225,772.955 473,775.5 473,775.5C473,775.5 476.605,776.06 479.5,774.5C480.6,773.905 479.5,772 479.5,772ZM499,772C499,772 501.165,773.925 503.5,773.5C504.825,773.26 504.5,771 504.5,771C504.5,771 502.79,769.675 501,770C499.61,770.255 499,772 499,772ZM608,770C607.425,771.725 609,773.5 609,773.5L613.5,771.5C613.5,771.5 612.385,769.515 610.5,769C609.2,768.645 608.425,768.725 608,770ZM657,769L662.5,771.5C662.5,771.5 662.335,768.835 660.5,768C658.845,767.245 657,769 657,769ZM542,773.5C542,773.5 546.16,775.97 550.5,775.5C555.855,774.92 555.985,774.435 560.5,771.5C561.55,770.82 560.5,769 560.5,769L550,771L550.5,767C550.5,767 548.885,766.115 548,767C546.715,768.285 546.605,768.725 547,770.5C547.245,771.59 549,771.5 549,771.5C549,771.5 545.895,770.175 543,771C541.705,771.37 542,773.5 542,773.5ZM570,767C570,767 571.885,770.23 575,771.5C578.965,773.115 583.5,772.5 583.5,772.5C583.5,772.5 583.365,769.76 581.5,769C576.095,766.8 570,767 570,767ZM373.5,767C373.5,767 370.085,765.97 367,767C365.725,767.425 366,769.5 366,769.5C366,769.5 368.89,770.37 371.5,769.5C373.02,768.995 373.5,767 373.5,767ZM712,763C712,763 710.455,765.68 712,766.5C715.78,768.5 720.5,767.5 720.5,767.5C720.5,767.5 720.69,765.63 719.5,765C716.07,763.185 712,763 712,763ZM662,764C662,764 663.89,767.22 667,768.5C668.685,769.195 670.5,767.5 670.5,767.5C670.5,767.5 667.97,764.43 664.5,763C663.255,762.485 662,764 662,764ZM626,763L626,765.5L628.5,765.5L628.5,763L626,763ZM453.5,764L438,764L438,766.5C438,766.5 441.84,764.545 445.5,765.5C448.235,766.215 449.5,769.5 449.5,769.5L453.5,764ZM325,761L325,763.5L330.5,763.5L330.5,761L325,761ZM741,760C741,760 741.43,762.185 743,762.5C745.74,763.05 748.5,761.5 748.5,761.5C748.5,761.5 747.415,759.385 745.5,759C743.24,758.55 741,760 741,760ZM481.5,759C481.5,759 475.44,759.605 470,762C468.77,762.54 469,764.5 469,764.5C469,764.5 472.34,765.26 475.5,764.5C478.76,763.715 479.03,763.765 481.5,761.5C482.42,760.655 481.5,759 481.5,759ZM384.5,759C384.5,759 381.7,757.525 380,759C377.295,761.345 377,765.5 377,765.5L380.5,765.5C380.5,765.5 379.585,763.49 380.5,762C381.81,759.87 384.5,759 384.5,759ZM763,758C763,758 762.775,759.945 764,760.5C766.05,761.43 768.5,760.5 768.5,760.5C768.5,760.5 768.725,758.555 767.5,758C765.45,757.07 763,758 763,758ZM690,759L695.5,761.5L695.5,759L690,759ZM563,758L563,760.5L566.5,759.5L563,758ZM546,759C546,759 547.115,760.985 549,761.5C550.3,761.855 551.5,760.5 551.5,760.5C551.5,760.5 551.8,758.355 550.5,758C548.275,757.395 546,759 546,759ZM532.5,759L528,759L528,761.5C528,761.5 529.97,762.35 531.5,761.5C532.675,760.845 532.5,759 532.5,759ZM652.5,758L649,757C649,757 650.195,759.91 648.5,761C645.76,762.765 642,761.5 642,761.5C642,761.5 642.595,763.335 644,763.5C647.265,763.885 647.74,764.285 650.5,762.5C652.565,761.16 652.5,758 652.5,758ZM295,759L301.5,761.5L302.5,757L295,759ZM697,756L697,758.5L703.5,757.5L697,756ZM575,756L578.5,758.5L578.5,756L575,756ZM463,757.5L467.5,756C467.5,756 465.725,754.425 464,755C462.725,755.425 463,757.5 463,757.5ZM441,756L444.5,757.5L443.5,755L441,756ZM435.5,756C435.5,756 434.205,754.4 433,755C430.625,756.19 431.9,757.86 429.5,759C422.14,762.485 421.39,760.575 414,764C410.95,765.415 409,768.5 409,768.5C409,768.5 411.43,769.385 413.5,768.5C418.665,766.285 417.7,764.37 423,762.5C426.535,761.25 427.175,764.23 430.5,762.5C434.14,760.61 435.5,756 435.5,756ZM254,757.5C254,757.5 255.8,759.155 257.5,758.5C259.65,757.675 260.5,755 260.5,755C260.5,755 257.565,754.015 255,755C253.745,755.485 254,757.5 254,757.5ZM685,753L690.5,755.5C690.5,755.5 690.725,753.555 689.5,753C687.45,752.07 685,753 685,753ZM631,754L634.5,755.5L633.5,753L631,754ZM315,753C315,753 316.375,756.085 319,756.5C321.89,756.955 324.5,754.5 324.5,754.5L315,753ZM291.5,754C291.5,754 289.725,752.425 288,753C285.48,753.84 284,756.5 284,756.5C284,756.5 285.775,758.075 287.5,757.5C290.02,756.66 291.5,754 291.5,754ZM281.5,754C281.5,754 279.185,752.27 277,753C274.815,753.73 274,756.5 274,756.5C274,756.5 276.315,758.23 278.5,757.5C280.685,756.77 281.5,754 281.5,754ZM662,752C662,752 661.725,754.075 663,754.5C664.725,755.075 666.5,753.5 666.5,753.5L662,752ZM647,753.5L649.5,754.5L650.5,752L647,753.5ZM536.5,753C536.5,753 533.12,752.085 530,753C528.465,753.45 528,755.5 528,755.5L536.5,753ZM454.5,752C454.5,752 450.31,752.265 448,755C446.825,756.39 449,758.5 449,758.5L454.5,752ZM803,752C803,752 802.725,754.075 804,754.5C807.085,755.53 810.5,754.5 810.5,754.5L810.5,752L803,752ZM737,751C737,751 735.945,752.83 737,753.5C739.36,755 742.5,754.5 742.5,754.5C742.5,754.5 743.555,752.67 742.5,752C740.14,750.5 737,751 737,751ZM226,754.5C226,754.5 228.89,755.37 231.5,754.5C233.02,753.995 233.5,752 233.5,752C233.5,752 231.185,750.27 229,751C226.815,751.73 226,754.5 226,754.5ZM394.5,750C394.5,750 389.435,748.295 385,750C379.165,752.245 375,757.5 375,757.5C375,757.5 376.825,759.215 378.5,758.5C384.3,756.015 383.09,753.715 389,751.5C391.615,750.52 394.5,752.5 394.5,752.5L394.5,750ZM209,751C209,751 211.685,752.935 214.5,752.5C215.83,752.295 215.5,750 215.5,750C215.5,750 213.28,748.65 211,749C209.6,749.215 209,751 209,751ZM421.5,752C420.045,748.925 416,748 416,748L414,751.5C414,751.5 417.175,750.95 419.5,752.5C420.765,753.345 420.845,754.235 420,755.5C418.03,758.455 417.605,758.275 414.5,760C410.765,762.075 410.705,762.235 406.5,763C404.945,763.285 403.5,762 403.5,762L407.5,759C407.5,759 403.23,761.62 398.5,762C396.49,762.16 395,760 395,760L394,762.5C394,762.5 395.935,761.715 397.5,762.5C399.245,763.375 398.075,765.18 400,765.5C404.71,766.285 405.05,766.235 409.5,764.5C415.575,762.13 415.985,762.205 420.5,757.5C422.435,755.485 422.695,754.525 421.5,752ZM793.5,748C793.5,748 786.09,747.4 779,749C777.685,749.295 777.455,750.27 778,751.5C778.73,753.145 781,753.5 781,753.5L775,756.5C775,756.5 777.21,757.77 779.5,757.5C781.72,757.24 781.99,757.15 783.5,755.5C784.945,753.925 783.09,752.455 785,751.5C788.83,749.585 789.545,752.13 793.5,750.5C794.655,750.025 793.5,748 793.5,748ZM283.5,746L279,749.5C279,749.5 281.12,750.575 282.5,749.5C283.935,748.385 283.5,746 283.5,746ZM747,745L747,749.5L752.5,749.5L747,745ZM272,743L272,745.5L274.5,745.5L274.5,743L272,743ZM232,744.5C232,744.5 234.24,745.95 236.5,745.5C238.415,745.115 239.5,743 239.5,743C239.5,743 236.74,741.45 234,742C232.43,742.315 232,744.5 232,744.5ZM514,734L514,736.5L520.5,736.5L514,734ZM488,734C488,734 487.69,736.19 489,736.5C493.62,737.6 498.5,736.5 498.5,736.5C498.5,736.5 498.055,734.37 496.5,734C492.365,733.015 488,734 488,734ZM617,732L618.5,734.5L619.5,732L617,732ZM479,731L481.5,733.5L481.5,731L479,731ZM604,729L607.5,731.5L607.5,729L604,729ZM499,728L499,730.5L501.5,730.5L501.5,728L499,728ZM651,721C651,721 655.34,726.18 661,729.5C662.94,730.64 665.5,729.5 665.5,729.5C665.5,729.5 664.835,726.37 662.5,725C657.25,721.92 651,721 651,721ZM526,716C526,716 526.3,718.42 528,719.5C529.475,720.44 531.5,719.5 531.5,719.5C531.5,719.5 531.635,717.725 530.5,717C528.555,715.765 526,716 526,716ZM620,714C620,714 619.54,716.715 621,718.5C622.155,719.91 622.775,720.075 624.5,719.5C625.775,719.075 626.355,718.04 625.5,717C623.515,714.575 620,714 620,714ZM657,714C657,714 657.225,716.545 659,717.5C660.98,718.565 663.5,717.5 663.5,717.5C663.5,717.5 663.685,715.64 662.5,715C660.04,713.675 657,714 657,714ZM496,712C496,712 494.645,712.67 495,713.5C495.63,714.97 497.5,715.5 497.5,715.5L496,712ZM471,714.5L477.5,712C477.5,712 474.565,711.015 472,712C470.745,712.485 471,714.5 471,714.5ZM358.5,712C358.5,712 355.775,709.075 353,710C349.475,711.175 348,715.5 348,715.5L358.5,712ZM642.5,708C642.5,708 641.83,706.645 641,707C639.53,707.63 639,709.5 639,709.5L642.5,708ZM493,707C492.11,707.125 492,708.5 492,708.5C492,708.5 493.165,709.69 494.5,709.5C495.39,709.375 495.5,708 495.5,708C495.5,708 494.335,706.81 493,707ZM563,709C563,709 565.975,714.53 571,717.5C572.55,718.415 572.22,715.205 574,715.5C576.09,715.85 575.06,717.64 577,718.5C577.825,718.865 578.5,717.5 578.5,717.5L569.5,707.5L572.5,706.5C572.5,706.5 572.595,704.785 571.5,704C570.485,703.275 569.78,703.025 569,704C567.37,706.04 569.505,707.33 567.5,709C565.77,710.44 563,709 563,709ZM585,702C585,702 585.435,704.23 587,705.5C589.605,707.615 589.735,707.73 593,708.5C594.31,708.81 595.5,707.5 595.5,707.5L585,702ZM459.5,700C459.5,700 459.085,697.865 457.5,697C455.965,696.16 455.41,695.965 454,697C451.26,699.01 450,702.5 450,702.5L459.5,700ZM428.5,698C428.5,698 427.9,696.215 426.5,696C424.22,695.65 423.9,695.7 422,697C418.935,699.1 417,702.5 417,702.5C417,702.5 419.405,703.32 421.5,702.5C425.375,700.985 428.5,698 428.5,698ZM589,690L590.5,692.5L591.5,690L589,690ZM503.5,609L501,619.5C501,619.5 504.035,619.46 504.5,617.5C505.49,613.335 503.5,609 503.5,609ZM590,521C590,521 590.995,523.365 593,524.5C596.925,526.72 601.5,527.5 601.5,527.5L590,521ZM623,514C623,514 623.51,515.915 625,516.5C631.995,519.255 639.5,520.5 639.5,520.5L623,514ZM588,511C588,511 587.715,513.215 589,514.5C589.885,515.385 591.5,514.5 591.5,514.5L588,511ZM556,510L573.5,521.5C573.5,521.5 574.36,519.905 573.5,519C569.58,514.86 569.57,514.605 564.5,512C560.615,510.005 556,510 556,510ZM385.5,504C385.5,504 383.38,502.925 382,504C380.565,505.115 381,507.5 381,507.5L385.5,504ZM381.5,501L360,513.5C360,513.5 365.78,513.245 370.5,510.5C376.785,506.845 381.5,501 381.5,501ZM654,500C654,500 657.645,503.05 662,504.5C666.06,505.855 670.5,505.5 670.5,505.5L654,500ZM409,500L413.5,501.5C413.5,501.5 413.02,499.505 411.5,499C410.225,498.575 409,500 409,500ZM386,494C384.905,494.785 385,496.5 385,496.5C385,496.5 386.485,497.225 387.5,496.5C388.595,495.715 388.5,494 388.5,494C388.5,494 387.015,493.275 386,494ZM657,493C657,493 656.5,495.47 658,496.5C661.72,499.045 666.5,499.5 666.5,499.5L657,493ZM638,493C638,493 637.835,494.825 639,495.5C642.9,497.76 647.5,498.5 647.5,498.5C647.5,498.5 645.715,494.86 642.5,493C640.555,491.875 638,493 638,493ZM687,482L702.5,487.5C702.5,487.5 698.825,484.535 694.5,483C690.935,481.735 687,482 687,482ZM353,477L352,478.5L354.5,479.5L353,477ZM345.5,469C345.5,469 339.355,470.1 334,473C327.23,476.67 328.295,478.375 321.5,482C320.31,482.635 319,481 319,481L319,485.5C319,485.5 325.46,479.64 333,475.5C338.335,472.57 339.1,474.31 344.5,471.5C345.695,470.88 345.5,469 345.5,469ZM353,434L354.5,436.5L355.5,434L353,434ZM390,427C390,427 390.85,429.855 393,431.5C395.325,433.28 398.5,433.5 398.5,433.5C398.5,433.5 399.495,431.76 398.5,431C394.77,428.145 390,427 390,427ZM366,422C366,422 365.805,423.885 367,424.5C374.39,428.305 382.5,430.5 382.5,430.5L366,422ZM563,362L564.5,364.5L565.5,362L563,362ZM424.5,355L410,364.5C410,364.5 412.63,365.75 414.5,364.5C416.275,363.315 414.225,361.685 416,360.5C419.23,358.345 420.24,360.61 423.5,358.5C425.03,357.51 424.5,355 424.5,355ZM612.5,350C610.68,348.585 610.13,348.12 608,349C605.215,350.145 604,353.5 604,353.5C604,353.5 605.82,349.875 609,349.5C611.29,349.23 612.5,352.5 612.5,352.5C612.5,352.5 613.485,350.765 612.5,350ZM417,350L429.5,352.5C429.5,352.5 428.105,349.52 425.5,349C421.305,348.16 417,350 417,350ZM546,303.5L550.5,301C550.5,301 548.53,300.15 547,301C545.825,301.655 546,303.5 546,303.5ZM561.5,281C561.5,281 559.445,283.74 556.5,285C555.47,285.44 554.5,284 554.5,284L558.5,280C558.5,280 554.74,280.395 553,283C552.07,284.395 555.645,284.775 554.5,286C550.98,289.755 550.505,289.8 545.5,291C543.54,291.47 542,289 542,289L541,292.5C541,292.5 547.315,292.405 552.5,289.5C557.9,286.47 561.5,281 561.5,281ZM498.5,263L497,269.5C497,269.5 499.14,269.06 499.5,267.5C500.02,265.255 498.5,263 498.5,263ZM565.5,253C565.5,253 562.605,253.135 561,255C553.17,264.1 547,274.5 547,274.5C547,274.5 556.005,267.21 563.5,258.5C565.41,256.28 565.5,253 565.5,253ZM572.5,240L564,249.5C564,249.5 566.285,249.855 567.5,248.5C570.79,244.825 572.5,240 572.5,240ZM519.5,236C519.5,236 516.825,238.06 516,241C514.99,244.61 517.055,244.9 516,248.5C513.99,255.37 510,261.5 510,261.5C510,261.5 512.32,261.135 513.5,259.5C515.73,256.415 515.56,256.19 516.5,252.5C518.575,244.375 519.5,236 519.5,236ZM526.5,225C526.5,225 524.73,224.87 524,226C521.805,229.39 521,233.5 521,233.5C521,233.5 522.77,233.63 523.5,232.5C525.695,229.11 526.5,225 526.5,225ZM577.5,198C577.5,198 571.375,197.725 566,200C558.14,203.325 559.555,206.18 551.5,209C548.74,209.965 548.665,205.79 546,207C541.95,208.84 544.015,211.265 540.5,214C539.12,215.075 538.52,214.87 537,214C534.695,212.68 535.95,208.97 533.5,210C524.465,213.805 524.67,214.82 518,222C511.49,229.01 507.5,238 507.5,238C507.5,238 506.685,233.335 503.5,233C500.12,232.645 499.73,234.075 498,237C492.3,246.635 494.18,247.575 489,257.5C488.095,259.23 486.24,258.065 486,260C485.16,266.715 487,273.5 487,273.5L480,271C480,271 478.325,279.265 479,287.5C479.835,297.665 479.775,297.825 483,307.5C485.335,314.505 485.835,314.405 490,320.5C492.895,324.735 496.87,322.87 497,328C497.655,353.64 491.5,379 491.5,379C491.5,379 489.555,379.595 488.5,378.5C482.81,372.595 480.755,373.385 478.5,365.5C475.955,356.595 480.79,356.175 479.5,347C478.245,338.075 478.105,337.75 473.5,330C472.165,327.755 470.065,330.59 468.5,328.5C465.13,324.005 467.615,322.675 464.5,318C460.97,312.705 460.56,312.855 455.5,309C449.975,304.79 449.83,304.86 443.5,302C441.905,301.28 441.415,300.97 440,302C438.19,303.315 438,306 438,306C438,306 435.735,302.825 432.5,301C425.865,297.26 425.77,297.26 418.5,295C414.415,293.73 414.02,292.54 410,294C407.375,294.955 410.29,298.81 407.5,299C401.19,299.435 401.765,295.85 395.5,295C386.83,293.825 386.685,293.935 378,295C374.22,295.465 371,298 371,298C371,298 372.82,299.205 373,301C373.125,302.245 372.735,302.81 371.5,303C365.815,303.875 365.555,301.51 360,303C348.52,306.085 348.13,305.785 338,312C336.08,313.175 336.35,314.97 338,316.5C343.755,321.83 345.105,319.955 351.5,324.5C354.67,326.755 355.125,326.59 357,330C358.085,331.97 355.27,333.06 357,334.5C362.07,338.725 364.115,335.56 369,340C370.705,341.55 367.105,342.375 368,344.5C369.37,347.76 369.97,347.68 373,349.5C380.095,353.76 380.03,354.265 388,356.5C394.515,358.33 394.865,356.175 401.5,357.5C402.725,357.745 403,359.5 403,359.5C403,359.5 400.52,361.89 397.5,362C393.38,362.155 393.615,360.215 389.5,360C388.44,359.945 388,361.5 388,361.5C388,361.5 394.32,367.05 402,369.5C411.87,372.645 413.055,368.25 422.5,372.5C425.245,373.735 419.17,377.48 422,378.5C434.08,382.85 434.705,382.535 447.5,381.5C459.96,380.495 459,374.7 471.5,374.5C476.46,374.42 476.085,376.985 479,381C485.445,389.885 487.73,389.26 490,400C495.39,425.515 493.615,425.925 494,452C494.365,476.53 491.5,501 491.5,501C491.5,501 479.27,494.045 473.5,482.5C470.025,475.555 474.815,474.76 474.5,467C474.31,462.395 474.035,462.345 472.5,458C471.01,453.785 471.585,453.24 468.5,450C466.26,447.645 464.675,449.915 462.5,447.5C459.8,444.5 461.935,443.22 459.5,440C454.805,433.8 454.52,433.925 448.5,429C443.455,424.87 443.915,423.165 437.5,422C434.155,421.39 435.31,426.79 432,426C423.28,423.925 424.665,420.695 416.5,417C411.305,414.65 411.145,414.79 405.5,414C400.3,413.275 400.025,412.47 395,414C393.26,414.53 393.665,415.71 394,417.5C394.475,420.03 396.5,422 396.5,422C396.5,422 386.86,417.31 376.5,416C366.815,414.775 366.66,415.595 357,417C352.77,417.615 349,420 349,420L354.5,427C354.5,427 346.655,425.775 339,427C327.74,428.8 327.695,429.05 317,433C315.735,433.465 315.545,434.23 316,435.5C316.96,438.185 319.5,440 319.5,440C319.5,440 312.275,440.81 306,444C297.345,448.4 296.98,448.255 290,455C288.69,456.265 289.4,457.635 291,458.5C293.42,459.805 293.855,457.745 296.5,458.5C297.7,458.845 298,460.5 298,460.5C298,460.5 290.255,462.645 285,468C276.94,476.215 276.505,476.41 272,487C270.94,489.49 272.335,491.03 275,491.5C286.08,493.455 286.47,489.295 297.5,491.5C300.24,492.05 297.24,496.065 300,496.5C308.21,497.795 316.5,494.5 316.5,494.5L313,502.5C313,502.5 317.655,505.84 323,506.5C334.165,507.875 334.325,507.795 345.5,506.5C351.78,505.77 357.5,502.5 357.5,502.5C357.5,502.5 358.625,503.68 358,504.5C353.615,510.27 351.92,508.9 348,515C347.015,516.53 347.37,517.685 349,518.5C353.56,520.78 353.9,520.5 359,520.5C367.31,520.5 367.2,518.085 375.5,518.5C377.8,518.615 376.84,520.69 379,521.5C381.105,522.29 381.345,522.14 383.5,521.5C388.22,520.1 392.5,517.5 392.5,517.5C392.5,517.5 388.86,519.555 388,523C387.405,525.39 387.6,526.945 390,527.5C398.525,529.47 398.89,529.065 407.5,527.5C415.675,526.015 414.905,523.39 423,521.5C430.075,519.85 430.595,522.76 437.5,520.5C444.755,518.125 444.86,517.645 450.5,512.5C459.275,504.495 456.395,501.485 466,494.5C468.75,492.5 470.065,494.125 472.5,496.5C480.91,504.71 481.215,504.77 487,515C491.125,522.295 491.32,522.645 492,531C494.34,559.66 493.85,559.76 493,588.5C491.845,627.565 491.47,627.575 488,666.5C487.91,667.525 486.81,667.64 486,667C481.695,663.605 482.78,662.425 478.5,659C477.525,658.22 476,659 476,659L478.5,666C478.5,666 470.48,660.97 461.5,659C459.4,658.54 458,661.5 458,661.5C458,661.5 460.555,661.265 462.5,662.5C463.635,663.225 463.5,665 463.5,665L441,663L441,665.5L446.5,665.5C446.5,665.5 447.725,667.74 446.5,668C438.415,669.715 438.125,667.49 430,669C427.135,669.535 425,672 425,672L430,674C430,674 429.695,675.63 428.5,676C422.92,677.715 422.08,675.13 417,678C415.04,679.105 417.865,680.425 417,682.5C416.44,683.845 415.95,683.87 414.5,684C407.28,684.635 400,684 400,684L402.5,688L384,687C384,687 382.48,689.63 384,690.5C387.045,692.24 391,691 391,691C391,691 388.96,693 386.5,693C374.71,693 374.79,690.77 363,691C361.4,691.03 361,693.5 361,693.5C361,693.5 364.52,693.11 367.5,694.5C368.72,695.07 368.5,697 368.5,697C368.5,697 361.31,696.4 355,699C352.18,700.16 353.855,702.06 351.5,704C349.42,705.71 349.185,705.8 346.5,706C342.23,706.315 342.225,704.335 338,705C336.67,705.21 337,707.5 337,707.5L342,709C342,709 341.095,710.84 339.5,711C330.795,711.87 330.72,710.295 322,711C321.1,711.075 321,712.5 321,712.5C321,712.5 323.68,712.085 325.5,713.5C326.485,714.265 326.73,715.77 325.5,716C316.4,717.72 316.19,715.82 307,717C306.105,717.115 306,718.5 306,718.5L309,720C309,720 309.145,722.67 307.5,723C300.88,724.325 300.56,721.415 294,723C292.23,723.425 293,726.5 293,726.5L297,727.5C297,727.5 295.035,729.555 292.5,730C284.85,731.34 284.49,728.955 277,731C275.245,731.48 277.23,733.16 276,734.5C274.26,736.395 274.075,736.92 271.5,737C265.665,737.18 265.66,733.585 260,735C256.36,735.91 258.855,739.325 255.5,741C249.315,744.09 242,744 242,744C242,744 241.665,746.34 243,746.5C248.73,747.19 248.925,746.985 254.5,745.5C256.725,744.905 255.74,742.95 258,742.5C261.225,741.855 264.5,743.5 264.5,743.5L264,746.5C264,746.5 265.405,747.105 266.5,746.5C267.9,745.725 268.5,744 268.5,744L264.5,743C264.5,743 265.965,741.195 268,740.5C277.07,737.41 286.5,735.5 286.5,735.5L285,740.5L291.5,738.5L289,742.5L296,744L294,749.5L307.5,748.5C307.5,748.5 307.655,746.695 306.5,746C304.77,744.965 302.5,745.5 302.5,745.5C302.5,745.5 304.105,742.325 307,741.5C311.565,740.195 311.89,740.35 316.5,741.5C319.265,742.19 320.475,742.2 321,745C321.5,747.66 318,749.5 318,749.5C318,749.5 320.31,751.655 323,751.5C329.415,751.135 335.5,748.5 335.5,748.5L332,745.5L340.5,745.5C340.5,745.5 341.075,747.425 340,748.5C337.545,750.955 336.225,749.33 334,752C333.14,753.035 335,754.5 335,754.5C335,754.5 332.17,754.55 330,756C328.88,756.745 329,758.5 329,758.5L342.5,757.5C342.5,757.5 341.32,759.14 342,760.5C343.03,762.56 345.5,763.5 345.5,763.5C345.5,763.5 344.305,761.275 345.5,760C348.49,756.81 353,755.5 353,755.5C353,755.5 351.02,758.145 352,760.5C352.7,762.18 354.08,762.635 355.5,761.5C357.54,759.87 354.525,757.325 357,756.5C363.405,754.365 364.05,758.485 370.5,756.5C377.59,754.32 376.13,751.31 383,748.5C387.42,746.69 387.9,748.79 392.5,747.5C394.38,746.975 395.5,745 395.5,745L384.5,746.5C384.5,746.5 386.065,743.165 389,742.5C394.37,741.285 394.775,741.26 400,743C401.725,743.575 401.535,744.76 401,746.5C400.375,748.53 398,749.5 398,749.5L403,751L401,755.5C401,755.5 403.7,755.94 405.5,754.5C408.975,751.72 407.55,750.31 411,747.5C414.465,744.675 414.55,743.945 419,743.5C420.795,743.32 419.465,745.555 421,746.5C422.965,747.71 423.315,748.23 425.5,747.5C429.775,746.075 428.675,743.77 433,742.5C437.555,741.16 442.5,742.5 442.5,742.5C442.5,742.5 443.485,744.235 442.5,745C440.68,746.415 438,746 438,746C438,746 438.415,748.735 440,748.5C444.425,747.835 443.66,745.585 448,744.5C450.92,743.77 454,745 454,745C454,745 449.13,746.315 445,749C443.87,749.735 444,751.5 444,751.5C444,751.5 451.44,750.73 458.5,748.5C461.08,747.685 460.36,746.075 463,745.5C466.43,744.755 470,746 470,746L465,750.5L477.5,747.5C477.5,747.5 477.83,749.76 476.5,751C473.8,753.52 470,754.5 470,754.5C470,754.5 475.805,756.85 480.5,754.5C483.265,753.115 482,748.5 482,748.5C482,748.5 484.05,750.735 486.5,750.5C489.84,750.18 492.5,747.5 492.5,747.5L494,751.5C494,751.5 495.195,750.175 496.5,750.5C497.715,750.805 498.225,751.27 498,752.5C497.615,754.615 497.31,754.835 495.5,756C493.56,757.245 492.82,755.585 491,757C490.015,757.765 491,759.5 491,759.5C491,759.5 495.01,756.125 499.5,756.5C502.15,756.72 500.535,759.515 503,760.5C508.42,762.67 509.06,760.385 514.5,762.5C518.32,763.985 517.255,765.835 521,767.5C522.23,768.045 522.945,767.725 523.5,766.5C524.43,764.45 524.28,764.11 523.5,762C521.71,757.175 518.5,753 518.5,753C518.5,753 520.425,753.575 521.5,752.5C522.785,751.215 523.315,750.63 522.5,749C520.995,745.99 519.415,747.265 517.5,744.5C516.915,743.655 518,742.5 518,742.5C518,742.5 529.04,744.615 539.5,748.5C546.63,751.145 545.42,754.905 553,755.5C559.48,756.01 558.51,750.88 565,750.5C568.195,750.31 567.025,753.31 570,754.5C571.25,755 572.5,753.5 572.5,753.5L560,746.5C560,746.5 564.47,746.06 568.5,747.5C571.7,748.645 570.745,750.51 574,751.5C582.495,754.085 582.915,752.24 591.5,754.5C592.71,754.82 591.75,756.5 593,756.5C596.88,756.5 596.625,754.325 600.5,754.5C602.65,754.6 602.97,755.11 604,757C604.73,758.335 603.5,760 603.5,760L598,758C598,758 598.86,760.32 597.5,761C592.185,763.66 591.44,761.605 586,764C584.77,764.54 584.63,765.205 585,766.5C585.305,767.575 586,768 587,767.5C589.53,766.235 588.18,763.735 591,763.5C595.255,763.145 594.78,765.825 599,766.5C601.275,766.865 603.5,765.5 603.5,765.5L600.5,762C600.5,762 605.985,762.575 609.5,759.5C611.235,757.98 608.5,755 608.5,755C608.5,755 608.59,757.245 607.5,757C600.93,755.54 600.74,755.52 595,752C592.695,750.585 592,747.5 592,747.5C592,747.5 593.935,746.715 595.5,747.5C600.155,749.825 598.955,752.24 604,753.5C607.765,754.44 611.5,751.5 611.5,751.5L606.5,748.5C606.5,748.5 606.755,746.595 608,746.5C613.755,746.055 613.88,746.19 619.5,747.5C621.595,747.99 623,750 623,750L620,753.5L624,755.5L616,756.5C616,756.5 621.01,755.87 625.5,757.5C627.075,758.075 625.45,759.855 627,760.5C631.935,762.555 637.5,762.5 637.5,762.5C637.5,762.5 637.655,760.695 636.5,760C632.36,757.515 631.595,759.06 627.5,756.5C625.38,755.175 624.5,755 624.5,752.5C624.5,750.38 626.64,751.44 627.5,749.5C627.865,748.675 627.385,748.175 626.5,748C624.525,747.605 622.5,748.5 622.5,748.5C622.5,748.5 625.21,745.06 629,743.5C630.155,743.025 631,743.75 631,745C631,747.46 629,749.5 629,749.5C629,749.5 629.925,747.215 631.5,747.5C636.12,748.34 635.375,750.675 640,751.5C642.805,752 645.5,750 645.5,750L636,748C636,748 634.815,744.23 637,743.5C641.53,741.99 641.995,742.91 646.5,744.5C650.75,746 649.575,748.655 654,749.5C656.085,749.895 654.88,746.5 657,746.5C665.385,746.5 665.46,747.125 673.5,749.5C676.625,750.425 679,753 679,753L676,755C676,755 679.355,756.82 679,759.5C678.67,761.98 675,762.5 675,762.5C675,762.5 679.865,766.45 685,765.5C688.205,764.905 689.035,763.215 688.5,760C688,756.99 685.275,758.985 683.5,756.5C682.485,755.075 684.285,754.565 683.5,753C681.91,749.82 679,747.5 679,747.5C679,747.5 681.7,749.91 685,750.5C698.615,752.94 699.08,750.145 712.5,753.5C714.455,753.99 713,757.5 713,757.5C713,757.5 716.04,757.825 718.5,756.5C719.685,755.86 720.45,754.95 719.5,754C716.97,751.47 715.53,753.53 713,751C709.995,747.995 709,743.5 709,743.5C709,743.5 713.58,747.69 719,750.5C720.555,751.305 722.5,750.5 722.5,750.5C722.5,750.5 723.42,748.85 722.5,748C719.79,745.495 716,744.5 716,744.5L737.5,747.5L736,744.5L744.5,745.5L744,741.5C744,741.5 754.92,742.74 765.5,745.5C766.71,745.815 765.77,747.275 767,747.5C771.675,748.35 776.5,747.5 776.5,747.5C776.5,747.5 776.73,745.54 775.5,745C770.06,742.605 769.315,744.66 764,742C760.99,740.495 762.82,737.53 759.5,737C749.365,735.38 749.22,738.93 739,738C737.33,737.85 739.05,735.64 737.5,735C734.255,733.665 730.5,734.5 730.5,734.5L733.5,733.5C733.5,733.5 733.81,731.32 732.5,731C723.945,728.92 723.62,730.815 715,729C713.775,728.74 713.5,727 713.5,727L717.5,727.5L717.5,724C717.5,724 709.71,725.92 702,725C698.765,724.615 696.5,721.5 696.5,721.5C696.5,721.5 698.5,720.915 698.5,719.5C698.5,717.9 698.08,717.255 696.5,717C689.835,715.925 683,717 683,717L684.5,713C684.5,713 678.965,713.775 674,712C671.495,711.105 673.08,708.645 670.5,708C664.435,706.485 664.13,709.225 658,708C656.085,707.615 655.5,705 655.5,705C655.5,705 657.425,705.575 658.5,704.5C659.385,703.615 659.71,702.32 658.5,702C651.215,700.06 643.5,700.5 643.5,700.5C643.5,700.5 646.41,700.96 648.5,699.5C649.525,698.785 649.5,697.75 648.5,697C645.97,695.105 645.66,695 642.5,695C634.685,695 627,697 627,697C627,697 628.87,692.835 626.5,692C618.705,689.25 618.155,692.36 610,691C607.46,690.575 607.22,690.415 605.5,688.5C604.665,687.57 606.66,686.47 605.5,686C599.095,683.39 598.005,686.43 592,683C589.82,681.755 593.11,679.93 591.5,678C588.92,674.905 588.365,675.145 584.5,674C581.385,673.075 578,674 578,674L580.5,672C580.5,672 577.84,669.285 574.5,669C565.765,668.255 565.75,670.485 557,670C555.97,669.945 555.77,668.73 556.5,668C558.01,666.49 560.5,666.5 560.5,666.5C560.5,666.5 560.845,664.055 559.5,664C553.67,663.765 553.82,666.45 548,666C546.33,665.87 548.125,663.405 546.5,663C543.31,662.2 543.26,664.435 540,664C538.89,663.85 540.09,661.745 539,662C530.685,663.955 523,668 523,668L522,662C522,662 521.505,666.26 518.5,668C515.895,669.51 513.24,670.42 512.5,667.5C508.675,652.445 510.645,652.03 510.5,636.5C510.145,597.75 505.94,597.355 511.5,559C513.62,544.39 517.275,545.26 525.5,533C530.625,525.36 530.13,524.265 538,519.5C540.91,517.74 541.65,519.64 544.5,521.5C553.295,527.235 551.765,529.5 561,534.5C564.295,536.285 564.91,533.42 568.5,534.5C575.14,536.49 574.26,538.88 581,540.5C587.075,541.96 587.34,541.56 593.5,540.5C595.08,540.23 595.635,539.595 595.5,538C595.32,535.855 593,534.5 593,534.5C593,534.5 603.855,535.085 614.5,533.5C616.085,533.265 616.795,532.575 616.5,531C615.9,527.795 613,525.5 613,525.5C613,525.5 620.35,528.5 628,528.5C639.845,528.5 640.135,528.84 651.5,525.5C653.86,524.805 654.46,523.27 653.5,521C651.29,515.78 646,512.5 646,512.5C646,512.5 656.745,513.84 667.5,513.5C672.595,513.34 672.665,513.11 677.5,511.5C681.745,510.085 685.5,507.5 685.5,507.5L682,500.5C682,500.5 688.97,502.205 695.5,500.5C706.555,497.615 716.5,491.5 716.5,491.5C716.5,491.5 713.705,485.7 709.5,481C705.125,476.11 703.77,477.48 699.5,472.5C697.595,470.28 699.86,468.73 697.5,467C691.81,462.825 684.5,461.5 684.5,461.5L689.5,456C689.5,456 686.38,452.855 682.5,451C674.79,447.315 674.925,446.425 666.5,445C656.885,443.375 656.705,445.925 647,445C645.755,444.88 645.5,443 645.5,443C645.5,443 649.76,442.46 650.5,439.5C651.155,436.875 650.15,435.53 647.5,435C637.94,433.09 637.62,433.42 628,435C619.105,436.46 611,441 611,441C611,441 612.25,437.45 610.5,435C609.16,433.125 608.225,433.405 606,434C596.67,436.49 596.605,436.62 588,441C582.74,443.675 584.14,446.265 578.5,448C576.295,448.68 575,445 575,445C575,445 574.08,449.48 571.5,453C570.89,453.83 569.5,452.5 569.5,452.5L571.5,446C571.5,446 566.61,445.545 563,448C554.52,453.775 554.665,454.2 548,462C544.295,466.34 546.535,467.965 542.5,472C540.91,473.59 539.09,470.03 538,472C533.18,480.72 533.35,481.13 532,491C530.81,499.685 536.575,500.5 533,508.5C526.465,523.115 523.755,521.645 513,533.5C511.345,535.325 508.5,535.5 508.5,535.5C508.5,535.5 507.2,512.255 507.5,489C507.7,473.47 506.64,473.265 509.5,458C511.195,448.965 512.275,449.165 516.5,441C519.815,434.595 520.015,434.645 524.5,429C527.8,424.85 527.255,423.87 532,421.5C535.355,419.825 535.88,420.515 539.5,421.5C547.07,423.565 546.16,427.16 554,427.5C569.86,428.19 569.845,426.145 585.5,423.5C587.705,423.125 589.5,421.5 589.5,421.5C589.5,421.5 587.11,419.35 586.5,416.5C586.24,415.28 586.765,414.69 588,414.5C593.685,413.625 593.885,415.745 599.5,414.5C609.845,412.2 609.945,412.08 619.5,407.5C622.215,406.2 623.5,403 623.5,403C623.5,403 620.74,402.74 619,401C618.115,400.115 617.815,398.895 619,398.5C625.475,396.34 626.04,398.69 632.5,396.5C640.97,393.63 640.76,392.98 648.5,388.5C650.335,387.435 651.055,387.575 651.5,385.5C651.95,383.41 650,381.5 650,381.5C650,381.5 652.115,382.565 653.5,381.5C658.965,377.295 657.57,375.75 663,371.5C669.18,366.665 670.745,368.83 676.5,363.5C678.15,361.97 678.35,360.28 676.5,359C666.93,352.39 666.58,352.535 655.5,349C649.05,346.945 642,348 642,348L644.5,341C644.5,341 638.665,338.465 632.5,338C625.255,337.455 625.15,337.7 618,339C614.025,339.72 614.525,341.665 610.5,342C608.045,342.205 608.425,339.58 606,340C602.03,340.69 599,344 599,344C599,344 601.07,340.14 599.5,337C598.47,334.94 597.245,335.48 595,336C586.22,338.04 586.035,337.91 578,342C572.12,344.995 573.69,347.71 567.5,350C565.51,350.735 566.615,347.185 564.5,347C560.15,346.62 559.68,346.65 556,349C547.635,354.34 547.64,354.625 541,362C536.265,367.26 538.3,368.8 533.5,374C531.935,375.695 530.175,373.02 529,375C524.965,381.8 524.665,382.12 524,390C523.135,400.26 529.09,400.675 526,410.5C521.67,424.255 518.87,423.13 510,434.5C508.88,435.935 506.5,435.5 506.5,435.5C506.5,435.5 504.275,416.545 503.5,397.5C502.775,379.765 502.635,379.73 503.5,362C504.14,348.93 502.01,348.295 506.5,336C508.235,331.245 510.21,332.135 515,330.5C521.46,328.3 521.995,330.555 528.5,328.5C536.39,326.01 536.28,325.545 543.5,321.5C548.825,318.52 550.015,319.51 553.5,314.5C554.905,312.48 549.975,311.935 551.5,310C558.425,301.23 560.83,303.62 568.5,295.5C569.7,294.23 568.5,292 568.5,292C568.5,292 566.09,292.835 564,292C563.045,291.615 562.835,290.79 563.5,290C568.39,284.18 570,285.625 574.5,279.5C579.135,273.195 579.085,272.945 581.5,265.5C582.21,263.31 582.71,261.66 580.5,261C576.13,259.69 571.5,262.5 571.5,262.5C571.5,262.5 576.36,255.925 579.5,248.5C581.91,242.805 581.605,242.62 582.5,236.5C583.115,232.295 582.5,228 582.5,228L574.5,229.5C574.5,229.5 577.945,224.325 578.5,218.5C579.475,208.285 577.5,198 577.5,198ZM343,751C343,751 342.32,753.3 340.5,754C338.62,754.725 336.5,753.5 336.5,753.5L343,751ZM516.5,749L521,750.5L518,752L516.5,749ZM579.5,749C579.5,749 581.795,745.79 584.5,746.5C587.755,747.355 589,751.5 589,751.5C589,751.5 586.95,752.515 585,752C581.97,751.205 579.5,749 579.5,749ZM549.5,747C549.5,747 553.4,746.705 556.5,748.5C558.54,749.68 559,752.5 559,752.5C559,752.5 556.745,753.01 555,752C551.785,750.14 549.5,747 549.5,747ZM500.5,750C501.25,748.5 501.83,748.36 503.5,748.5C505.295,748.65 506.5,750.5 506.5,750.5L509.5,745.5C509.5,745.5 507.475,748.505 509,750.5C511.375,753.61 513.38,751.09 516,754C518.275,756.525 518,760.5 518,760.5C518,760.5 514.42,760.165 512,758C509.41,755.685 508.5,752 508.5,752L508.5,759C508.5,759 503.55,757.93 500.5,754.5C499.005,752.82 499.495,752.01 500.5,750ZM675.5,745C675.5,745 676.66,743.9 677.5,744.5C678.865,745.475 679,747.5 679,747.5C679,747.5 677.84,748.6 677,748C675.635,747.025 675.5,745 675.5,745ZM564.5,746.5C564.5,746.5 564.055,744.905 565,744.5C566.4,743.9 568,745 568,745L564.5,746.5ZM683.5,746C683.5,746 687.845,743.13 692.5,743.5C697.87,743.925 697.9,744.7 702.5,747.5C703.935,748.37 704,750.5 704,750.5C704,750.5 698.88,748.45 693.5,748C689.73,747.685 689.71,749.74 686,749C684.085,748.615 683.5,746 683.5,746ZM569.5,744C569.5,744 571.68,742.635 573.5,743.5C576.86,745.09 579,748.5 579,748.5C579,748.5 577.375,749.65 576,749C572.295,747.245 569.5,744 569.5,744ZM410,743C410,743 409.7,746.155 407.5,747C405.505,747.765 403.5,745.5 403.5,745.5L410,743ZM322.5,744C322.5,744 325.925,742.29 329.5,742.5C330.75,742.575 331,744.5 331,744.5C331,744.5 329.13,746.125 327,746C324.54,745.855 322.5,744 322.5,744ZM697.5,742C697.5,742 699.565,739.595 701.5,740.5C704.265,741.79 705,745.5 705,745.5C705,745.5 702.275,746.06 700,745C698.23,744.175 697.5,742 697.5,742ZM754.5,740L760,740.5C760,740.5 758.125,742.195 756,742C754.755,741.885 754.5,740 754.5,740ZM726.5,740L731,742.5C731,742.5 729.33,743.74 728,743C726.535,742.185 726.5,740 726.5,740ZM657.5,740C657.5,740 660.755,738.27 663.5,739.5C668.525,741.75 672,746.5 672,746.5C672,746.5 666.615,747.07 662,745C658.93,743.625 657.5,740 657.5,740ZM413.5,742.5C413.5,742.5 413.475,740.195 415,739.5C416.835,738.665 419,740 419,740L413.5,742.5ZM731.5,739C731.5,739 733.095,737.92 734.5,738.5C737.645,739.795 740,742.5 740,742.5C740,742.5 736.785,743.145 734,742C732.195,741.255 731.5,739 731.5,739ZM647.5,740C647.5,740 649.42,738.02 651.5,738.5C653.405,738.94 654,741.5 654,741.5C654,741.5 651.545,743.585 649,743C647.365,742.625 647.5,740 647.5,740ZM521.5,739L525,740.5C525,740.5 523.4,741.6 522,741C521.055,740.595 521.5,739 521.5,739ZM551.5,738C551.5,738 554.215,736.46 556.5,737.5C557.885,738.13 557,740.5 557,740.5C557,740.5 555.385,741.63 554,741C552.22,740.19 551.5,738 551.5,738ZM304.5,739.5C304.5,739.5 304.055,737.905 305,737.5C306.4,736.9 308,738 308,738L304.5,739.5ZM260.5,738C260.5,738 262.1,736.9 263.5,737.5C264.445,737.905 264,739.5 264,739.5C264,739.5 262.4,740.6 261,740C260.055,739.595 260.5,738 260.5,738ZM318,737C318,737 318.4,738.5 317.5,739C315.74,739.98 313.5,739.5 313.5,739.5C313.5,739.5 313.1,738 314,737.5C315.76,736.52 318,737 318,737ZM722.5,736L731,738.5C731,738.5 728.41,739.71 726,739C723.79,738.35 722.5,736 722.5,736ZM707.5,736C707.5,736 714.265,736.96 720.5,739.5C721.455,739.89 721,741.5 721,741.5C721,741.5 716.175,742.7 712,741C708.885,739.73 707.5,736 707.5,736ZM660.5,736C660.5,736 663.175,734.55 665.5,735.5C670.32,737.465 674,741.5 674,741.5C674,741.5 672.41,742.575 671,742C665.4,739.72 660.5,736 660.5,736ZM629.5,737C629.5,737 634.615,735.395 639.5,736.5C642.815,737.25 645,740.5 645,740.5C645,740.5 639.37,742.215 634,741C631.065,740.335 629.5,737 629.5,737ZM466.5,736C466.5,736 468.185,734.74 469.5,735.5C473.33,737.715 471.975,739.67 476,741.5C478.1,742.455 480.5,740.5 480.5,740.5L481,744.5C481,744.5 476.46,746.025 473,744C468.555,741.395 466.5,736 466.5,736ZM652,735C652,735 650.77,737.6 648.5,738C645.93,738.455 643.5,736.5 643.5,736.5L652,735ZM458.5,735C458.5,735 459.72,733.825 460.5,734.5C463.865,737.415 466,741.5 466,741.5C466,741.5 464.15,742.995 463,742C459.855,739.275 458.5,735 458.5,735ZM389.5,737.5C389.5,737.5 389.41,735.03 391,734.5C393.855,733.55 397,735 397,735L389.5,737.5ZM324.5,732.5L320,739C320,739 317.285,736.755 318.5,735C320.35,732.33 324.5,732.5 324.5,732.5ZM316,733C316,733 315.01,736.265 312.5,738C311.25,738.865 309.5,737.5 309.5,737.5C309.5,737.5 311.235,734.415 314,732.5C314.845,731.915 316,733 316,733ZM441.5,737.5L444.5,735.5C444.5,735.5 442.675,734.905 442.5,733.5C442.345,732.26 444,731.5 444,731.5C444,731.5 444.23,734.17 446,734.5C449.04,735.07 452,733 452,733C452,733 452.9,735.4 451.5,736C446.855,737.99 441.5,737.5 441.5,737.5ZM391,732C391,732 387.735,733.92 386,737C385.255,738.325 386.5,740 386.5,740L381.5,739.5L383.5,737L380.5,736C380.5,736 381.35,734.13 383,733.5C386.805,732.05 391,732 391,732ZM444,729C444,729 443.25,734.11 440,737.5C437.135,740.49 436.525,740.04 432.5,741C430.96,741.365 429.5,740 429.5,740L438.5,734C438.5,734 433.335,737.55 427.5,738C425.705,738.14 427.29,735.225 425.5,735C420.485,734.375 415.5,736.5 415.5,736.5C415.5,736.5 421.465,732.43 428,729.5C428.94,729.08 430,730 430,730L428,733L444,729ZM395,729C395,729 394.965,731.185 393.5,732C392.17,732.74 390.5,731.5 390.5,731.5L395,729ZM391,728L379.5,731.5C379.5,731.5 380.46,728.275 383,727.5C386.835,726.335 391,728 391,728ZM688.5,724C688.5,724 699.65,726.205 710.5,729.5C713.71,730.475 713.935,730.34 716.5,732.5C718.835,734.465 720,737.5 720,737.5C720,737.5 716.79,739.135 714,738C709.555,736.19 711.025,733.615 706.5,732C703.405,730.895 703.005,734.335 700,733C693.33,730.035 688.5,724 688.5,724ZM326.5,738C332.475,733.46 339.5,730.5 339.5,730.5C339.5,730.5 337.88,728.705 336,729C332.685,729.525 330,732 330,732C330,732 330.315,729.605 332,728.5C337.055,725.195 337.095,724.765 343,723.5C344.765,723.12 346,725.5 346,725.5L341,731.5C341,731.5 354.59,727.845 368.5,726.5C370.505,726.305 372,728.5 372,728.5C372,728.5 368.615,729.41 367,732C365.81,733.91 368.91,735.31 367,736.5C363.6,738.625 362.335,734.775 359,737C354.09,740.275 352,746.5 352,746.5C352,746.5 356.99,742.27 363,740.5C365.92,739.64 369,741.5 369,741.5L361,747.5C361,747.5 365.68,744.21 371,742.5C372.92,741.885 375,743 375,743L371,748.5C371,748.5 373.985,749.615 376.5,748.5C378.93,747.42 380,744.5 380,744.5L382,746.5C382,746.5 379.955,750.22 376.5,752C371.43,754.61 371.17,754.385 365.5,755C361.74,755.405 358,754 358,754L360.5,751L347,754C347,754 348.305,752.29 347.5,751C346.66,749.66 344.5,750 344.5,750L359.5,732C359.5,732 354.79,733.845 351,737C348.655,738.955 350.415,741.095 347.5,742C342.24,743.63 336.5,741.5 336.5,741.5L347.5,735C347.5,735 344.12,734.085 341,735C335.42,736.64 335.975,738.045 330.5,740C328.85,740.59 328.565,740.785 327,740C326.08,739.54 325.68,738.625 326.5,738ZM393,723C393,723 392.705,724.67 391.5,725C389.555,725.53 387.5,724.5 387.5,724.5C387.5,724.5 388.775,722.105 391,721.5C392.205,721.17 393,723 393,723ZM331,722C331,722 330.28,724.19 328.5,725C327.115,725.63 325.5,724.5 325.5,724.5L331,722ZM324,722L311,728L315,729.5L306.5,733.5L308.5,729L305.5,728C305.5,728 307.62,724.595 311,723.5C317.225,721.48 324,722 324,722ZM382,721C382,721 380.73,723.42 378.5,724C373.655,725.255 368.5,724.5 368.5,724.5C368.5,724.5 372.455,721.68 377,720.5C379.43,719.87 382,721 382,721ZM367,721C367,721 365.695,723.305 363.5,724C355.23,726.625 346.5,727.5 346.5,727.5C346.5,727.5 349.705,723.86 354,722.5C360.235,720.52 367,721 367,721ZM431,719C431,719 428.89,726.095 423.5,730C420.66,732.06 416.5,729.5 416.5,729.5C416.5,729.5 418.705,725.885 422,723.5C426.075,720.55 431,719 431,719ZM411.5,719.5C411.5,719.5 411.055,717.905 412,717.5C413.4,716.9 415,718 415,718L411.5,719.5ZM442.5,708.5L441,712L439.5,710L442.5,708.5ZM383,709C383,709 382.305,711.255 380.5,712C377.715,713.145 374.5,712.5 374.5,712.5L383,709ZM378.5,706.5C378.5,706.5 378.055,704.905 379,704.5C380.4,703.9 382,705 382,705L378.5,706.5ZM403,699C403,699 403.005,703.255 400.5,706C394.975,712.06 394.55,711.815 387.5,716C386.19,716.775 384.5,715.5 384.5,715.5L396.5,704L387,707C387,707 387.83,704.74 386.5,704C384.74,703.02 382.5,704.5 382.5,704.5C382.5,704.5 382.02,702.825 383,702.5C387.06,701.145 387.47,702.94 391.5,701.5C394.7,700.355 393.675,698.22 397,697.5C400.02,696.845 403,699 403,699ZM394,697C394,697 387.565,700.63 380.5,702C379.11,702.27 379.9,700.215 378.5,700C376.22,699.65 374,701 374,701L377,704.5C377,704.5 374.77,707.615 371.5,709C368.015,710.475 367.55,708.69 364,710C362.5,710.555 361.84,710.905 362,712.5C362.175,714.26 364.5,715 364.5,715L332.5,724.5C332.5,724.5 333.07,721.855 335,720.5C338.31,718.185 342.5,717.5 342.5,717.5C342.5,717.5 342.035,715.775 341,716C335.74,717.145 331,720 331,720C331,720 330.855,716.71 333,715.5C337.225,713.11 338.1,715.555 342.5,713.5C353.265,708.475 352.105,706.225 363,701.5C373.02,697.155 373.195,697.07 384,695.5C389.005,694.775 394,697 394,697ZM535.5,691C535.905,690.055 536.68,689.875 537.5,690.5C541.295,693.4 544,697.5 544,697.5C544,697.5 539.47,696.65 536,694C534.79,693.075 534.9,692.4 535.5,691ZM446.5,691L450,691.5L448,693L446.5,691ZM457.5,686C457.5,686 459.74,685.52 461.5,686.5C462.4,687 462,688.5 462,688.5C462,688.5 460.33,689.74 459,689C457.535,688.185 457.5,686 457.5,686ZM556.5,680C556.5,680 561.61,679.435 566.5,680.5C567.72,680.765 568,682.5 568,682.5C568,682.5 564.5,684.76 561,684C558.06,683.36 556.5,680 556.5,680ZM440,679.5L441,681.5L439,682L440,679.5ZM391.5,716C391.5,716 394.975,711.12 400,708.5C407.22,704.74 415.5,703.5 415.5,703.5L403.5,703C403.5,703 408.185,702.34 411.5,699.5C415.45,696.115 417.5,691 417.5,691C417.5,691 413.79,690.255 411,692C409.19,693.13 411.525,695.325 409.5,696C404.52,697.66 399,696 399,696C399,696 398.38,693.335 400,692.5C407.24,688.77 408.095,690.895 415.5,687.5C420.23,685.33 419.245,683.615 424,681.5C428.435,679.53 433.5,679.5 433.5,679.5L431,682.5L437,683.5L426,689.5L443.5,686.5C443.5,686.5 443.51,689.58 441.5,691C438.775,692.925 435,692.5 435,692.5C435,692.5 436.495,694.69 438.5,694.5C442.29,694.14 445.5,691.5 445.5,691.5L442,696.5L448.5,694.5L448,697.5C448,697.5 453.96,692.81 461,691.5C465.29,690.7 465.655,691.43 469.5,693.5C472.46,695.095 474,698.5 474,698.5L466,696C466,696 465.35,697.875 466,699.5C466.93,701.82 469,703.5 469,703.5C469,703.5 468.92,701.79 470,701.5C473.14,700.665 473.375,700.605 476.5,701.5C477.49,701.785 477.835,702.895 477,703.5C472.74,706.575 472.755,707.855 467.5,708C462.805,708.13 459,704 459,704L465,712.5C465,712.5 466.27,709.24 469,708.5C481.455,705.12 481.635,703.495 494.5,704.5C499.08,704.86 499.36,706.705 501,711C502.875,715.905 501,721.5 501,721.5C501,721.5 502,719.205 504,718.5C506.595,717.585 507.17,717.045 509.5,718.5C517.615,723.575 517.79,723.715 524,731C525.46,732.71 524.755,733.38 524,735.5C523.405,737.165 523.23,737.645 521.5,738C514.38,739.465 507,739 507,739C507,739 506.565,736.615 508,735.5C509.38,734.425 511.5,735.5 511.5,735.5C511.5,735.5 510.135,732.72 508,733C503.565,733.58 500,737 500,737C500,737 500.445,738.615 501.5,738.5C503.29,738.3 504.5,736.5 504.5,736.5C504.5,736.5 505.585,738.385 504.5,739C495.735,743.975 495.825,744.765 486,747C483.75,747.51 482.5,744 482.5,744L486.5,741C486.5,741 484.365,742.095 483,741C481.33,739.665 483.17,738.335 481.5,737C480.135,735.905 479.52,737.87 478,737C475.695,735.68 477.065,733.7 474.5,733C470.85,732.005 467,734 467,734L466.5,730L463.5,733C463.5,733 463.3,730.13 461.5,730C458.71,729.8 456.5,732.5 456.5,732.5C456.5,732.5 457.595,729.01 460,726.5C463.46,722.89 463.555,722.795 468,720.5C471.45,718.72 472.24,720.61 475.5,718.5C477.03,717.51 476.5,715 476.5,715C476.5,715 471.39,718.86 465.5,721C462.915,721.94 462.515,719.885 460,721C457.57,722.08 458.93,723.92 456.5,725C453.985,726.115 453.46,726.23 451,725C449.64,724.32 450.5,722 450.5,722L443,725L444.5,721L436.5,720.5C436.5,720.5 441.16,713.925 447,708.5C448.335,707.26 450.5,707.5 450.5,707.5C450.5,707.5 450.1,704.935 448.5,705C443.045,705.22 442.725,705.265 438,708C432.95,710.925 434.72,713.39 429.5,716C427.695,716.9 428,713.765 426,714C423.105,714.34 421,717 421,717L421,714L418,717C418,717 418.575,715.075 417.5,714C416.215,712.715 415.655,712.235 414,713C411.73,714.05 411,717 411,717C411,717 408.895,715.615 408.5,713.5C408.075,711.235 409.5,709 409.5,709C409.5,709 407.485,708.745 407,710C406.015,712.565 407.925,712.91 407,715.5C406.51,716.875 404.5,717 404.5,717L404.5,714C404.5,714 401.16,718.285 396.5,719C393.62,719.445 391.5,716 391.5,716ZM507.5,710C507.92,707.89 508.885,707.88 511,707.5C516.17,706.575 516.49,709.075 521.5,707.5C525.745,706.165 528.5,702 528.5,702L512.5,706.5C512.5,706.5 512.84,704.965 514,704.5C518.055,702.88 518.525,704.305 522.5,702.5C524.28,701.69 523.055,699.695 525,699.5C528.86,699.115 528.625,701.73 532.5,701.5C533.845,701.42 534.045,700.23 533.5,699C532.77,697.355 530.5,697 530.5,697C530.5,697 533.29,695.31 535.5,696.5C537.38,697.515 537,700.5 537,700.5L539.5,698.5C539.5,698.5 539.09,701.545 541,702.5C546.75,705.375 547.655,702.83 553.5,705.5C556.715,706.97 558.5,710.5 558.5,710.5C558.5,710.5 561.155,707.255 559.5,705C557.49,702.26 555.915,704.75 553,703C551.845,702.305 551.175,701.565 552,700.5C553.51,698.555 554.045,698.33 556.5,698.5C561.71,698.86 561.3,701.96 566.5,701.5C570.645,701.135 573.5,697 573.5,697C573.5,697 568.095,698.275 563,697C561.375,696.595 562.92,694.895 561.5,694C557.89,691.72 557.73,691.585 553.5,691C550.245,690.55 550.255,692.465 547,692C545.98,691.855 545.87,690.815 546.5,690C548.665,687.185 548.45,685.675 552,685.5C555.005,685.35 556.5,689.5 556.5,689.5L555,684.5C555,684.5 557.305,686.5 560,686.5C563.64,686.5 563.36,684.5 567,684.5C571.855,684.5 572.005,684.675 576.5,686.5C580.16,687.99 583,691 583,691L578,696.5L584.5,698.5L583.5,696L588.5,694L583.5,691L587.5,689C587.5,689 583.895,689.56 581,688C577.105,685.905 578.365,684.15 574.5,682C573.325,681.345 573.205,683.6 572,683C570.5,682.25 572,680.75 570.5,680C569.295,679.4 569.305,681.325 568,681C565.915,680.48 564.5,678.5 564.5,678.5C564.5,678.5 568.705,676.145 572.5,677.5C590.195,683.82 590.215,684.13 606.5,693.5C608.925,694.895 606.965,696.585 609,698.5C611.44,700.8 615,701.5 615,701.5C615,701.5 610.13,699.515 605,699C602.465,698.745 600,700 600,700C600,700 600.755,702.98 603,703.5C604.965,703.955 604.6,700.835 606.5,701.5C615.37,704.605 614.125,707.415 623,710.5C626.105,711.58 626.24,709.08 629.5,709.5C634.205,710.105 634.23,710.435 638.5,712.5C642.06,714.22 642.31,714.105 645,717C645.85,717.915 645,719.5 645,719.5C645,719.5 648.05,718.78 649.5,716.5C650.225,715.365 649.735,714.53 648.5,714C640.575,710.605 639.785,712.705 632,709C628.965,707.555 630.35,705.785 627.5,704C626.015,703.075 625.5,704.9 624,704C622.56,703.135 623.895,701.93 622.5,701C618.405,698.27 613.5,697 613.5,697C613.5,697 631.485,698.955 648.5,704.5C654.11,706.33 652.56,709.21 658,711.5C662.4,713.355 662.98,710.955 667.5,712.5C672.695,714.275 672.785,714.485 677,718C677.79,718.66 677.48,719.675 676.5,720C670.965,721.845 670.265,719.48 665,722C663.42,722.755 665,725.5 665,725.5C665,725.5 668.455,726.64 671.5,725.5C673.07,724.91 671.34,722.755 673,722.5C678.705,721.62 678.95,721.915 684.5,723.5C686.375,724.035 687,726.5 687,726.5C687,726.5 685.075,725.925 684,727C683.115,727.885 682.87,728.965 684,729.5C688.385,731.58 689.27,729.12 693.5,731.5C697.665,733.84 700,738.5 700,738.5L695,738L697,741.5C697,741.5 695.475,742.37 694,742C690.305,741.075 690.065,741.26 687,739C685.1,737.6 686.69,735.875 684.5,735C681.02,733.605 677,735 677,735C677,735 677.46,737.06 679,737.5C681.415,738.19 684,737 684,737C684,737 683.94,739.135 682.5,740C681,740.9 680.63,740.635 679,740C675.96,738.82 675.1,739.34 673.5,736.5C672.37,734.49 674.5,732 674.5,732C674.5,732 673.305,734 671.5,734C669.265,734 669.725,732.235 667.5,732C664.72,731.705 664.625,733.955 662,733C653.17,729.79 654.175,727.615 645.5,724C644.52,723.59 644,725.5 644,725.5L653,732.5L642,734L642.5,731L639,733C639,733 639.135,730.365 637.5,730C633.805,729.18 633.655,731.975 630,731C625.645,729.84 626.745,727.515 622.5,726C619.44,724.905 616,726 616,726C616,726 618.355,725.95 618.5,724.5C618.7,722.495 616.14,722.985 616.5,721C616.82,719.225 619.5,719 619.5,719C619.5,719 617.255,716.96 614.5,716C611.395,714.92 608,715 608,715C608,715 611.595,717.505 614,721C614.585,721.85 614.455,722.615 613.5,723C611.41,723.835 611.11,723.785 609,723C600.195,719.725 592,715 592,715C592,715 593.335,718.39 596,720.5C599.505,723.275 599.67,723.385 604,724.5C607.63,725.435 607.975,723.22 611.5,724.5C614,725.41 612.705,727.16 615,728.5C618.895,730.77 620.18,728.455 623.5,731.5C626.72,734.45 627.38,735.15 627,739.5C626.755,742.34 625.295,742.43 622.5,743C613.915,744.755 613.61,742.36 605,744C602.735,744.43 603.8,746.835 601.5,747C596.17,747.38 595.755,747.435 591,745C585.16,742.01 581,736.5 581,736.5C581,736.5 588.89,742.265 598,743.5C604.37,744.365 604.615,743.09 610.5,740.5C611.645,739.995 610.5,738 610.5,738C610.5,738 606.115,741.455 602,740C596.495,738.06 593.5,732 593.5,732L593.5,738C593.5,738 590.5,738.25 588,737C586.255,736.125 587.45,734.12 585.5,734C578.69,733.575 572,736 572,736C572,736 576.58,738.35 580,742C580.705,742.75 579.5,744 579.5,744C579.5,744 574.49,739.84 568.5,738C567.15,737.585 567.9,739.815 566.5,740C563.73,740.37 561,739 561,739C561,739 562.88,735.76 566,734.5C574.885,730.91 575.52,732.84 584.5,729.5C586.49,728.76 587.5,726.5 587.5,726.5L577,721C577,721 581.23,724.605 579,726.5C571.24,733.085 570.435,732.78 560.5,735C550.985,737.13 541,735 541,735C541,735 546.225,736.84 549,741C550,742.5 548.775,744.32 547,744C541.935,743.08 538,739 538,739L545,745C545,745 543.53,746.395 542,746C536.47,744.565 535.45,745.625 531.5,741.5C528.88,738.77 531.99,737.475 530.5,734C528.885,730.23 526.915,731.345 525.5,727.5C524.92,725.925 525.56,725.365 527,724.5C528.5,723.6 529.025,723.56 530.5,724.5C534.83,727.255 533.58,728.9 538,731.5C542.295,734.025 547.5,734.5 547.5,734.5L547,730.5C547,730.5 551.745,731.94 556.5,731.5C562.66,730.925 563.435,732.045 568.5,728.5C571.81,726.185 571.5,721 571.5,721C571.5,721 570.05,725.375 566.5,727C560.745,729.63 560.315,729.395 554,729C551.7,728.855 550.5,726 550.5,726C550.5,726 552.99,726.01 554.5,724.5C556.715,722.285 557.5,719 557.5,719C557.5,719 554.505,722.555 550.5,723C548.71,723.2 548.5,720 548.5,720C548.5,720 547.89,721.735 546.5,722C542.325,722.795 538,722 538,722L538.5,720L536,720L537,722.5C537,722.5 535.115,724.29 533,724C529.225,723.485 529.02,723.32 526,721C525.185,720.37 527.085,719.85 526.5,719C524.095,715.505 524.255,714.975 520.5,713C518.89,712.15 517,714 517,714L517.5,710L509.5,715C509.5,715 506.97,712.64 507.5,710ZM547,674.5C547.945,674.095 548.595,674.055 549,675C549.6,676.4 548.5,678 548.5,678L545.5,676.5C545.5,676.5 545.85,674.99 547,674.5ZM549.5,674C549.5,674 553.145,672.48 556.5,673.5C559.38,674.375 561,677.5 561,677.5C561,677.5 558.93,678.585 557,678C552.935,676.765 549.5,674 549.5,674ZM522.5,673.5L521,677C521,677 519.9,675.4 520.5,674C520.905,673.055 522.5,673.5 522.5,673.5ZM446.5,674C446.5,674 450.585,672.65 454.5,673.5C456.75,673.99 458,676.5 458,676.5L446.5,674ZM551,683.5C551,683.5 545.27,689.13 538,691C535.38,691.675 533.5,688 533.5,688L542.5,682L530,687C530,687 530.925,683.98 530.5,681C530.375,680.11 529.805,679.595 529,680C527.255,680.875 528.35,682.385 526.5,683C525.315,683.395 524.195,682.715 524.5,681.5C525.425,677.8 528.5,675 528.5,675L522.5,681L520.5,679C520.5,679 522.275,674.62 526,673.5C530.575,672.13 530.74,674.88 535.5,674.5C537.295,674.355 536.695,672.5 538.5,672.5C539.75,672.5 540.125,673.255 540,674.5C539.82,676.295 538,677.5 538,677.5C538,677.5 541.515,677.12 544.5,678.5C548.225,680.22 551,683.5 551,683.5ZM457,671.5C457,671.5 464.3,674.725 470,680C471.48,681.37 470.5,684 470.5,684L466,682L468.5,689C468.5,689 465.595,685.315 461.5,684C458.16,682.925 454.5,684.5 454.5,684.5L462.5,678.5C462.5,678.5 458.915,676.57 456.5,673.5C455.865,672.69 457,671.5 457,671.5ZM467.5,672C470.95,669.845 471.435,670.67 475.5,670.5C477.56,670.415 477.835,670.285 479.5,671.5C480.855,672.485 481.185,672.835 481,674.5C480.86,675.74 480.245,676.125 479,676C477.205,675.82 476,674 476,674L477,680L472,674C472,674 474,676.305 474,679C474,680.415 472,681 472,681C472,681 469.09,678.68 467.5,675.5C466.715,673.935 466.015,672.925 467.5,672ZM508,668.5C508,668.5 509.73,668.005 510,669C513.625,682.29 515.5,696 515.5,696C515.5,696 513.93,696.835 513,696C511.085,694.28 510.96,694.03 510.5,691.5C508.43,680.12 508,668.5 508,668.5ZM546,666L538.5,669.5C538.5,669.5 539.59,666.625 542,665.5C543.825,664.65 546,666 546,666ZM507,662.5C507,662.5 508.595,662.055 509,663C509.6,664.4 508.5,666 508.5,666L507,662.5ZM506,647.5C506,647.5 507.675,647.02 508,648C508.635,649.91 507.5,652 507.5,652L506,647.5ZM497,587.5L497.5,596C497.5,596 495.62,594.51 495.5,592.5C495.345,589.895 497,587.5 497,587.5ZM498.5,571.5L497,585C497,585 495.78,578.465 496.5,572C496.615,570.975 498.5,571.5 498.5,571.5ZM497,534.5C497,534.5 498.955,533.97 499,535C499.74,551.985 498.5,569 498.5,569C498.5,569 496.545,569.53 496.5,568.5C495.76,551.515 497,534.5 497,534.5ZM608,477C608,477 592.625,480.4 578,486C569.02,489.44 568.89,489.495 561,495C547.295,504.56 547.21,504.595 535,516C524.395,525.905 515.5,537.5 515.5,537.5C515.5,537.5 519.61,528.13 526.5,521C541.025,505.96 540.58,505.065 558,493.5C572.17,484.09 572.85,484.83 589,479.5C598.1,476.495 608,477 608,477ZM606,466.5L607,468.5L605,469L606,466.5ZM459,461.5L460.5,472C460.5,472 458.725,471.085 458.5,469.5C457.935,465.53 459,461.5 459,461.5ZM535.5,497.5C536.665,487.615 535.05,486.9 539.5,478C540.845,475.305 543.485,479.74 545.5,477.5C548.83,473.795 546.015,472.32 548.5,468C551.865,462.145 552.01,462.05 557,457.5C560.645,454.18 565.5,452.5 565.5,452.5L565,460.5C565,460.5 567.525,459.425 569.5,460.5C570.89,461.255 570.5,463.5 570.5,463.5C570.5,463.5 572.245,462.89 572.5,461.5C572.825,459.71 570.55,459.555 571.5,458C573.72,454.365 574.38,454.74 578,452.5C590.18,444.96 590.185,444.905 603,438.5C603.92,438.04 605,437.97 605,439C605,443.365 603,447.5 603,447.5C603,447.5 605.395,448.3 607.5,447.5C616.07,444.235 615.12,441.785 624,439.5C632.97,437.195 633.25,438.035 642.5,438.5C643.75,438.56 644,440.5 644,440.5C644,440.5 638.98,442.17 636,446C634.885,447.435 635.185,449.39 637,449.5C648.77,450.22 648.76,446.395 660.5,447.5C670.42,448.435 670.395,449.455 679.5,453.5C681.93,454.58 683,457.5 683,457.5C683,457.5 678.015,458.32 674,461C672.96,461.695 672.84,463.03 674,463.5C682.88,467.1 683.93,464.215 692.5,468.5C694.305,469.4 690.575,471.075 692,472.5C695.795,476.295 697.445,473.98 701.5,477.5C707.13,482.39 711,489 711,489C711,489 705.565,492.405 699.5,494C695.875,494.955 695.51,492.685 692,494C690.575,494.535 692.965,496.6 691.5,497C686.435,498.38 681,497 681,497C681,497 683.05,494.29 681.5,493C678.975,490.895 675,492 675,492L680,495.5L671,495C671,495 669.28,498.355 671,500.5C673.865,504.085 679,505 679,505C679,505 676.56,507.335 673.5,508C664.895,509.87 664.78,510.7 656,510C645.725,509.18 646.28,505.735 636,505C634.185,504.87 633.91,507.045 635,508.5C640.41,515.715 642.395,513.935 648,521C648.775,521.98 647.745,522.915 646.5,523C632.28,523.95 632.13,524.865 618,523C609.065,521.82 609.935,518.175 601,517C599,516.735 597.88,518.825 599,520.5C602.64,525.96 604.87,523.9 609,529C609.785,529.97 608.745,530.915 607.5,531C600.745,531.45 600.585,531.57 594,530C589.865,529.015 590.56,527.25 586.5,526C583.87,525.19 581,526 581,526C581,526 584.58,530.165 587,535C587.46,535.92 587.42,536.54 586.5,537C584.935,537.785 584.665,537.535 583,537C576.815,535.005 576.645,535.225 571,532C567.775,530.155 569.145,527.73 565.5,527C562.85,526.47 563.47,531.105 561,530C552.555,526.22 546.5,518.5 546.5,518.5L554.5,518.5L553.5,516C553.5,516 554.595,515.01 555.5,515.5C560.865,518.405 565.5,522.5 565.5,522.5C565.5,522.5 561.08,515.81 554.5,512C551.03,509.99 546.5,511.5 546.5,511.5C546.5,511.5 550.645,506.13 556,506.5C566.335,507.215 566.105,509.14 575.5,513.5C580.22,515.69 579.275,517.32 584,519.5C586.045,520.445 588.5,519.5 588.5,519.5L582.5,516.5L585.5,514C585.5,514 578.475,513.43 572,511C570.17,510.315 569.5,508 569.5,508L586.5,510L567,506C567,506 566.655,503.53 568,503.5C578.295,503.26 578.49,503.075 588.5,505.5C603.405,509.115 617.5,515.5 617.5,515.5C617.5,515.5 615.94,513.05 613.5,512C601.3,506.74 601.235,506.785 588.5,503C582.67,501.265 582.58,501.205 576.5,501C567.74,500.705 559,502 559,502C559,502 559.795,499.065 562,497.5C569.48,492.185 569.665,492.345 578,488.5C582.74,486.31 582.785,485.745 588,485.5C593.83,485.23 594.595,484.34 599.5,487.5C609.91,494.205 617.5,504.5 617.5,504.5C617.5,504.5 618.47,502.455 617.5,501C614.265,496.145 612.89,497.25 609.5,492.5C608.9,491.66 610,490.5 610,490.5C610,490.5 613.96,494.835 619,497.5C622.645,499.43 627,499.5 627,499.5C627,499.5 628.445,497.855 627.5,497C622.665,492.625 616.5,490 616.5,490L635,494.5C635,494.5 637.195,491.51 635.5,491C618.17,485.8 600,484 600,484C600,484 600.075,481.1 602,480.5C615.905,476.17 615.955,473.83 630.5,474.5C638.99,474.89 638.575,477.575 645.5,482.5C649.97,485.675 653,490.5 653,490.5L653,485.5L661.5,489C661.5,489 658.965,485.8 655.5,484C652.055,482.215 651.3,484.045 648,482C645.7,480.575 645,477.5 645,477.5L649.5,479.5C649.5,479.5 648.545,476.935 650,476.5C654.55,475.135 654.8,475.8 659.5,476.5C671.625,478.31 683.5,481.5 683.5,481.5C683.5,481.5 678.265,478.44 672.5,477C658.18,473.42 643.5,471.5 643.5,471.5C643.5,471.5 646.42,468.82 650,467.5C651.425,466.975 653,468 653,468L651,470.5L655.5,469.5L653,466.5L671.5,467.5C671.5,467.5 671.065,465.335 669.5,465C663.63,463.74 657.5,464.5 657.5,464.5C657.5,464.5 658.23,462.32 660,461.5C665.45,458.97 671.5,458 671.5,458C671.5,458 660.78,459.035 651,463C642.06,466.625 643.87,470.71 634.5,473C620.65,476.385 606,474 606,474C606,474 606.045,470.995 608,469.5C615.84,463.515 615.815,463.09 625,459.5C637.765,454.51 651.5,452.5 651.5,452.5C651.5,452.5 651.05,450.865 650,451C640.855,452.17 640.79,452.225 632,455C621.73,458.245 612,463 612,463C612,463 610.53,461.17 611.5,460C616.915,453.455 617.31,453.735 624,448.5C628.86,444.695 634.5,442 634.5,442C634.5,442 633.035,441.3 632,442C619.59,450.43 618.975,449.775 608,460C600.57,466.92 603.87,470.255 595.5,476C586.375,482.265 585.335,480.745 574.5,483C572.735,483.37 571.5,481 571.5,481C571.5,481 581.54,472.115 589.5,461.5C592.205,457.895 590.29,456.93 592.5,453C594.855,448.815 598.5,445.5 598.5,445.5C598.5,445.5 594.4,447.48 592,451C590.425,453.31 592.74,454.31 591,456.5C585.72,463.15 578.5,468 578.5,468C578.5,468 577.06,467.03 577.5,466C580.235,459.615 579.91,459.215 584.5,454C585.83,452.485 588.5,453.5 588.5,453.5L587,451C587,451 577.865,460.725 571,472C567.255,478.15 570.275,479.71 566,485.5C562.17,490.69 561.13,489.85 555.5,493C554.6,493.505 553.96,493.42 553.5,492.5C552.715,490.935 552.85,490.625 553.5,489C556.905,480.485 559.205,481.375 561.5,472.5C563.065,466.445 561,460 561,460C561,460 561.855,462.885 561,465.5C557.8,475.3 557.79,475.375 553,484.5C552.375,485.69 550.5,485.5 550.5,485.5L552,473C552,473 549.79,475.74 549,479C547.76,484.125 548,489.5 548,489.5L545.5,484L542,486C542,486 543.62,485.95 544,487C544.77,489.115 545.19,489.59 544,491.5C542.385,494.09 540.175,492.185 539,495C537.365,498.925 539,503.5 539,503.5C539,503.5 537.13,504.58 536.5,503.5C534.97,500.875 535.145,500.52 535.5,497.5ZM470,465C470.825,471.195 471.14,471.355 470,477.5C469.755,478.825 467.5,478.5 467.5,478.5L466.5,468C466.5,468 467.255,470.615 466,472.5C465.305,473.54 463.955,473.665 463.5,472.5C461.375,467.065 463.455,466.5 461.5,461C459.4,455.095 455.5,450 455.5,450L457,462.5C457,462.5 455.265,463.49 454.5,462.5C450.67,457.545 450.435,457.46 448.5,451.5C447.345,447.935 449.53,447.605 448.5,444C446.965,438.625 443.5,434 443.5,434L447,448.5L443,448.5C443,448.5 447.445,452.125 450,457C453.045,462.815 454,469.5 454,469.5C454,469.5 446.435,469.625 442,465C434.015,456.675 437.28,454.335 430.5,445C421.96,433.24 421.53,433.52 411.5,423C410.955,422.43 410,423.5 410,423.5C410,423.5 416.605,430.29 422,438C423.68,440.395 424,443.5 424,443.5C424,443.5 422.385,444.63 421,444C413.855,440.755 414.77,438.955 407.5,436C406.15,435.45 405,437.5 405,437.5C405,437.5 413.64,440.785 421.5,445.5C422.655,446.195 422.5,448 422.5,448L418,447.5C418,447.5 424.425,450.08 429.5,454.5C432.38,457.005 433.5,461 433.5,461C433.5,461 416.8,462.145 403,455C387.755,447.105 377.5,432 377.5,432L385.5,443C385.5,443 379.685,439.995 373.5,438C371.835,437.465 370,438 370,438L372.5,441C372.5,441 358.625,437.65 344.5,436C339.28,435.39 334,436.5 334,436.5C334,436.5 341.39,438.755 349,439.5C351.78,439.77 351.74,438.05 354.5,438.5C364.195,440.085 364.235,440.23 373.5,443.5C381.305,446.255 381.46,446.15 388.5,450.5C390.215,451.56 390.5,454 390.5,454C390.5,454 374.7,458.96 359,457C349.675,455.835 351.645,450.165 342.5,448C332.04,445.52 331.68,446.795 321,448C313.765,448.815 307,452 307,452C307,452 310.31,453.165 313.5,452.5C316.565,451.86 315.89,449.86 319,449.5C329.18,448.325 329.37,447.94 339.5,449.5C345.925,450.49 345.91,451.185 351.5,454.5C352.945,455.355 353,457.5 353,457.5C353,457.5 341.645,458.425 331,462C309.525,469.215 309.515,469.385 289,479C285.315,480.725 283,484.5 283,484.5C283,484.5 292.605,478.615 303,474.5C316.675,469.09 316.76,469.175 331,465.5C332.53,465.105 334,466.5 334,466.5L329,471C329,471 329.8,471.87 330.5,471.5C338.035,467.495 337.17,465.885 345,462.5C346.89,461.68 349,463.5 349,463.5C349,463.5 343.135,465.005 338,468C336.835,468.68 337,470.5 337,470.5C337,470.5 343.73,466.77 351,464.5C352.065,464.165 353,465.5 353,465.5L338,480C338,480 339.49,481.275 340.5,480.5C353.855,470.245 350.385,464.805 366,458.5C378.295,453.535 379.32,458.055 392.5,459.5C399.915,460.315 407,463 407,463C407,463 387.595,470.1 369,479C358.285,484.13 359.56,486.67 348.5,491C346.68,491.71 346,488 346,488C346,488 344.875,490.81 342.5,492C334.65,495.925 326,498 326,498C326,498 326.1,499.545 327,499.5C331.85,499.27 332.04,499.41 336.5,497.5C349.655,491.865 362,484.5 362,484.5L362.5,489.5C362.5,489.5 363.8,485.46 367,483.5C376.35,477.775 376.515,477.71 387,474.5C389.27,473.805 391.5,476 391.5,476L372,488.5C372,488.5 380.295,487.985 387.5,484.5C389.075,483.74 386.265,482.235 387.5,481C392.205,476.295 398.5,473.5 398.5,473.5C398.5,473.5 399.005,475.755 398,477.5C394.155,484.175 392.635,483.21 389,490C388.5,490.935 390.5,491.5 390.5,491.5C390.5,491.5 395.89,479.435 405,470.5C409.18,466.405 410.255,467.62 416,466.5C420.66,465.59 420.975,465.065 425.5,466.5C437.015,470.155 437.08,470.385 447.5,476.5C449.07,477.42 448.5,480 448.5,480C448.5,480 444.67,479.225 441,480C430.315,482.25 430.045,481.72 420,486C402.925,493.275 387,503 387,503C387,503 388.875,504.195 390.5,503.5C406.13,496.835 405.325,495.06 421,488.5C426.93,486.02 433.5,485.5 433.5,485.5C433.5,485.5 433.165,487.865 431.5,489C426.69,492.27 421,494 421,494L435,490L419,500L421,502.5L417,505.5L426,503.5C426,503.5 418.865,510.6 410.5,516C406.715,518.445 402,519 402,519C402,519 403.19,521.14 404.5,520.5C414.595,515.57 415,515.845 423.5,508.5C435.41,498.205 431.9,494.23 445,485.5C450.41,481.895 458,485.5 458,485.5C458,485.5 452.005,486.125 447,489C441.78,492 442.015,492.515 438,497C437.475,497.59 438.5,498.5 438.5,498.5L451,491L444,503.5C444,503.5 447.55,495.905 454,491.5C458.415,488.485 464.5,489.5 464.5,489.5C464.5,489.5 464.745,491.485 463.5,492C460,493.44 459.5,491.56 456,493C454.755,493.515 455,495.5 455,495.5L461,495.5C461,495.5 450.29,506.375 438.5,516C437.7,516.65 436.67,516.515 436.5,515.5C436.04,512.745 438.13,512.725 437.5,510C437.195,508.69 436.175,508.345 435,509C431.135,511.15 432.41,512.935 428.5,515C418.975,520.03 419.005,520.615 408.5,523C402.155,524.44 395.5,522.5 395.5,522.5C395.5,522.5 401.01,517.42 405.5,511.5C406.6,510.05 406.825,509.79 406.5,508C406.245,506.61 405.825,505.51 404.5,506C395.475,509.325 396.525,511.675 387.5,515C386.175,515.49 385.5,513 385.5,513L389.5,510C389.5,510 382.85,513.905 375.5,515C365.855,516.44 365.7,515.97 356,515C354.975,514.895 354.91,513.845 355.5,513C361.38,504.535 363.125,505.795 368.5,497C369.235,495.795 367.88,494.685 366.5,495C356.17,497.35 356.86,499.79 346.5,502C337.93,503.83 337.76,503.33 329,503C324.395,502.825 324.25,502.79 320,501C319.05,500.6 318.805,499.76 319.5,499C324.4,493.635 325.805,495.05 330.5,489.5C331.63,488.165 330.5,486 330.5,486C330.5,486 321.705,489.4 312.5,491C309.99,491.435 307.5,490 307.5,490L314.5,484C314.5,484 308.615,486.06 302.5,487C298.795,487.57 298.51,488.315 295,487C293.575,486.465 294.5,484 294.5,484C294.5,484 291.815,486.48 288.5,487C283.555,487.775 278.5,486.5 278.5,486.5C278.5,486.5 280.895,479 286,473.5C290.905,468.215 291.335,468.255 298,465.5C299.48,464.89 300.5,467.5 300.5,467.5L302.5,465L299.5,465L309.5,458.5C309.5,458.5 309.07,456.315 307.5,456C302.35,454.97 297,456 297,456C297,456 297.35,453.655 299,452.5C305.05,448.265 305.005,447.865 312,445.5C321.43,442.31 322.06,444.645 331.5,441.5C332.685,441.105 332.515,439.725 331.5,439C328.475,436.84 324.5,436.5 324.5,436.5C324.5,436.5 326.805,433.66 330,432.5C335.255,430.59 335.41,430.655 341,430.5C353.755,430.15 353.76,432.22 366.5,431.5C367.845,431.425 368.45,429.95 367.5,429C363.285,424.785 357.5,422.5 357.5,422.5C357.5,422.5 357.755,420.615 359,420.5C369.21,419.57 369.43,418.59 379.5,420.5C393.48,423.15 406.5,429.5 406.5,429.5L400.5,419.5C400.5,419.5 402.315,417.025 404.5,417.5C414.395,419.65 414.83,419.27 423.5,424.5C430.92,428.975 428.86,431.59 436,436.5C437.5,437.53 438.925,437.225 439.5,435.5C440.54,432.38 437.595,432.16 438.5,429C438.92,427.54 440.28,427.595 441.5,428.5C449.45,434.405 450.055,434.075 456,442C460.04,447.385 456.65,449.36 461,454.5C462.945,456.8 465.04,452.715 467,455C470.395,458.965 469.31,459.825 470,465ZM573.5,387.5C573.5,387.5 573.055,385.905 574,385.5C575.4,384.9 577,386 577,386L573.5,387.5ZM552.5,385.5C552.5,385.5 553.935,387.3 553,388.5C551.69,390.185 549,390 549,390L552.5,385.5ZM487,382.5C487,382.5 490.27,384.115 492,387C492.78,388.305 491.5,390 491.5,390C491.5,390 488.865,388.78 487.5,386.5C486.465,384.77 487,382.5 487,382.5ZM459.5,363C459.5,363 461.1,361.9 462.5,362.5C463.445,362.905 463,364.5 463,364.5L459.5,363ZM449.5,346C449.5,346 452.34,346.04 454.5,347.5C460.97,351.875 461.125,351.835 466.5,357.5C474.935,366.395 482,376.5 482,376.5L449.5,346ZM669,360C669.92,360.46 669.525,361.9 668.5,362C658.295,362.97 648,362 648,362L664,364.5C664,364.5 658.91,364.45 655,367C652.66,368.525 654.62,370.18 652.5,372C650.75,373.5 648,373 648,373L651.5,376C651.5,376 643.38,376.905 636,380C634.845,380.485 634.93,381.855 636,382.5C639.33,384.495 640.17,382.505 643.5,384.5C644.57,385.145 644.62,386.44 643.5,387C633.45,392.025 633.545,392.94 622.5,395C614.375,396.515 614.255,393.555 606,394C604.59,394.075 604.305,394.62 604,396C603.71,397.315 603.855,397.79 605,398.5C609.38,401.215 610.12,399.785 614.5,402.5C615.645,403.21 615.5,405 615.5,405C615.5,405 606.375,409.685 596.5,411C587.32,412.225 587.195,408.88 578,410C576,410.245 575.1,411.695 576,413.5C577.675,416.855 579.58,415.135 582,418C582.665,418.785 582.41,419.515 581.5,420C578.29,421.715 578.14,422 574.5,422C567.675,422 567.81,419.545 561,420C559.325,420.11 561.04,422.34 559.5,423C556.97,424.085 556.675,423.65 554,423C548.31,421.62 548.19,421.705 543,419C542.085,418.525 542.5,417 542.5,417L557.5,417C557.5,417 553.08,412.69 547.5,411C544.355,410.045 541,412 541,412L541,409.5C541,409.5 547.545,407.605 553.5,409.5C559.12,411.29 557.675,413.965 563,416.5C568.365,419.055 574.5,419.5 574.5,419.5C574.5,419.5 575.63,417.54 574.5,417C569.14,414.435 568.225,416.835 563,414C559.115,411.89 557,407.5 557,407.5C557,407.5 563.185,407.085 568.5,409.5C569.885,410.13 568,412.5 568,412.5L570.5,412.5C570.5,412.5 571.36,410.525 570.5,409C568.94,406.225 566,404.5 566,404.5L592.5,406.5C592.5,406.5 580.77,401.985 568.5,401C558.73,400.215 549,403 549,403C549,403 554.055,394.985 562,391.5C569.11,388.38 569.915,388.835 577.5,390.5C588.66,392.945 598.5,399.5 598.5,399.5L587.5,392.5C587.5,392.5 589.885,393.675 591.5,392.5C593.225,391.245 590.975,389.175 593,388.5C599.42,386.36 599.74,387.21 606.5,387.5C611.595,387.715 611.895,387.31 616.5,389.5C617.875,390.155 617,392.5 617,392.5C617,392.5 620.08,389.45 624,388.5C628.615,387.38 633.5,388.5 633.5,388.5L577.5,384.5C577.5,384.5 577.505,382.265 579,381.5C589.585,376.095 589.175,373.695 601,372.5C610.055,371.585 610.2,373.765 618.5,377.5C620.65,378.47 621,381.5 621,381.5L620,377.5L630.5,378.5L615,375L620.5,372L610.5,371.5C610.5,371.5 610.785,369.805 612,369.5C627.08,365.73 642.5,363.5 642.5,363.5C642.5,363.5 640.89,361.79 639,362C624.865,363.57 611,367 611,367C611,367 609.535,365.175 610.5,364C612.27,361.835 613.525,363.475 615.5,361.5C617.475,359.525 615.675,358.05 618,356.5C620.735,354.675 624.5,355.5 624.5,355.5C624.5,355.5 622.5,354.915 622.5,353.5C622.5,351.9 624.5,351 624.5,351C624.5,351 617.925,352.78 613,357C607.19,361.98 610.16,365.225 603.5,369C594.32,374.2 593.445,372.51 583,374C581.98,374.145 581.915,372.845 582.5,372C584.415,369.235 585.57,370.255 587.5,367.5C589.18,365.105 587.43,364.07 589.5,362C592.745,358.755 593.95,360.405 597.5,357.5C599.595,355.79 600.5,353 600.5,353C600.5,353 596.8,355.77 592.5,357C591.205,357.37 591.155,355.305 590,356C587.98,357.215 589.52,358.785 587.5,360C586.345,360.695 585.79,357.91 585,359C578.645,367.8 582.435,370.595 574.5,378C566.65,385.325 555,387 555,387C555,387 558.185,378.335 563.5,371C570.775,360.965 570.7,360.695 580,352.5C581.69,351.015 582.63,353.75 584.5,352.5C586.925,350.885 586.845,350.34 587.5,347.5C587.74,346.465 586.91,345.455 586,346C579.905,349.655 579.975,349.925 575,355C567.175,362.975 568.875,364.61 560.5,372C559.3,373.06 558,370 558,370L555,375L553,370C553,370 553.07,375.575 551,380.5C547.745,388.25 542.5,395 542.5,395C542.5,395 544.255,386.305 544.5,377.5C544.52,376.71 543,377 543,377C543,377 542.475,384.525 540,391.5C539.55,392.77 537.5,392.5 537.5,392.5L538.5,383C538.5,383 537.19,383.12 537,384C535.88,389.155 537.185,389.36 536,394.5C535.64,396.06 534,397 534,397L532,394C532,394 532.69,400.46 531,406.5C530.665,407.705 528.815,407.71 528.5,406.5C526.8,399.95 526.97,399.75 527.5,393C527.985,386.835 526.885,386.02 530.5,381C532.26,378.555 534.585,382.825 536.5,380.5C542.33,373.425 539.24,371.51 544.5,364C548.155,358.78 554,355.5 554,355.5C554,355.5 554.03,359.44 556,362.5C556.675,363.55 557.5,363.25 558.5,362.5C567.72,355.585 566.365,353.825 576,347.5C583.3,342.705 583.475,342.395 592,340.5C593.76,340.11 594.545,341.78 594,343.5C592.765,347.41 589.89,345.995 589,350C588.575,351.905 590.115,353.01 592,352.5C603.025,349.515 601.91,346.24 613,343.5C622.48,341.16 622.77,341.69 632.5,342.5C635.195,342.725 637,345.5 637,345.5C637,345.5 633.975,346.025 632,348C630.715,349.285 631,351.5 631,351.5C631,351.5 639.45,349.7 647.5,351.5C658.78,354.025 658.66,354.83 669,360ZM386.5,330.5C386.5,330.5 388.725,327.415 392,326.5C395.38,325.555 399,327 399,327C399,327 397.105,329.27 394.5,330C390.64,331.08 386.5,330.5 386.5,330.5ZM348.5,316C348.5,316 361.11,315.67 373.5,317.5C383.22,318.935 383.205,319.325 392.5,322.5C393.685,322.905 394,324.5 394,324.5C394,324.5 390.595,324.32 388,326C386.02,327.28 387.735,329.255 385.5,330C380.995,331.5 376,330 376,330L376,332.5C376,332.5 384.85,333.81 393.5,332.5C401.55,331.28 400.925,326.44 409,327.5C421.205,329.105 420.74,331.52 431.5,337.5C432.595,338.105 431.5,340 431.5,340C431.5,340 422.645,338.635 414,340C398.73,342.41 384,347.5 384,347.5C384,347.5 389.33,348.41 394.5,347.5C398.025,346.88 397.495,345.23 401,344.5C409.62,342.705 418.5,342.5 418.5,342.5C418.5,342.5 417.97,344.37 416.5,345C412.485,346.72 411.905,345.045 408,347C406.5,347.75 407.94,349.135 406.5,350C405,350.9 403,350 403,350C403,350 403.53,351.925 404.5,351.5C408.255,349.855 407.02,347.495 411,346.5C425.44,342.89 425.955,339.34 440.5,342.5C451.075,344.8 457,356.5 457,356.5C457,356.5 444.06,354 431,354C428.64,354 427,356.5 427,356.5C427,356.5 436.295,355.58 445.5,356.5C446.745,356.625 447,358.5 447,358.5L423,364.5L440.5,361.5L440,363.5C440,363.5 442.24,362.05 444.5,362.5C445.51,362.7 445.73,363.77 445,364.5C442.06,367.44 440.57,365.73 438,369C437.1,370.145 439.5,371.5 439.5,371.5C439.5,371.5 442.765,367.76 447,365.5C450.425,363.675 454.5,363.5 454.5,363.5C454.5,363.5 455.555,365.33 454.5,366C452.14,367.5 451.46,365.675 449,367C447.815,367.64 448,369.5 448,369.5C448,369.5 450.575,367.635 453.5,367.5C456.345,367.37 459,369 459,369L457,371.5L466,371.5C466,371.5 459.5,374.975 452.5,377C449.86,377.765 449.46,378.23 447,377C445.64,376.32 448.02,374.085 446.5,374C437.705,373.51 437.805,376 429,376C427.97,376 427.845,374.8 428.5,374C430.43,371.64 433.5,370.5 433.5,370.5C433.5,370.5 433.08,368.25 431.5,368C418.375,365.93 418.095,368.26 405,366C403.075,365.67 402.5,363 402.5,363C402.5,363 407.235,362.4 410.5,359.5C412.225,357.97 411.5,355 411.5,355C411.5,355 398.47,354.325 386,351C379.52,349.27 374,345 374,345C374,345 374.08,342.115 376,341.5C381.005,339.9 386.5,341 386.5,341C386.5,341 383.945,338.07 380.5,337C372.495,334.51 372.08,336.245 364,334C362.795,333.665 362.5,332 362.5,332C362.5,332 366.35,331.47 369.5,329.5C370.64,328.785 370.5,327 370.5,327L359.5,324.5C359.5,324.5 361.195,324.575 361.5,323.5C361.87,322.205 361.735,321.53 360.5,321C356.04,319.09 355.48,320.865 351,319C349.2,318.25 348.5,316 348.5,316ZM345.5,314C345.5,314 354.21,308.435 364,306.5C373.565,304.61 373.82,307.68 383.5,306.5C384.835,306.335 385.16,305.175 384.5,304C382.595,300.61 379,298.5 379,298.5C379,298.5 389.045,297.06 398.5,299.5C405.02,301.18 403.775,303.935 410,306.5C412.545,307.545 415.5,306.5 415.5,306.5C415.5,306.5 413.5,304.195 413.5,301.5C413.5,299.695 413.715,298.26 415.5,298.5C422.405,299.42 422.64,299.74 428.5,303.5C436.1,308.375 434.295,310.79 442,315.5C443.965,316.7 446.5,314.5 446.5,314.5C446.5,314.5 444.5,312.195 444.5,309.5C444.5,308.085 445.295,306.76 446.5,307.5C454.06,312.135 454.76,311.845 460,319C465.295,326.23 461.83,328.18 467,335.5C468.45,337.555 470.74,333.825 472,336C475.9,342.715 475.015,343.3 476,351C476.54,355.245 475,359.5 475,359.5C475,359.5 472.845,359.8 472.5,358.5C471.42,354.39 472.5,350 472.5,350L469.5,353.5L467.5,340L464.5,348.5C464.5,348.5 463.415,337.54 460.5,327C460.075,325.455 458,325 458,325L462,342.5C462,342.5 460.02,343.635 459.5,342.5C455.44,333.665 457.33,332.94 453.5,324C452.73,322.205 451.035,323.375 450.5,321.5C449.865,319.285 452.105,319.225 451.5,317C451.145,315.7 449,316 449,316C449,316 452.105,321.74 453,328C453.2,329.4 451,330 451,330L437.5,314C437.5,314 435.375,314.64 436,315.5C443.18,325.4 444.745,324.155 452,334C455.315,338.5 457,344 457,344C457,344 455.38,345.77 454,345C443.635,339.24 442.285,340.445 434.5,331.5C425.095,320.69 420.5,306.5 420.5,306.5L425.5,306L420.5,303C420.5,303 418.715,304.07 419,305.5C420.305,312.015 423.5,318 423.5,318C423.5,318 415.125,310.93 405.5,306C404.205,305.335 403,307.5 403,307.5C403,307.5 405.535,307.29 407.5,308.5C415.42,313.375 416.165,312.69 422.5,319.5C426.46,323.76 427.5,330 427.5,330C427.5,330 415.055,329.145 405,323C396.39,317.74 399.21,314.505 391.5,308C390.385,307.06 389,309.5 389,309.5C389,309.5 394.82,312.94 399,318C399.97,319.17 398.5,321 398.5,321C398.5,321 383.64,317.185 368.5,315C359.33,313.675 359.255,313.57 350,314C348.2,314.085 348.805,316 347,316C345.75,316 345.5,314 345.5,314ZM517.5,282.5C517.5,282.5 510.545,300.92 506,320C501.775,337.75 502.245,337.89 500,356C498.74,366.185 498.535,366.25 499,376.5C500.54,410.555 500.315,410.61 504,444.5C504.145,445.84 505.655,446.55 506.5,445.5C514.545,435.505 512.5,434.03 520.5,424C531.315,410.445 531.15,410.14 544,398.5C552.53,390.77 553.155,391.465 563,385.5C569.695,381.445 569.655,381.205 577,378.5C579.345,377.635 582,378.5 582,378.5C582,378.5 565.92,385.035 552,395C540.21,403.44 540.715,404.235 531,415C522.155,424.8 521.715,424.635 515,436C508.62,446.795 507.31,446.675 505,459C501.22,479.175 502.76,479.475 503,500C503.26,522.3 503.325,522.36 506,544.5C506.16,545.835 507.37,546.235 508.5,545.5C512.945,542.61 516,538 516,538C516,538 509.91,543.795 506,551C504.92,552.99 506.5,555.5 506.5,555.5L511,549C511,549 507.305,554.685 507,561C505.295,596.21 508.49,596.28 507,631.5C506.935,633.02 504.68,630.64 504,632C502.77,634.46 504,637.5 504,637.5L507,636C507,636 508.22,640.43 507,644.5C506.52,646.105 504.125,644.33 504,646C503.055,658.725 503.525,658.825 505,671.5C506.53,684.65 508.51,684.345 510,697.5C510.115,698.525 508,698 508,698L505.5,687C505.5,687 506.875,691.335 506,695.5C505.725,696.815 503.5,696.5 503.5,696.5L498.5,676C498.5,676 498.725,683.2 496,689.5C494.525,692.91 490.5,694.5 490.5,694.5C490.5,694.5 494.565,681.195 496.5,667.5C497.585,659.825 496.5,652 496.5,652C496.5,652 493.985,670.895 490,689.5C489.46,692.015 489.58,692.485 487.5,694C486.27,694.895 484.5,693.5 484.5,693.5C484.5,693.5 489.695,682.9 491.5,671.5C495.225,647.96 495.5,624 495.5,624L496,649.5C496,649.5 498.12,645.675 498.5,641.5C499.385,631.79 499.685,631.68 498.5,622C498.145,619.105 495.5,617 495.5,617C495.5,617 497.185,617.48 497.5,616.5C499.355,610.705 499.255,610.58 499.5,604.5C501.26,560.775 501.5,517 501.5,517L497,534C497,534 498.15,528.725 496.5,524C494.285,517.645 492.235,518.65 489.5,512.5C489.045,511.48 490.5,510.5 490.5,510.5L495.5,518.5C495.5,518.5 496.19,514.82 494.5,512C493.565,510.44 492.285,512.285 491,511C489.025,509.025 490.405,508.045 488.5,506C480.06,496.945 479.94,497.01 470.5,489C463.41,482.985 463.525,482.7 455.5,478C442.955,470.66 443.37,469.345 429.5,465C409.57,458.755 388.5,457 388.5,457C388.5,457 402.19,456.115 415.5,458.5C428.89,460.9 429.2,460.695 441.5,466.5C455.93,473.305 456.09,473.475 468.5,483.5C481.015,493.61 478.975,495.81 491,506.5C492.725,508.03 495.5,507.5 495.5,507.5C495.5,507.5 498.73,482.795 498.5,458C498.23,428.93 497.61,428.9 494.5,400C494.09,396.215 491.5,393 491.5,393L494.5,396.5C494.5,396.5 492.23,392.36 492.5,388C492.75,383.97 494.95,384.5 495.5,380.5C496.97,369.84 495.135,369.675 496.5,359C499.14,338.37 499.165,338.34 503.5,318C505.675,307.79 505.67,307.71 509.5,298C512.7,289.885 517.5,282.5 517.5,282.5ZM532.5,241.5L530,249C530,249 528.705,246.385 529.5,244C530.115,242.15 532.5,241.5 532.5,241.5ZM574.5,202.5C574.5,202.5 576.305,212.28 574,221.5C571.94,229.745 566,236.5 566,236.5C566,236.5 567.195,237.84 568.5,237.5C573.265,236.255 577.5,233.5 577.5,233.5C577.5,233.5 578.55,236.05 578,238.5C576.265,246.215 577.085,246.73 573,253.5C568.885,260.31 566.705,258.585 562,265C560.965,266.41 561.15,266.97 562,268.5C562.655,269.675 563.195,269.825 564.5,269.5C569.5,268.25 568.865,265.945 574,265.5C575.795,265.345 576.495,266.765 576,268.5C574.28,274.525 574.385,275.025 570,279.5C562.125,287.535 560.41,285.525 552,293C551.065,293.83 550.82,295.085 552,295.5C556.745,297.16 562,296.5 562,296.5C562,296.5 551.42,302.465 542,310C541.025,310.78 542,312.5 542,312.5C542,312.5 543.97,311.65 545.5,312.5C546.675,313.155 547.605,314.23 546.5,315C537.68,321.125 537.745,321.8 527.5,325C521.295,326.94 514.5,325 514.5,325C514.5,325 517.405,320.37 522,318.5C525.935,316.9 526.42,319.685 530.5,318.5C534.495,317.34 537.5,314 537.5,314L522,317L530.5,311C530.5,311 526.705,313.235 522.5,314C520.945,314.285 519.5,313 519.5,313L543.5,300L529.5,304L529,300C529,300 524.765,304.71 519.5,308C516.615,309.8 513,310 513,310C513,310 511.595,308.22 512.5,307C518.405,299.05 517.93,298.245 526,292.5C531.345,288.695 532.585,291.34 538.5,288.5C545.19,285.29 544.21,283.49 551,280.5C556.885,277.91 557.665,280.195 563.5,277.5C567.685,275.57 570.5,271.5 570.5,271.5C570.5,271.5 569.97,269.57 569,270C555.315,276.11 556.135,277.78 542.5,284C541.485,284.465 540.5,283 540.5,283C540.5,283 544.185,281.45 546.5,278.5C547.29,277.5 546,276 546,276L518.5,291.5C518.5,291.5 521.17,280.625 526.5,271C529.07,266.36 529.46,266.24 534,263.5C541.67,258.865 542.855,261.175 550.5,256.5C552.325,255.385 550.41,253.93 552,252.5C555.665,249.2 560.5,247.5 560.5,247.5C560.5,247.5 559.97,245.575 559,246C555.245,247.645 556.325,249.53 552.5,251C549.465,252.165 549.085,249.97 546,251C541.32,252.56 542.155,254.38 537.5,256C536.005,256.52 534.5,255 534.5,255C534.5,255 543.325,240.52 553.5,227C560.855,217.23 562.32,218.4 569.5,208.5C570.125,207.64 568,207 568,207C568,207 552.465,228.085 535.5,248C534.83,248.785 533.93,248.435 533.5,247.5C532.225,244.74 532.3,244.535 532.5,241.5C532.805,236.9 534.315,237.105 534.5,232.5C534.575,230.6 533,229 533,229C533,229 528.37,237.12 526,246C523.33,256.01 526.455,256.735 523,266.5C519.08,277.58 518.075,277.26 511.5,287C510.925,287.855 509.66,287.52 509.5,286.5C508.055,277.35 508.5,268 508.5,268C508.5,268 507.905,269.825 506.5,270C505.26,270.155 504.695,269.735 504.5,268.5C503.38,261.335 504,254 504,254C504,254 501.11,265.24 502,276.5C502.64,284.62 506.46,283.875 507,292C507.49,299.385 504,306.5 504,306.5C504,306.5 501.215,303.345 500.5,299.5C498.43,288.395 498.5,277 498.5,277L495.5,294L487,284C487,284 491.88,291.095 495,299C495.74,300.875 494.5,303 494.5,303L490,301.5C490,301.5 492.84,303.22 494,306C495.455,309.49 493.73,309.935 495,313.5C496.285,317.095 498.215,316.265 499,320C499.37,321.765 497,323 497,323C497,323 490.825,316.505 487.5,308.5C483.965,299.985 484.7,299.64 483.5,290.5C482.685,284.305 483.5,278 483.5,278C483.5,278 485.495,281.915 489,282.5C491.275,282.88 492.255,281.79 492.5,279.5C493.585,269.295 490.285,269.19 491.5,259C492.325,252.085 493.08,252.065 496.5,246C498.675,242.15 502.5,239.5 502.5,239.5C502.5,239.5 501.96,244.42 504,248.5C504.815,250.13 506.46,250.995 507.5,249.5C513,241.605 510.25,240.06 515.5,232C521.11,223.39 521.395,223.415 529,216.5C530.125,215.475 532,217 532,217C532,217 529.77,221.14 530,225.5C530.07,226.845 531.295,227.1 532.5,226.5C535.825,224.84 534.55,222.88 538,221.5C540.14,220.645 540.58,223.78 542.5,222.5C550.295,217.3 548.705,215.385 556,209.5C556.8,208.855 558,210 558,210L557,212.5C557,212.5 560.97,212.03 563.5,209.5C564.925,208.075 562.3,206.58 564,205.5C568.605,202.57 574.5,202.5 574.5,202.5Z" style="fill:rgb(75,75,75);fill-rule:nonzero;stroke:rgb(75,75,75);stroke-width:1px;"/>
        </g>
    </g>
</svg>
