<?xml version="1.0" encoding="UTF-8" standalone="no"?>
<!DOCTYPE svg PUBLIC "-//W3C//DTD SVG 1.1//EN" "http://www.w3.org/Graphics/SVG/1.1/DTD/svg11.dtd">
<svg width="100%" height="100%" viewBox="0 0 703 350" version="1.1" xmlns="http://www.w3.org/2000/svg" xmlns:xlink="http://www.w3.org/1999/xlink" xml:space="preserve" xmlns:serif="http://www.serif.com/" style="fill-rule:evenodd;clip-rule:evenodd;stroke-linejoin:round;stroke-miterlimit:2;">
    <g id="path4146" transform="matrix(-1,0,0,1,702.301,0)">
        <path d="M573.35,347.71C558.357,341.272 543.436,303.819 551.834,293.7C552.461,292.945 554.892,291.76 557.238,291.066C559.583,290.372 562.177,289.412 563.002,288.932C563.827,288.452 566.526,287.121 569,285.975L573.497,283.891L575.25,286.055C576.213,287.245 577.002,288.795 577.002,289.499C577.002,290.202 579.486,293.302 582.523,296.388C588.783,302.749 589.327,302.329 575.252,302.013C568.134,301.853 567.002,302.058 567.002,303.5C567.002,304.994 568.415,305.14 580.252,304.872C591.024,304.628 593.97,304.869 596.002,306.163C599.228,308.216 604.198,309.113 606.041,307.974C607.942,306.799 606.7,305.769 600.728,303.571C593.907,301.06 587.175,296.141 582.153,289.999L577.803,284.679L578.384,277.863C578.703,274.115 580.352,265.299 582.048,258.273C583.743,251.247 585.539,243.248 586.037,240.498C586.536,237.748 587.653,232.348 588.519,228.498C598.037,186.193 596.742,132.351 585.409,99.258C578.62,79.433 557.933,45.322 558.612,55.072C558.672,55.939 561.689,61.176 565.315,66.71C580.764,90.291 586.87,110.617 590.384,150.172C592.792,177.276 589.071,220.535 582.946,236.645C582.426,238.015 582.006,240.365 582.006,241.865C582.006,243.364 581.279,247.272 580.391,250.55C578.357,258.058 576.301,266.918 574.947,274.01C573.855,279.736 571.299,283.01 567.921,283.01C565.633,283.01 553.02,287.968 543.508,292.606C539.625,294.5 532.86,296.73 528.476,297.563C524.092,298.396 518.93,299.495 517.005,300.007C499.575,304.638 469.753,305.4 438.969,302C389.619,296.551 360.775,295.792 353.255,299.744C348.589,302.197 347.176,300.721 350.877,297.26C364.297,284.714 384.069,268.01 385.498,268.01C386.218,268.01 387.737,266.435 388.873,264.51C390.008,262.585 391.369,261.01 391.896,261.01C395.856,261.01 406.444,243.233 408.541,233.062C411.263,219.856 403.035,206.467 394.256,209.816C392.743,210.393 389.272,211.165 386.543,211.531C369.867,213.767 362.648,223.504 367.842,236.756C370.065,242.428 371.042,242.182 381.738,233.253C384.616,230.851 389.341,227.101 392.238,224.919L397.506,220.951L398.703,223.73C399.361,225.259 399.68,227.259 399.412,228.175C399.144,229.092 399.38,230.123 399.936,230.466C401.989,231.735 402.348,225.799 400.433,222.243C397.69,217.15 396.701,217.252 389.269,223.393C374.172,235.868 368.095,239.456 369.487,235.072C369.825,234.007 369.554,232.258 368.885,231.187C367.162,228.427 369.269,223.797 374.149,219.62C379.469,215.07 392.009,211.13 392.009,214.01C392.009,214.56 391.648,215.01 391.208,215.01C390.768,215.01 387.883,217.26 384.798,220.01C381.713,222.76 378.81,225.012 378.348,225.015C376.597,225.026 371.741,229.709 372.165,230.979C372.464,231.876 374.272,230.881 377.741,227.909C395.174,212.974 400.101,211.353 404.121,219.231C410.398,231.534 400.691,250.761 379.998,267.01C375.446,270.585 368.743,276.435 365.104,280.01C361.465,283.585 356.242,288.567 353.498,291.082C350.754,293.596 346.792,297.758 344.694,300.329C342.514,303.002 339.729,305.258 338.194,305.596C336.717,305.922 333.484,306.802 331.009,307.551C318.149,311.448 291.612,310.018 283.477,304.991C268.905,295.985 258.015,267.19 264.473,254.742C266.277,251.265 264.799,249.553 259.229,248.662C238.001,245.267 225.731,222.912 230.974,197.182L233.066,186.914L230.259,184.107C227.934,181.782 225.338,180.847 215.143,178.66C197.99,174.982 189.175,169.883 185.985,161.794C185.273,159.988 183.566,156.985 182.193,155.121C179.868,151.967 179.676,150.81 179.403,138.356C179.241,131 178.845,124.552 178.521,124.029C176.925,121.446 181.376,111.56 186.873,105.48C189.973,102.051 196.085,94.42 200.456,88.522C204.827,82.624 209.44,77.119 210.706,76.289C214.108,74.06 213.569,72.683 209.587,73.43C203.777,72.832 199.047,72.136 194.597,72.42C170.987,73.97 122.877,74.607 90.487,73.796C86.637,73.699 75.607,73.926 65.975,74.298C55.602,74.7 45.003,74.558 39.975,73.951C35.307,73.388 29.129,72.699 26.248,72.42C-2.86,69.609 -10.518,34.474 14.487,18.461C21.018,14.278 50.09,8.007 65.487,7.459C72.087,7.224 81.762,6.749 86.987,6.404C92.212,6.059 106.607,5.642 118.987,5.479C131.367,5.316 145.307,4.911 149.987,4.58C154.667,4.249 168.167,3.774 179.987,3.525C286.177,1.291 286.097,1.292 311.987,2.342C320.611,2.692 330.134,2.472 335.487,1.799C345.388,0.555 347.83,0.498 375.443,0.879C385.869,1.023 396.669,1.606 399.443,2.176C402.217,2.746 408.762,3.335 413.987,3.485C420.17,3.662 426.106,4.532 430.987,5.976C435.112,7.196 440.512,8.604 442.987,9.104C445.462,9.604 451.537,11.11 456.487,12.449C461.437,13.789 469.987,15.847 475.487,17.022C485.444,19.15 487.371,19.764 504.487,26.264C509.437,28.144 515.569,30.447 518.115,31.382C520.66,32.317 523.542,33.966 524.52,35.046C525.498,36.126 526.814,37.01 527.445,37.01C528.077,37.01 532.316,38.81 536.865,41.01C547.225,46.026 552.975,45.908 552.975,40.681C552.975,35.558 563.685,22.244 569.831,19.726C583.811,14 696.011,8.297 699.091,13.157C702.283,18.194 699.368,31.594 695.97,27.5C694.366,25.567 681.189,17.433 678.229,16.549C674.621,15.47 675.631,17.4 680.068,20.06C682.316,21.408 686.176,24.205 688.645,26.275C691.114,28.346 694.395,30.692 695.936,31.488C698.959,33.052 699.979,34.83 699.979,38.534C699.979,41.374 698.205,42.762 697.367,40.578C696.057,37.164 671.932,21.726 670.361,23.296C670.086,23.571 671.741,25.082 674.039,26.653C676.338,28.225 679.852,30.875 681.848,32.542C683.845,34.21 688.039,37.506 691.169,39.868C699.648,46.266 699.479,45.883 699.479,58.69C699.479,70.768 698.229,73.107 695.178,66.739C693.028,62.268 685.568,55.573 666.118,40.666C657.008,33.687 639.428,22.763 633.968,20.689L629.468,18.981L632.468,21.541C634.118,22.949 637.268,25.344 639.468,26.863C643.785,29.843 651.492,35.262 659.468,40.924C678.601,54.507 699.968,74.189 699.968,78.231C699.968,81.842 698.987,81.736 695.402,77.738C689.262,70.88 655.472,43.497 643.142,35.38C638.372,32.241 632.542,28.398 630.192,26.841C627.842,25.284 625.562,24.01 625.142,24.01C624.716,24.01 622.857,22.452 621.012,20.549C619.167,18.645 617.283,17.319 616.826,17.602C615.17,18.625 620.635,24.357 627.975,29.296C632.1,32.071 637.95,36.207 640.975,38.485C644,40.764 650.063,45.301 654.449,48.569C658.834,51.837 663.145,55.185 664.029,56.01C664.913,56.835 668.03,59.535 670.955,62.01C685.381,74.215 691.872,79.897 696.085,84.01L700.695,88.51L700.837,96.852C701.026,107.964 701.217,107.928 691.627,98.574C680.607,87.823 659.607,70.23 635.777,51.774C626.657,44.718 614.757,36.513 605.477,30.892C601.627,28.559 597.497,25.785 596.297,24.726C594.217,22.879 591.977,23.068 591.977,25.091C591.977,25.621 595.915,28.607 600.727,31.726C614.603,40.721 640.062,60.338 661.444,78.509C667.916,84.009 674.395,89.396 675.844,90.481C677.293,91.566 680.503,94.342 682.978,96.65C685.453,98.959 689.074,102.121 691.024,103.678C699.789,110.674 700.546,111.969 700.133,119.259C699.945,122.586 698.804,122.807 697.465,119.774C696.922,118.545 691.303,113.111 684.978,107.698C678.653,102.285 671.054,95.753 668.092,93.183C665.13,90.613 661.98,88.114 661.092,87.63C660.202,87.147 657.892,85.274 655.972,83.47C648.172,76.154 613.592,50.851 600.472,42.852C588.572,35.601 567.922,24.723 567.282,25.367C566.255,26.394 568.142,27.919 576.222,32.593C601.028,46.942 617.316,58.196 643.472,79.058C689.444,115.727 699.422,124.605 699.651,129.045C700.522,145.859 700.136,150.056 698.075,146.204C697.125,144.404 679.225,128.174 671.405,122.004C669.663,120.629 663.543,115.454 657.806,110.504C652.068,105.554 645.209,99.929 642.563,98.004C639.916,96.079 635.888,92.906 633.612,90.952C626.198,84.589 621.529,81.313 618.473,80.326C616.58,79.715 614.884,78.13 613.875,76.027C607.376,62.476 574.355,41.234 565.232,44.735C563.09,45.557 564.758,46.714 569.084,47.405C585.501,50.031 598.131,59.542 614.209,81.39C616.14,84.015 619.641,92.598 622.062,100.646C622.582,102.374 623.675,104.342 624.49,105.019C625.306,105.696 625.971,107.207 625.968,108.377C625.965,109.547 626.594,112.53 627.365,115.005C633.777,135.594 636.865,153.005 634.104,153.005C633.109,153.005 632.001,147.205 631.984,141.915C631.964,135.341 626.622,117.025 622.385,109.005C621.078,106.53 617.992,100.342 615.528,95.255C605.818,75.201 593.828,62.333 579.978,57.088C567.918,52.522 566.949,54.58 574.761,68.175C588.67,92.381 594.831,112.176 597.059,139.824C598.433,156.882 597.761,200.696 596.01,208.108C595.439,210.526 593.168,220.379 590.964,230.004C585.726,252.874 584.323,258.51 582.415,264.343C578.145,277.383 589.975,297.003 602.085,297.003C606.782,297.003 608.971,297.831 608.971,299.61C608.971,301.645 611.633,301.313 614.944,298.864C617.035,297.319 618.663,296.891 620.817,297.322C624.756,298.11 625.678,296.786 626.261,289.503C627.72,271.309 629.2,259.688 630.911,253.003C633.704,242.089 635.064,224.292 636.184,184.003C636.238,182.078 635.765,177.803 635.132,174.503C630.445,150.04 628.149,149.025 681.763,195.131C686.002,198.776 692.223,204.401 695.587,207.631L701.704,213.502L701.399,224.357C701.037,237.245 701.073,237.182 697.053,232.108C695.316,229.914 690.278,225.056 685.856,221.312C681.435,217.567 673.464,210.785 668.144,206.24C662.824,201.695 655.177,195.444 651.151,192.35C647.126,189.255 643.127,185.647 642.266,184.332C639.974,180.833 639.489,182.143 639.303,192.338C637.918,268.323 636.34,281.733 626.339,302.498C622.834,309.777 621.591,316.406 624.435,312.651C625.846,310.789 627.97,311.149 627.97,313.251C627.97,315.053 645.366,331.005 646.306,330.065C647.87,328.501 639.064,318.293 630.015,311.181L627.56,309.252L629.394,303.377C633.359,290.677 633.671,290.548 640.545,298.752C643.195,301.914 646.062,305.203 646.917,306.06C647.771,306.917 652.712,312.429 657.897,318.31C663.081,324.19 667.694,329.002 668.147,329.002C672.299,329.002 658.98,312.419 641.533,295.865C635.397,290.044 634.703,289.028 635.886,287.602C637.318,285.878 639.97,287.032 639.97,289.38C639.97,291.206 673.821,325.212 674.946,324.516C677.238,323.1 675.174,320.567 656.956,302.43L637.946,283.49L638.536,278.99C638.859,276.515 639.308,273.909 639.534,273.199C640.205,271.084 654.276,283.47 675.182,304.578C685.793,315.291 696.148,325.218 698.193,326.638C702.69,329.76 703.016,330.756 702.151,338.721L701.471,344.951L678.971,345.471C666.596,345.756 643.421,346.708 627.471,347.586C579.291,350.239 579.224,350.239 573.319,347.704L573.35,347.71ZM616,333.33C616,332.32 612.81,329 611.85,329C610.599,329 610.825,331.42 612.205,332.8C613.492,334.087 616.005,334.436 616.005,333.329L616,333.33ZM593,331C594.828,329.57 595.07,329.039 593.899,329.022C591.846,328.994 585.787,331.012 584.55,332.136C582.551,333.954 590.609,332.87 593,331L593,331ZM579.764,329.123C583.905,327.031 589.398,325.873 594.019,326.118C600.875,326.482 604.802,322.947 607.482,314C608.107,311.914 607.756,312.111 605.366,315.182C601.679,319.92 594.213,323.693 586.001,324.969C582.425,325.524 578.319,326.25 576.876,326.582C570.911,327.953 564.728,315.899 564.162,301.795C563.942,296.415 563.432,292.005 563.022,292.005C561.334,292.005 560.066,302.994 561.089,308.754C562.516,316.784 562.74,317.386 565.79,321.383C567.28,323.337 569.309,326.077 570.297,327.471C572.178,330.124 576.347,330.854 579.764,329.128L579.764,329.123ZM633.004,327.723C633.004,325.257 622.139,315.473 620.841,316.77C619.936,317.675 620.573,318.754 623.583,321.416C625.739,323.323 628.404,325.765 629.504,326.843C631.894,329.186 633.004,329.465 633.004,327.723L633.004,327.723ZM617.51,324.001C620.184,321.047 618.752,320.582 616.001,323.511C614.711,324.884 614.115,326.007 614.675,326.007C615.236,326.007 616.512,325.104 617.51,324.001L617.51,324.001ZM585.759,319.586C586.069,319.266 583.309,319.006 579.609,319.006C575.148,319.006 573.103,319.361 573.535,320.06C574.192,321.124 584.623,320.717 585.756,319.584L585.759,319.586ZM520.249,291.366C527.823,290.488 525.752,289.015 516.749,288.876C512.212,288.805 507.599,288.616 506.499,288.454C505.399,288.292 499.774,287.882 493.999,287.544C481.251,286.796 462.818,284.491 453.999,282.541C436.465,278.665 423.1,275.538 408.705,271.945C393.517,268.154 386.893,267.02 391.499,268.997C397.923,271.756 411.401,276.329 419.802,278.599C425.136,280.04 431.749,281.833 434.499,282.583C454.94,288.157 459.753,289.122 471.999,290.109C479.424,290.707 489.774,291.546 494.999,291.973C504.077,292.716 509.774,292.579 520.249,291.366L520.249,291.366ZM436.999,291.246C436.999,290.829 430.362,289.439 422.249,288.157C414.137,286.874 403.259,284.968 398.076,283.921C392.893,282.873 388.394,282.275 388.078,282.592C385.768,284.901 400.155,288.634 414.5,289.448C419.45,289.728 424.85,290.379 426.5,290.895C430.194,292.048 437,292.276 437,291.246L436.999,291.246ZM317.049,282.619C313.216,273.174 316.255,272.387 324.336,280.729C330.498,287.09 333.003,287.375 327.997,281.146C326.233,278.951 325.084,276.68 325.442,276.1C325.801,275.519 325.616,274.15 325.031,273.057C323.971,271.087 324.661,263.007 325.881,263.007C326.227,263.007 327.079,264.293 327.774,265.865C329.287,269.283 335.575,276.723 336.332,275.99C336.625,275.705 333.295,268.341 328.932,259.625C324.572,250.905 321.002,243.155 321.002,242.395C321.002,240.105 322.598,240.829 323.913,243.715C327.597,251.799 339.256,267.088 340.664,265.68C340.82,265.524 338.035,259.693 334.475,252.722C330.915,245.742 328.005,239.402 328.005,238.632C328.005,235.688 330.732,236.212 332.278,239.454C335.68,246.588 349.432,264.913 350.547,263.798C351.206,263.139 347.547,255.392 345.438,252.983C341.658,248.663 336.008,232.003 338.318,232.003C340.652,232.003 342.394,234.16 348.641,244.785C353.583,253.189 362.006,263.777 362.006,261.585C362.006,261.18 359.607,256.496 356.675,251.176C343.536,227.338 343.534,227.231 356.006,221.334C356.831,220.944 359.847,219.135 362.708,217.314C365.569,215.493 368.204,214.003 368.564,214.003C368.923,214.003 370.496,212.99 372.058,211.753C373.62,210.515 377.285,207.978 380.202,206.113C400.866,192.907 399.482,168.763 377.756,163.457C374.235,162.597 374.05,164.61 377.506,166.184C381.591,168.046 380.455,168.502 371.744,168.502C361.901,168.502 354.048,172.336 348.714,179.745C345.28,184.515 345.805,186.777 349.437,182.861C354.314,177.601 367.478,170.853 372.197,171.193L376.507,171.503L368.007,176.373C363.332,179.05 357.932,182.134 356.007,183.224C354.082,184.315 351.736,185.891 350.794,186.727C349.852,187.563 348.39,187.981 347.544,187.657C344.454,186.471 346.534,192.256 351.044,197.393C354.419,201.237 356.007,201.923 356.007,199.535C356.007,198.726 358.37,196.487 361.257,194.557C364.145,192.627 369.432,189.024 373.007,186.549C380.022,181.693 383.007,180.887 383.007,183.849C383.007,186.45 379.676,189.047 361.387,200.702C359.87,201.669 359.768,202.078 360.859,202.824C363.004,204.29 368.871,202.446 371.108,199.603C372.232,198.173 373.701,197.004 374.371,197.004C381.662,197.004 387.669,182.658 382.911,176.609C379.238,171.939 382.468,168.989 386.817,173.041C396.813,182.354 388.326,205.282 374.791,205.53C373.848,205.548 371.823,206.718 370.291,208.132C368.76,209.546 363.231,213.097 358.006,216.024C352.781,218.951 346.706,222.522 344.506,223.96C342.306,225.398 339.606,227.103 338.506,227.748C337.406,228.394 333.645,230.628 330.147,232.712C319.869,238.839 319.599,238.973 317.456,238.988C314.994,239.006 313.006,240.804 313.006,243.015C313.006,244.354 311.78,244.617 305.756,244.571C282.854,244.398 272.323,259.221 284.73,274.17C285.344,274.91 286.14,276.687 286.5,278.12C288.014,284.153 295.338,290.451 294.794,285.253C294.322,280.738 299.029,280.855 302.531,285.446C306.014,290.013 308.528,290.355 306.337,285.965C302.863,279 306.241,278.389 312.683,284.816C318.572,290.691 320.032,289.957 317.053,282.619L317.049,282.619ZM350.669,194.337C348.495,192.163 351.344,189.939 371.167,178.339C381.528,172.275 385.558,174.742 375.753,181.145C372.865,183.03 367.073,186.92 362.882,189.788C355.779,194.649 352.284,195.951 350.67,194.337L350.669,194.337ZM540.999,279.897C544.574,279.337 549.422,278.622 551.772,278.308C561.36,277.029 557.12,275.738 545.393,276.367C505.719,278.495 487.687,277.065 439.503,267.973C420.943,264.472 412.548,263.003 411.503,263.075C409.647,263.203 418.421,266.05 426.992,268.1C431.673,269.22 439.103,271.192 443.503,272.483C452.915,275.246 469.867,278.034 494.503,280.874C502.562,281.802 532.905,281.165 541.003,279.896L540.999,279.897ZM366.439,265.947C363.966,263.214 363.362,264.392 365.535,267.709C366.673,269.446 367.503,269.992 367.773,269.182C368.009,268.474 367.409,267.018 366.439,265.947L366.439,265.947ZM555.089,266.006C564.257,263.305 566.572,261.47 559.494,262.515C542.939,264.959 505.098,264.472 486.494,261.576C480.994,260.72 471.319,259.302 464.994,258.425C458.669,257.549 447.869,255.795 440.994,254.529C429.462,252.404 426.846,252.196 428.154,253.504C428.936,254.285 451.778,259.763 459.494,261.019C463.344,261.646 473.244,263.488 481.494,265.112C507.186,270.17 539.619,270.564 555.089,266.006L555.089,266.006ZM545.499,256.586C553.865,254.98 564.128,252.032 565.449,250.855C566.713,249.73 563.516,249.81 558.499,251.029C547.009,253.82 520.357,255.096 505.486,253.565C502.743,253.283 495.549,252.568 489.499,251.977C483.449,251.386 472.729,249.576 465.677,247.956C452.157,244.849 449.993,244.545 450.008,245.759C450.032,247.64 470.182,252.343 495.499,256.376C507.202,258.241 536.245,258.362 545.499,256.585L545.499,256.586ZM373.569,249.256C374.605,247.854 375.114,247.754 376.129,248.756C379.365,251.948 385.228,249.948 392.412,243.201C398.68,237.315 398.206,235.998 391.72,241.28C385.492,246.353 380.35,248.76 378.88,247.29C378.207,246.617 378.856,245.496 380.845,243.895C392.735,234.325 396.995,230.625 396.995,229.875C396.995,228.564 395.772,228.83 392.918,230.762C381.428,238.539 374.338,243.006 373.486,243.007C372.931,243.007 371.914,243.907 371.227,245.007C368.929,248.687 360.849,241.913 359.401,235.091C357.504,226.156 352.692,222.476 353.614,230.667C354.411,237.746 362.95,249.554 367.809,250.297C369.286,250.523 370.895,250.775 371.385,250.857C371.874,250.94 372.856,250.22 373.567,249.257L373.569,249.256ZM548.999,243.216C559.362,239.994 575.999,232.519 575.999,231.086C575.999,230.593 570.937,231.975 564.749,234.159C542.541,241.995 537.161,243.098 518.606,243.615C500.168,244.128 497.596,243.794 478.147,238.357C462.284,233.922 460.838,234.488 474.397,239.824C495.273,248.039 528.611,249.556 548.999,243.216L548.999,243.216ZM541.708,237.432C555.276,235.092 566.896,230.142 575.744,222.931C583.088,216.946 581.964,217.099 568.388,223.931C545.119,235.642 535.769,237.036 506.999,233.089C499.574,232.07 493.324,231.396 493.11,231.591C491.723,232.857 516.55,237.97 524.19,237.992C526.22,237.998 528.184,238.491 528.553,239.089C528.926,239.693 530.175,239.881 531.362,239.512C532.538,239.146 537.193,238.21 541.708,237.432L541.708,237.432ZM272.878,228.294C271.023,224.559 269.354,221.165 269.169,220.753C268.036,218.226 273.114,220.532 274.735,223.279C277.186,227.433 282.925,234.002 284.103,234.002C285.815,234.002 284.976,229.48 282.526,225.502C279.427,220.471 279.426,220.002 282.514,220.002C284.198,220.002 285.602,220.936 286.764,222.829C293.602,233.965 297.571,234.624 292.033,223.703C289.41,218.53 289.276,217.847 290.796,217.38C291.733,217.092 293.281,216.439 294.236,215.929C296.641,214.645 296.675,214.665 297.356,217.752C298.039,220.849 303.504,227.831 304.48,226.855C304.829,226.506 303.964,222.696 302.557,218.389C301.147,214.089 299.997,209.289 299.997,207.719C299.997,206.155 299.519,203.982 298.934,202.89C298.35,201.797 298.028,199.915 298.22,198.705C298.493,196.98 299.265,197.856 301.804,202.772C303.584,206.217 306.56,211.412 308.418,214.315C314.043,223.108 317.254,224.405 313.128,216.217C311.498,212.977 304.998,194.077 304.998,192.567C304.998,190.644 307.066,192.718 309.37,196.951C313.121,203.844 321.318,214.551 321.78,213.163C321.991,212.53 321.26,210.549 320.156,208.761C316.925,203.525 311.029,188.092 311.646,186.485C312.585,184.037 313.698,184.779 316.438,189.681C319.977,196.014 329.3,208.973 330.331,208.993C330.789,209.002 330.992,208.672 330.783,208.259C321.725,190.451 319.235,183.633 321.008,181.496C323.449,178.555 325.568,179.84 328.402,185.978C330.632,190.809 335.978,199.656 340.187,205.48C342.428,208.581 341.661,204.285 339.05,199.112C334.866,190.825 331.782,182.366 332.183,180.282C332.388,179.219 333.915,181.224 336.183,185.535C339.442,191.729 345.997,199.752 345.997,197.545C345.997,197.084 344.882,194.413 343.519,191.608C337.539,179.299 337.908,165.171 344.017,172.532C345.606,174.447 346.393,173.701 346.451,170.22C346.478,168.65 347.007,167.608 347.709,167.745C348.376,167.876 350.129,166.863 351.605,165.495C353.081,164.127 354.827,163.008 355.484,163.008C357.777,163.008 368.635,150.563 370.405,145.907C375.384,132.812 359.271,114.855 342.712,115.044C335.719,115.124 313.428,121.379 307.31,124.978C301.696,128.28 277.731,135.841 272.496,135.961C270.846,135.998 267.287,136.699 264.588,137.518C255.664,140.225 245.504,139.521 237.469,135.639C230.399,132.219 219.999,124.629 219.999,122.879C219.999,122.353 219.101,120.704 218.003,119.214C216.133,116.673 214.576,111.871 211.518,99.208C210.815,96.295 210.017,93.689 209.744,93.416C208.365,92.037 197.613,105.154 193.861,112.794C189.454,121.766 189.452,121.8 192.512,134.004C193.408,137.579 194.091,142.191 194.03,144.253C193.968,146.315 194.402,148.565 194.993,149.253C195.584,149.941 196.727,151.404 197.533,152.504C198.856,154.308 198.937,153.842 198.361,147.754C197.593,139.629 198.1,139.367 201.266,146.254C207.273,159.319 213.242,166.233 212.272,159.004C211.9,156.228 212.109,155.004 212.957,155.004C214.265,155.004 217.91,158.922 217.966,160.386C217.984,160.871 218.956,162.817 220.126,164.709C222.605,168.721 224.662,167.878 223.008,163.528C220.471,156.854 226.563,159.948 231.641,167.913C235.943,174.659 237.615,175.633 236.518,170.754C236.116,168.967 235.546,166.433 235.252,165.124C234.123,160.109 237.329,163.099 245.437,174.624C247.796,177.978 248.594,176.336 246.98,171.446C245.277,166.286 250.843,165.603 252.685,170.745C253.172,172.103 257.364,178.481 260.687,182.92C262.709,185.621 261.436,176.52 258.906,170.186C256.583,164.37 263.231,168.129 266.971,174.747C272.128,183.871 273.378,181.168 270.436,167.254C269.461,162.64 271.092,163.23 273.89,168.504C277.852,175.973 278.897,174.913 275.955,166.41C273.155,158.318 268.981,140.842 269.606,139.83C270.748,137.983 271.96,139.324 274.965,145.754C284.333,165.802 292.038,176.257 285.019,159.397C279.596,146.371 277.641,129.624 282.942,141.607C284.073,144.165 284.999,146.459 284.999,146.706C284.999,147.133 292.908,161.048 293.646,161.92C294.888,163.386 294.772,160.704 293.458,157.56C290.228,149.829 287.191,136.088 288.477,135.021C290.091,133.681 290.248,133.892 295.445,144.384C302.87,159.377 306.058,161.657 301.662,148.832C297.676,137.202 296.928,127.707 300.71,136.753C301.793,139.343 309.798,154.019 310.619,154.92C312.078,156.521 311.628,153.263 309.543,147.132C306.731,138.866 305.869,130.935 307.712,130.288C308.403,130.045 309.189,131.077 309.538,132.683C311.433,141.403 314.415,149.071 317.573,153.345C322.649,160.213 322.883,158.466 318.181,148.808C313.445,139.079 311.92,127.887 315.238,127.214C316.339,126.99 317.407,127.804 318.149,129.432C319.771,132.993 320.999,132.646 320.999,128.626C320.999,124.931 322.182,123.543 325.999,122.758C327.374,122.476 331.199,121.508 334.499,120.608C349.897,116.408 365.421,125.301 367.557,139.544C368.614,146.591 358.86,159.575 351.045,161.524C349.645,161.873 347.813,162.777 346.975,163.531C343.746,166.439 296.251,190.969 293.722,191.035C293.049,191.053 293.374,191.729 294.445,192.539C295.816,193.576 296.078,194.324 295.33,195.072C294.583,195.819 293.834,195.696 292.793,194.656C291.846,193.708 287.41,192.777 280.407,192.055C274.407,191.437 265.451,189.868 260.504,188.568C250.45,185.926 248.991,186.201 243.733,191.735C238.214,197.543 237.985,204.073 242.956,213.938C248.588,225.114 252.234,230.797 252.76,229.218C252.995,228.515 252.543,226.942 251.757,225.722C250.146,223.223 247.652,214.017 248.387,213.282C249.368,212.301 250.999,214.256 255.999,222.41C264.642,236.505 268.237,238.716 262.57,226.453C260.468,221.902 259.535,218.79 260.157,218.405C261.363,217.66 261.362,217.659 267.324,226.181C275.737,238.206 278.276,239.173 272.876,228.295L272.878,228.294ZM423.998,233.074C423.998,231.908 420.075,230.596 419.201,231.47C418.452,232.22 420.912,233.969 422.748,233.992C423.435,234 423.998,233.587 423.998,233.074ZM448.087,220.614C446.586,218.806 441.123,216.548 440.282,217.389C439.233,218.438 441.548,220.159 445.155,221.012C446.993,221.446 448.665,221.848 448.87,221.904C449.075,221.961 448.722,221.38 448.087,220.614L448.087,220.614ZM568.737,217.02C576.892,211.574 583.969,205.101 581.827,205.048C580.91,205.025 580.01,205.388 579.827,205.855C579.643,206.322 577.874,207.784 575.894,209.105C565.321,216.16 562.002,218.625 561.553,219.757C560.717,221.862 562.507,221.179 568.737,217.02L568.737,217.02ZM467.496,214.96C461.017,211.866 458.996,211.409 458.996,213.037C458.996,214.533 466.957,217.858 470.496,217.84C473.143,217.826 472.789,217.486 467.496,214.96ZM569.387,204.561C579.108,196.477 585.979,188.655 585.994,185.654C586,184.473 576.912,192.143 568.173,200.696C558.216,210.44 559.065,213.144 569.386,204.561L569.387,204.561ZM565.997,197.221C571.896,191.921 583.896,174.001 581.536,174.001C580.792,174.001 575.65,179.625 570.112,186.5C554.432,205.95 553.472,208.45 565.992,197.22L565.997,197.221ZM555.097,191.501C559.602,187.101 565.317,180.351 567.795,176.501C570.274,172.651 573.955,167.251 575.976,164.501C581.254,157.319 587.227,146.263 586.18,145.615C585.689,145.311 580.608,151.383 574.891,159.11C569.174,166.835 562.695,175.335 560.495,177.998C555.273,184.317 544.995,198.547 544.995,199.457C544.995,200.953 547.175,199.237 555.096,191.5L555.097,191.501ZM546.809,180.47C554.701,172.223 561.189,163.672 566.889,154.001C568.672,150.976 572.343,145.126 575.047,141.001C585.714,124.727 585.866,120.777 575.275,135.054C571.39,140.291 567.488,145.177 566.603,145.911C565.719,146.645 564.995,147.618 564.995,148.072C564.995,148.932 549.906,169.789 542.981,178.501C540.795,181.251 537.588,185.478 535.854,187.894L532.702,192.287L535.912,190.394C537.678,189.353 542.582,184.887 546.808,180.471L546.809,180.47ZM521.132,174.323C524.232,171.12 527.832,166.878 529.132,164.896C534.257,157.08 537.677,152.19 543.051,145C546.134,140.875 550.604,134.125 552.986,130C555.368,125.875 559.882,118.225 563.018,113C569.974,101.411 574.3,92.972 573.628,92.3C572.62,91.292 570.839,93.331 564.445,102.815C557.755,112.738 539.871,138.732 535.421,145C534.054,146.925 531.837,150.075 530.494,152C529.151,153.925 526.801,157.27 525.273,159.434C508.67,182.937 507.009,188.91 521.131,174.323L521.132,174.323ZM534.167,176.25C543.746,166.431 556.448,149.171 565.629,133.5C578.98,110.71 579.663,109.282 576.746,110.247C575.289,110.729 573.057,113.783 561.044,131.73C556.173,139.007 549.347,148.682 545.874,153.23C528.874,175.51 526.004,179.47 526.004,180.69C526.004,183.333 528.695,181.872 534.176,176.254L534.167,176.25ZM507.121,170.25C529.261,147.62 571.801,85 565.051,85C564.02,85 562.53,87.08 550.009,106C535.991,127.182 521.566,146.789 502.787,170.189C498.51,175.518 495.011,180.131 495.011,180.439C495.011,182.166 497.672,179.931 507.137,170.25L507.121,170.25ZM640.611,174.25C640.302,172.188 639.762,168.363 639.409,165.75C638.36,157.962 636.64,160.013 637.438,168.103C638.221,176.055 638.762,178 640.191,178C640.758,178 640.935,176.416 640.611,174.25L640.611,174.25ZM499.111,162.45C507.645,153.465 523.219,134.044 527.513,127.033C528.063,126.135 530.859,122.455 533.727,118.855C545.423,104.172 562.134,70.463 556.842,72.227C556.199,72.441 553.836,75.559 551.592,79.155C539.279,98.888 530.761,112.288 528.294,115.81C514.296,135.789 505.237,148.073 495.95,159.672C480.178,179.37 481.739,180.742 499.111,162.451L499.111,162.45ZM488.181,159.25C502.251,143.1 523.011,114.02 523.011,110.46C523.011,110.064 524.762,107.175 526.903,104.039C535.203,91.891 546.213,66.963 543.263,67.011C542.213,67.029 528.013,90.007 528.013,91.686C528.013,91.906 524.25,97.804 519.651,104.793C515.053,111.781 506.686,124.699 501.059,133.499C495.433,142.299 489.768,150.47 488.473,151.656C487.177,152.842 485.404,155.317 484.533,157.156C483.662,158.994 481.856,162.411 480.52,164.749C476.694,171.445 479.003,169.787 488.183,159.249L488.181,159.25ZM475.164,157.432C476.388,155.819 480.138,151.35 483.497,147.5C495.194,134.092 505.668,120.45 509.985,113C512.375,108.875 515.586,103.652 517.121,101.393C521.441,95.034 527.501,83.079 529.488,77C530.476,73.975 532.124,69.831 533.148,67.79C535.408,63.301 535.488,62.002 533.518,62.002C532.693,62.002 532.018,62.371 532.018,62.822C532.018,63.273 529.504,67.436 526.431,72.072C523.358,76.709 520.444,81.514 519.956,82.752C519.467,83.99 518.592,85.002 518.012,85.002C516.002,85.002 515.839,82.062 517.694,79.288C523.045,71.282 528.633,56.978 526.393,57.018C525.912,57.026 523.493,59.982 521.018,63.587C513.174,75.011 513.082,75.107 511.027,74.007C509.241,73.051 509.25,72.868 511.282,68.759C517.692,55.798 518.732,53.001 517.172,53.001C516.634,53.001 514.106,55.926 511.555,59.501C505.879,67.455 499.619,69.118 504.732,61.313C508.829,55.062 512.591,40.737 508.737,46.068C503.867,52.796 500.437,57.001 499.807,57.001C498.446,57.001 498.938,51.483 500.481,49.442C504.675,43.898 501.693,42.704 497.04,48.065C491.77,54.137 488.737,51.989 491.548,44.174C493.804,37.899 492.77,36.406 489.186,40.767C485.193,45.625 479.944,43.853 483.23,38.756C487.28,32.475 485.745,30.12 480.944,35.251L477.903,38.501L478.538,35.251C479.281,31.444 478.818,31.292 474.92,34.067C472.329,35.913 471.645,35.998 468.516,34.866C465.096,33.628 464.016,31.739 466.016,30.501C467.666,29.482 467.146,28.001 465.138,28.001C464.105,28.001 462.642,28.93 461.888,30.065C460.348,32.381 451.32,30.958 450.276,28.235C449.915,27.296 449.431,27.242 448.476,28.035C447.604,28.758 445.561,28.833 442.343,28.26C431.2,26.274 404.439,28.849 388.517,33.439C374.526,37.472 364.05,40.868 359.898,42.716C357.357,43.847 351.957,45.316 347.898,45.981C330.365,48.85 322.804,51.139 311.517,56.995C304.85,60.454 292.449,65.723 278.78,70.904C276.336,71.83 276.149,72.22 277.034,74.547C277.748,76.425 277.582,79.018 276.439,83.827C275.567,87.498 274.752,91.742 274.627,93.259C273.956,101.417 246.45,107.724 230.476,103.381C220.206,100.589 220.015,100.575 220.025,102.635C220.038,105.153 225.185,113.927 228.409,116.926C231.684,119.971 231.686,119.07 228.418,112.392C224.995,105.395 225.824,103.409 229.773,109.148C233.699,114.854 240.266,120.751 240.825,119.073C241.048,118.402 239.788,116.057 238.023,113.861C231.739,106.041 235.152,107.204 245.456,116.394C252.969,123.095 255.06,123.202 249.657,116.608C242.832,108.279 247.085,108.856 256.516,117.539C260.366,121.083 264.063,123.988 264.732,123.992C266.106,124.002 261.331,116.502 258.102,113.579C256.962,112.539 256.022,111.079 256.022,110.349C256.022,107.523 259.351,109.239 266.022,115.504C276.061,124.933 277.705,124.518 270.472,114.381C265.123,106.885 267.099,104.99 272.922,112.031C279.237,119.665 283.144,119.924 278.145,112.377C272.406,103.712 275.299,103.499 283.201,112.004C288.391,117.592 291.022,119.298 291.022,117.076C291.022,116.565 290.445,115.553 289.739,114.826C289.032,114.099 287.23,111.395 285.733,108.817C281.6,101.699 284.242,101.867 291.004,109.151C298.024,116.713 299.511,116.262 295.128,107.899C291.783,101.518 291.784,98.681 295.129,103.004C302.057,111.959 304.512,112.553 299.856,104.147L296.611,98.29L299.463,95.647C301.033,94.186 302.423,92.997 302.553,92.997C302.685,92.997 304.619,96.071 306.851,99.829C314.212,112.218 316.981,112.282 311.554,99.936C307.732,91.244 307.081,85.742 310.595,91.835C318.152,104.935 321.447,106.411 316.54,94.497C311.432,82.098 314.092,79.764 319.921,91.529C323.845,99.448 327.024,102.894 325.656,97.747C322.348,85.297 321.623,78.966 323.314,77.275C324.824,75.764 325.024,75.751 325.024,77.158C325.024,78.792 329.128,88.933 331.232,92.497C331.881,93.597 332.701,96.297 333.054,98.497C334.745,109.039 335.144,97.695 333.51,85.532C331.815,72.909 331.972,67.507 333.976,69.579C335.091,70.732 340.238,89.043 341.472,96.246C342.473,102.089 344.133,100.779 343.42,94.709C342.36,85.736 342.44,62.539 343.52,61.997C344.074,61.721 344.618,63.059 344.741,64.997C347.094,102.251 349.145,106.891 350.618,78.286C351.652,58.195 354.123,60.48 355.845,83.12C357.652,106.892 358.295,106.391 361.993,78.324C362.979,70.844 363.424,70.029 366.133,70.737C368.095,71.25 368.195,71.723 367.533,77.393C365.441,95.326 365.355,106.937 367.35,101.997C368.231,99.816 372.111,85.248 373.209,79.997C375.877,67.237 377.252,71.608 375.82,88.297C374.537,103.24 375.576,108.522 377.984,99.302C382.001,83.921 385.617,75.504 388.348,75.181C391.462,74.813 391.459,74.804 389.581,78.594C388.061,81.662 384.588,104.276 385.325,106.306C385.786,107.577 386.666,105.76 389.83,96.998C394.837,83.134 397.701,76.604 398.959,76.185C399.967,75.849 400.15,76.353 399.662,78.114C399.302,79.426 397.882,86.124 396.522,92.999C395.155,99.874 393.781,106.59 393.469,107.924C392.733,111.059 395.575,109.018 396.621,105.659C396.991,104.471 398.528,100.799 400.037,97.499C401.545,94.199 404.231,87.899 406.005,83.499C411.338,70.271 414.471,70.038 409.789,83.217C408.159,87.772 406.629,92.624 406.379,93.999C406.123,95.374 405.514,98.299 405.025,100.499C402.754,110.713 402.772,110.453 404.46,109.051C405.32,108.338 406.023,107.339 406.023,106.832C406.023,106.324 408.22,101.317 410.905,95.704C413.585,90.092 416.585,83.25 417.565,80.5C420.104,73.397 427.825,66.987 425.696,73.75C424.813,76.554 420.051,89.312 419.072,91.5C417.772,94.404 413.012,109.92 413.012,111.26C413.012,114.166 427.77,89.291 429.932,82.741C430.606,80.698 431.625,78.737 432.196,78.384C434.718,76.825 434.594,80.857 431.873,88.882C430.266,93.621 428.332,100.449 427.576,104.055C426.819,107.661 425.006,113.447 423.548,116.913C422.089,120.379 421.082,123.402 421.31,123.63C422.532,124.852 425.409,122.147 427.696,117.623C429.122,114.804 431.981,110.002 434.05,106.951C437.775,101.457 441.247,94.592 442.498,90.248C443.152,87.977 445.412,87.219 446.462,88.918C446.775,89.424 445.159,93.812 442.872,98.668C438.263,108.451 429.826,130.145 430.404,130.723C430.607,130.926 432.604,128.259 434.842,124.795C437.08,121.332 442.083,113.807 445.961,108.074C449.841,102.344 453.011,97.285 453.011,96.83C453.011,96.376 453.691,96.004 454.511,96.004C457.005,96.004 456.378,97.661 446.511,117.158C431.998,145.835 436.057,143.257 458.17,109.754C462.957,102.501 465.011,100.504 465.011,103.102C465.011,103.706 462.612,108.094 459.68,112.852C446.751,133.836 441.107,146.432 449.565,135.429C471.436,106.976 473.844,104.307 475.389,106.806C475.662,107.248 473.917,110.437 471.511,113.894C460.79,129.299 445.831,156.354 451.858,149.438C464.788,134.6 477.357,119.686 480.318,115.669C483.914,110.79 487.012,108.585 487.012,110.906C487.012,111.483 484.199,116.128 480.762,121.229C463.526,146.806 454.868,161.895 461.417,154.944C466.175,149.893 487.362,125.371 491.512,120.11C500.043,109.296 500.559,108.768 502.205,109.14C503.421,109.415 501.244,113.36 493.159,125.53C472.574,156.517 468.178,163.699 471.018,161.711C472.075,160.971 473.941,159.047 475.165,157.434L475.164,157.432ZM349.534,153.989C364.091,147.357 363.937,132.309 349.247,125.916C341.839,122.692 336.322,123.764 327.107,130.218C311.243,141.33 331.106,162.383 349.533,153.988L349.534,153.989ZM342.014,152.109C342.014,151.618 343.139,150.935 344.514,150.59C345.889,150.245 347.014,149.468 347.014,148.865C347.014,148.203 346.12,148.022 344.764,148.408C338.913,150.074 336.712,150.298 337.417,149.157C337.81,148.521 338.794,148 339.603,148C340.412,148 343.648,146.936 346.794,145.634C353.845,142.717 358.014,141.681 358.014,142.845C358.014,144.11 353.036,148.968 349.514,151.142C346.377,153.078 342.014,153.64 342.014,152.109L342.014,152.109ZM326.517,147.005C326.178,146.457 327.164,145.507 328.708,144.894C330.251,144.28 333.539,142.959 336.014,141.958C342.834,139.198 354.464,134.998 355.284,134.998C357.151,134.998 355.802,138.815 353.763,139.302C352.526,139.598 346.681,141.676 340.776,143.919C329.503,148.201 327.521,148.63 326.515,147.002L326.517,147.005ZM325.461,140.915C324.944,140.078 334.529,135.196 340.014,133.503C341.389,133.078 343.402,132.117 344.487,131.366C345.572,130.615 347.709,130 349.237,130C352.906,130 352.933,132.732 349.272,133.651C347.764,134.029 343.827,135.421 340.522,136.744C331.23,140.465 326.067,141.895 325.461,140.915ZM328.284,132.674C328.723,131.34 342.047,125.7 342.854,126.507C343.895,127.548 341.109,129.232 334.561,131.52C330.447,132.957 328.046,133.399 328.284,132.674L328.284,132.674ZM252.664,99.375C260.284,97.805 271.166,93.186 272.561,90.929C274.053,88.516 271.299,88.044 266.472,89.886C258.538,92.915 238.584,97.307 236.199,96.551C232.298,95.312 231.514,97.177 235.126,99.101C239.375,101.365 242.751,101.418 252.665,99.375L252.664,99.375ZM233.754,94.553C238.814,92.621 251.464,89.307 257.024,88.457C265.024,87.236 272.124,82.994 266.174,82.994C264.525,82.994 238.498,89.44 230.342,91.868C227.986,92.569 226.689,92.457 225.342,91.436C223.312,89.901 220.022,89.531 220.022,90.839C220.022,94.801 227.682,96.873 233.752,94.554L233.754,94.553ZM228.024,86.559C231.049,85.809 236.224,84.468 239.524,83.579C242.824,82.69 248.449,81.509 252.024,80.955C259.867,79.738 269.024,77.024 269.024,75.916C269.024,73.572 267.114,73.852 241.524,79.952C232.724,82.05 223.836,84.063 221.774,84.425C219.462,84.832 218.024,85.642 218.024,86.539C218.024,88.344 220.804,88.349 228.024,86.559L228.024,86.559ZM92.844,43.811C93.079,32.863 93.422,30.271 94.773,29.24C97.265,27.338 98.189,29.047 99.058,37.169C99.915,45.169 101.67,54.613 102.571,56.071C105.098,60.161 105.542,51.132 103.749,32.095C103.508,29.541 105.75,27.917 106.42,30.161C106.638,30.894 107.81,35.319 109.023,39.994C111.428,49.263 114.989,57.994 116.364,57.994C117.14,57.994 116.743,37.533 115.87,32.494C114.663,25.532 118.686,31.437 120.233,38.899C124.363,58.819 127.15,60.045 127.183,41.958C127.203,33.332 127.493,30.994 128.573,30.994C130.273,30.994 132.023,34.1 132.023,37.114C132.023,39.961 134.947,51.871 136.268,54.404C138.146,58.004 139.394,53.171 139.21,43.011C138.972,29.854 143.404,26.034 144.563,38.397C145.113,44.264 148.783,56.993 149.923,56.993C150.703,56.993 151.595,51.476 152.914,38.493C153.529,32.442 155.259,30.369 155.835,34.993C158.045,52.715 163.025,57.863 163.025,42.423C163.025,31.862 166.745,26.113 167.835,34.993C168.31,38.873 172.206,54.287 173.205,56.243C175.481,60.699 176.228,57.713 175.882,45.544C175.639,36.984 175.892,32.731 176.691,31.931C178.346,30.276 179.768,31.503 180.543,35.255C183.339,48.8 186.889,55.984 187.237,48.803C187.352,46.433 187.522,42.919 187.615,40.994C187.708,39.069 187.839,35.807 187.906,33.744C188.067,28.803 190.369,28.803 191.777,33.744C193.887,41.144 195.184,47.933 194.653,48.793C193.935,49.954 196.93,54.173 198.001,53.511C198.461,53.227 198.892,47.717 198.959,41.268C199.027,34.818 199.501,29.122 200.013,28.61C201.753,26.86 204.023,30.071 204.023,34.297C204.023,38.969 207.853,53.993 209.043,53.993C210.104,53.993 211.431,35.842 210.568,33.124C209.698,30.397 210.758,26.993 212.478,26.993C213.34,26.993 214.212,29.369 214.957,33.743C218.548,54.844 221.162,56.683 222.328,38.932C222.775,32.111 223.345,26.328 223.594,26.079C224.774,24.899 226.26,28.352 227.054,34.126C228.417,44.023 231.108,53.192 232.818,53.762C233.708,54.057 234.018,50.762 234.018,40.993C234.018,25.81 235.344,24.138 238.317,35.573C244.107,57.839 245.335,59.643 246.034,46.906C246.318,41.728 246.256,36.044 245.896,34.272C245.452,32.086 245.683,30.684 246.617,29.91C248.636,28.234 250.879,29.51 251.519,32.699C252.89,39.531 258.347,55.063 259.108,54.301C259.571,53.838 260.078,48.067 260.234,41.476C260.576,27.045 262.176,25.397 265.072,36.492C270.448,57.087 272.802,57.289 272.96,37.169C273.01,30.87 273.252,29.891 274.696,30.169C276.903,30.594 278.08,35.261 277.34,40.659C276.94,43.576 277.12,44.993 277.88,44.993C278.51,44.993 279.02,44.516 279.02,43.934C279.02,41.568 281.036,44.342 282.049,48.1C284.029,55.454 285.513,52.239 285.598,40.409C285.689,27.886 286.579,26.781 289.156,35.993C293.687,52.19 296.143,53.374 295.773,39.182C295.429,26.025 298.752,24.737 302.71,36.493C304.007,40.343 305.947,44.618 307.021,45.993L308.975,48.493L308.998,38.743C309.026,26.426 311.289,24.982 314.927,34.96C317.926,43.184 319.02,43.375 319.02,35.675C319.02,27.053 323.394,23.592 325.916,30.217C330.331,41.818 331.805,42.068 331.95,31.243C332.04,24.52 335.1,23.625 337.076,29.743C337.742,31.806 339.015,34.843 339.904,36.493L341.514,39.493L342.014,31.993C342.659,22.318 345.648,20.661 348.074,28.634C349.964,34.846 352.589,35.995 351.664,30.206C350.483,22.823 354.423,20.017 357.53,26.026C359.377,29.596 361.014,29.083 361.014,24.934C361.014,21.564 364.647,20.626 365.626,23.743C367.708,30.368 368.198,30.741 369.392,26.614C370.932,21.288 376.553,20.374 378.228,25.178C379.468,28.735 380.751,27.793 381.192,23.001C381.574,18.852 383.554,18.119 388.167,20.42C391.994,22.329 392.014,22.33 392.014,20.63C392.014,19.16 398.834,17.492 410.014,16.226C416.939,15.442 418.362,13.285 411.629,13.776C409.493,13.932 406.343,13.602 404.629,13.044C397.729,10.796 359.599,9.676 333.009,10.94C321.184,11.501 289.459,12.219 262.509,12.535C235.559,12.851 208.559,13.444 202.509,13.853C174.141,13.902 145.468,14.84 125.819,14.797C91.352,17.146 60.699,13.775 26.743,24.133C15.224,30.298 12.305,35.447 16.348,42.473C17.361,44.234 17.55,43.856 17.824,39.511C18.313,31.759 22.252,31.304 23.618,38.842C25.58,49.675 28.97,53.034 28.564,43.742C28.184,35.083 31.103,30.659 32.522,37.742C35.428,52.248 38.45,55.598 38.611,44.492C38.74,35.57 38.749,35.531 40.38,36.884C41.134,37.51 41.98,39.734 42.261,41.827C42.954,46.996 47.043,57.992 48.272,57.992C48.898,57.992 49.098,53.921 48.813,46.992C48.284,34.161 49.796,32.129 52.339,42.253C56.495,58.798 59.393,60.346 58.874,45.742C58.342,30.792 61.049,30.36 65.621,44.663C69.854,57.906 71.1,57.894 70.69,44.615C70.204,28.886 72.784,28.876 77.077,44.592C78.263,48.937 79.546,53.588 79.926,54.927C81.623,60.897 83.189,58.311 82.998,49.855C82.649,34.377 82.943,33.556 85.452,42.991C90.751,62.917 92.417,63.101 92.831,43.808L92.844,43.811ZM677.524,301.211C664.324,288.152 650.712,274.957 647.274,271.89C641.451,266.694 638.154,258.965 641.774,258.997C642.669,259.005 700.162,317.492 701.34,319.593C706.162,328.194 699.957,323.405 677.524,301.212L677.524,301.211ZM701.225,313.237C701.002,311.846 669.288,279.811 653.216,264.741C642.282,254.489 641.222,252.661 641.586,244.682C641.931,237.125 643.705,237.892 658.857,252.149C662.564,255.636 671.604,264.115 678.948,270.99C686.291,277.865 694.225,285.313 696.579,287.541C701.553,292.249 702.292,294.94 701.781,306.49C701.586,310.89 701.336,313.926 701.225,313.237L701.225,313.237ZM600.355,284.118C590.69,277.116 587.201,268.272 590.775,259.831C593.954,252.323 619.144,257.709 618.96,265.857C618.612,281.219 609.16,290.496 600.355,284.118L600.355,284.118ZM605.025,276.278C605.025,275.886 603.886,274.649 602.493,273.528C600.104,271.606 600.051,271.362 601.55,269.24C603.68,266.224 606.83,266.346 608.025,269.49C609.05,272.186 610.522,272.751 611.287,270.74C612.896,266.512 607.408,262.134 602.729,263.913C598.315,265.591 596.276,273.872 599.775,275.91C601.805,277.092 605.025,277.318 605.025,276.278L605.025,276.278ZM693.879,279.107C684.085,269.356 664.592,251.208 653.364,241.388C642.856,232.199 642.642,231.949 641.641,227.74C640.476,222.842 647.097,226.845 659.525,238.554C662.275,241.145 669.669,248.041 675.956,253.877C699.558,275.789 700.773,277.113 701.517,281.74C702.399,287.224 701.837,287.03 693.879,279.107L693.879,279.107ZM698.957,268.871C697.094,266.254 665.568,237.882 652.601,227.154C641.622,218.071 640.374,215.607 641.756,205.74C642.676,199.173 645.523,201.399 692.802,245.64L701.512,253.79L701.722,261.86C701.946,270.43 701.276,272.128 698.958,268.872L698.957,268.871ZM697.937,244.241C695.261,241.344 686.484,233.214 681.473,228.991C679.842,227.616 673.563,222.192 667.519,216.936C661.476,211.681 653.54,205.039 649.884,202.176C643.434,197.136 642.024,195.386 642.024,192.416C642.024,190.945 644.605,190.415 645.191,191.766C645.374,192.189 646.874,193.579 648.524,194.856C651.876,197.449 660.813,205.369 678.023,220.998C684.383,226.773 692.145,233.748 695.273,236.498C700.354,240.966 703.849,246.998 701.355,246.998C700.868,246.998 699.326,245.761 697.929,244.248L697.937,244.241ZM696.538,202.816C691.977,197.396 658.225,168.671 643.85,157.975C638.89,154.285 636.362,150.524 638.114,149.441C639.426,148.63 642.69,150.822 651.409,158.37C655.327,161.762 659.883,165.58 661.533,166.854C663.183,168.128 667.263,171.718 670.599,174.831C673.936,177.944 681.884,184.931 688.263,190.358C698.371,198.957 700.96,201.978 701.02,205.242C701.051,206.895 699.069,205.822 696.54,202.817L696.538,202.816ZM694.438,190.131C688.904,184.662 669.369,167.566 663.601,163.143C661.698,161.685 654.815,156.152 648.305,150.85L636.469,141.21L635.087,133.35C634.327,129.028 632.457,121.778 630.932,117.241C629.407,112.704 628.478,108.991 628.867,108.991C630.5,108.991 650.707,124.755 663.963,136.371C667.026,139.055 670.701,141.98 672.128,142.871C673.556,143.762 679.572,148.991 685.497,154.491C691.422,159.991 697.329,165.471 698.623,166.668C700.856,168.734 700.976,169.489 700.961,181.418C700.943,195.768 700.602,196.223 694.438,190.132L694.438,190.131ZM692.028,155.341C687.903,151.742 681.603,146.177 678.028,142.975C671.273,136.926 664.119,131.025 645.59,116.224C629.309,103.218 623.979,97.886 621.97,92.595C619.533,86.175 620.687,86.177 629.646,92.604C637.493,98.234 639.758,100.086 655.836,114.02C660.617,118.163 666.103,122.822 668.028,124.373C669.953,125.924 675.746,131.066 680.9,135.799C686.055,140.532 692.467,146.19 695.15,148.373C698.679,151.244 700.032,153.053 700.042,154.914C700.05,156.33 700.327,158.5 700.659,159.738C701.578,163.168 700.181,162.457 692.028,155.342L692.028,155.341Z" style="fill-rule:nonzero;"/>
    </g>
</svg>
