<?xml version="1.0" encoding="UTF-8" standalone="no"?>
<!DOCTYPE svg PUBLIC "-//W3C//DTD SVG 1.1//EN" "http://www.w3.org/Graphics/SVG/1.1/DTD/svg11.dtd">
<svg width="100%" height="100%" viewBox="0 0 603 582" version="1.1" xmlns="http://www.w3.org/2000/svg" xmlns:xlink="http://www.w3.org/1999/xlink" xml:space="preserve" xmlns:serif="http://www.serif.com/" style="fill-rule:evenodd;clip-rule:evenodd;stroke-linejoin:round;">
    <g transform="matrix(0.844002,0,0,0.844002,-97.08,-141.762)">
        <path d="M354,795L353,797.5L355.5,797.5L354,795ZM143,791L144,793.5L146.5,792.5L143,791ZM210,780L212.5,783.5L213.5,782L210,780ZM168.5,779L167,778L165,780.5L168.5,779ZM376.5,777L374,779L375,780.5L377.5,779.5L376.5,777ZM351,770L355.5,772.5L355.5,770L351,770ZM189,770L188,774.5L193.5,775.5L193.5,771L189,770ZM221,769L236.5,782.5L230.5,777.5L230.5,774L221,769ZM139,767L141,770.5L143.5,770.5L141.5,767L139,767ZM374.5,762L372,762L371,765.5L374.5,762ZM339.5,762L335,766L336,767.5L339.5,762ZM171,764L187.5,760.5L208.5,770.5L188.5,759L171,764ZM397.5,755L395,757L396,758.5L398.5,757.5L397.5,755ZM310.5,713L302,716L298,724.5L303.5,722.5L310.5,713ZM324.5,708L318,711.5L324.5,710.5L324.5,708ZM382.5,707L374,702L374,709.5L351.5,726L342.5,723L342,725.5L345,728.5L349.5,728.5L351,731.5L358.5,730.5L360,722.5L368.5,717.5L376,708.5L378,710.5L375,715.5L378.5,715.5L382.5,711.5L382.5,707ZM248.5,696L242,699L236,705.5L248.5,696ZM356.5,692L352,691L350,697.5L356.5,692ZM197,715L199,718.5L220.5,729.5L234,741.5L248.5,740.5L252.5,742.5L256,750L256,760.5L269,769.5L273.5,768.5L274,773.5L286,779.5L293.5,778.5L293.5,773L315.5,757.5L314.5,753L306,747L310,752L309,759.5L291.5,772L283,773L270,766L260.5,757.5L255.5,743L250.5,738L240,738L229,734L222.5,728.5L222.5,725L212.5,719.5L214.5,717L212.5,719L210.5,717.5L227,701.5L228,703.5L220,711L223.5,709.5L248.5,687L235.5,697L233.5,696.5L235,694L221.5,704L209.5,710L206,709L197,715ZM404.5,680L402,681L403,683.5L405.5,682.5L404.5,680ZM206.5,674L192,685.5L198.5,682.5L206.5,674ZM242.5,654L213,675L188,696.5L221.5,672.5L242.5,654ZM373.5,651L371,650L370,653.5L373.5,651ZM350,648L351.5,650.5L352.5,648L350,648ZM255,679L255.5,680.5L285,660.5L287,661.5L273.5,672.5L295.5,657.5L296,659.5L299.5,658.5L301,661.5L309.5,663.5L318,671.5L323.5,672.5L325,680.5L332.5,687.5L328.5,680.5L328.5,673L324,672L317.5,666L313,666L309.5,661L303,658L294.5,647.5L294.5,644L255,679ZM393.5,631L390,630L388,634.5L393.5,631ZM417,625L416,626.5L418.5,627.5L417,625ZM261.5,619L235,637L227,645.5L242.5,635.5L261.5,619ZM383.5,611L367,624.5L379.5,616.5L383.5,611ZM304.5,610L254,646.5L276.5,632.5L304.5,610ZM428,601L428,603.5L431.5,602.5L428,601ZM327,593L334,601L333,603.5L337,608L338,618.5L340.5,620.5L340.5,608L335.5,599L327,593ZM485,569L486.5,571.5L487.5,569L485,569ZM375.5,548L368,551L363,556.5L375.5,548ZM370.5,539L366,540L350,553.5L358.5,549.5L370.5,539ZM507,537L507,539.5L509.5,538.5L507,537ZM486.5,527L479,533.5L482.5,532.5L486.5,527ZM496.5,515L484,525.5L492.5,520.5L496.5,515ZM422.5,500L387,524L374,535.5L375.5,536.5L386.5,529.5L422.5,500ZM458.5,497L452,500L424,524.5L441.5,512.5L458.5,497ZM532.5,491L524,495L504,513.5L511.5,510.5L520,500.5L532.5,491ZM582.5,482L579,482L579,484.5L582.5,482ZM559.5,475L555,475L549.5,479L545,478L526,491.5L544,479.5L549.5,481.5L559.5,475ZM591,470L590,472.5L592.5,472.5L593.5,470L591,470ZM488.5,458L477,465.5L482.5,464.5L488.5,458ZM516.5,456L482,482L471,493.5L503.5,469.5L500.5,469.5L503,466.5L513.5,462L510.5,462L516.5,456ZM606.5,454L602,457.5L604.5,457.5L606.5,454ZM533.5,447L530,447L522,456.5L533.5,447ZM679.5,444L677,445.5L678.5,446.5L679.5,444ZM539.5,429L539,433.5L521,448.5L540.5,433.5L539.5,429ZM638.5,421L634,422L634,424.5L638.5,421ZM569,419L568,421.5L570.5,421.5L569,419ZM550,404L556.5,408.5L553.5,404L550,404ZM608.5,381L605,382L603,386.5L608.5,381ZM761.5,370L751,373L750,375.5L761.5,370ZM801.5,355L788,370.5L796.5,364.5L801.5,355ZM739.5,355L734,357.5L736.5,358.5L739.5,355ZM616,379.5L653,357.5L657.5,357.5L691,373.5L710,379.5L730.5,380.5L737.5,379.5L739.5,377L715,377L696,373L662,356L658,351L657.5,355L630,368L616,379.5ZM627,336L630,341L629,343.5L637.5,342.5L647,350L645,353.5L656.5,347.5L653.5,342L649,344L637,338L636.5,336L639.5,335L629,334L627,336ZM807.5,331L802,353.5L804.5,352.5L808.5,340.5L807.5,331ZM793,307L793,311.5L796.5,315.5L793,307ZM582,295L586,305.5L590.5,308.5L584.5,295L582,295ZM787,290L797,300.5L799.5,300.5L791.5,291L787,290ZM634,290L635.5,292.5L636.5,290L634,290ZM563,279L562,291.5L565,298L563,302.5L572,315.5L576.5,315.5L564.5,293.5L563,279ZM736.5,276L734,276L731,281.5L733.5,281.5L736.5,276ZM633.5,275L630,276.5L631.5,277.5L633.5,275ZM583.5,272L581,273L579.5,279L578.5,273L577,274L577,279.5L580,284.5L583.5,272ZM602.5,238L595,241L589,248.5L602.5,238ZM592.5,237L588,238L577,247L567,262L567,265.5L573.5,255L592.5,237ZM687,231L713,245.5L719.5,245.5L699.5,234L687,231ZM621.5,227L608,230L603,234.5L621.5,227ZM630,224L673.5,227.5L657.5,223L641,222L630,224ZM814.5,301L800.5,285L778.5,270.5L776.5,261L769.5,254L750.5,246L737,247L713.5,230L685.5,218L658.5,213L625,214L597,222L581,231L558,254L551,269L547,285L547,310.5L551,324.5L563,343.5L581,361.5L563.5,376L546,376L533,384L526.5,392L514,400L508,411L509,419.5L329.5,556L311,558L298.5,569L290,572L283,578L278.5,593L125,705L119,720L119,732.5L123,744.5L135,756.5L151,763.5L167.5,762.5L164.5,761.5L166,759.5L176.5,758.5L178,754.5L186,752.5L196.5,753.5L209.5,761.5L202.5,756.5L204.5,754.5L217,766.5L218.5,764.5L237.5,775.5L240,784.5L246,790.5L273,808.5L285,812.5L297.5,809.5L328.5,785.5L331.5,779.5L331.5,759L335.5,758.5L335,755.5L349,763.5L357.5,763.5L395.5,734.5L397.5,727.5L397.5,709L395.5,703L359.5,679L345,682L340.5,676.5L340.5,670L323.5,657.5L324.5,654L322.5,657L320.5,655.5L324,650.5L343.5,641.5L348,634.5L357.5,630.5L364.5,623.5L365.5,619L377,608.5L392.5,601.5L414,582.5L425,575.5L427,576.5L424,579.5L430,573.5L448.5,560.5L451,556L436.5,567L432.5,567.5L435,563L418,576L420,577.5L387.5,603L385.5,602L406.5,584.5L403,584L397.5,591L393.5,589.5L409,576.5L411.5,578.5L422,566.5L429.5,564.5L434.5,559.5L431.5,559L437,554.5L439.5,555.5L444,549.5L447.5,550.5L455.5,544.5L449.5,552.5L478.5,530L469.5,536L467.5,535L478.5,525.5L474.5,526L512,495.5L518,491.5L520.5,493.5L524,486.5L528.5,486.5L534,479.5L537.5,480.5L546,473.5L551.5,471L547.5,470.5L549,468.5L553.5,469.5L554.5,472.5L556,469.5L571.5,466.5L584.5,459.5L591,450.5L596,447.5L598.5,448.5L603.5,443.5L601.5,442L606,433.5L611,432L608.5,436.5L630.5,420.5L623.5,422.5L628,417L608.5,432L605.5,431.5L607,428.5L621.5,419L617.5,419L628,410.5L630,411.5L627,414.5L633,410.5L641.5,409.5L636,415.5L646.5,413.5L664.5,417.5L643.5,410.5L644,408.5L651.5,408.5L658.5,411.5L652.5,408.5L655.5,406.5L672,414.5L695,421.5L713,424.5L745.5,424.5L772.5,417.5L796.5,404.5L810.5,391.5L817.5,381.5L825.5,359.5L825.5,326L814.5,301ZM292.5,802.5L293,800.5L296,801L292.5,802.5ZM282,798.5L284,799L283.5,805L279.5,803.5L282,798.5ZM289,789.5L290,791.5L288,792L289,789.5ZM316,780L311.5,787L297.5,795.5L302,789.5L316,780ZM251.5,777L253.5,776.5L271,789.5L282.5,793.5L283,796.5L277,795L278,796.5L276,797L253,782L251.5,777ZM248.5,768.5L247,781L246.5,769L248.5,768.5ZM151,752.5L152,754.5L150,755L151,752.5ZM325.5,749L329,750.5L326,751L325.5,749ZM190.5,749L193.5,748.5L197,751.5L191,751L190.5,749ZM353.5,742.5L354,754.5L352,756L351.5,743L353.5,742.5ZM147,741.5L147.5,748L145.5,743.5L147,741.5ZM151,740.5L153,741L152.5,752L150.5,751.5L151,740.5ZM130.5,741L147.5,751.5L149,754.5L138,750L130.5,741ZM202.5,738L209.5,740.5L225,753.5L209,745L202.5,738ZM143.5,738L145.5,737.5L147,740.5L143.5,738ZM132,733.5L137,741.5L138.5,740L136.5,738L138.5,737.5L145,742L144.5,749L132.5,739.5L132,733.5ZM389.5,728.5L390,730.5L385,734L384.5,731L389.5,728.5ZM385,730L380.5,736L364,748L377,738.5L379,739.5L359.5,753.5L362.5,750.5L361.5,744L381,728.5L385,730ZM380,728L371.5,736L369.5,735.5L378,727.5L380,728ZM382.5,724.5L383,726.5L380,728L382.5,724.5ZM127,723.5L128.5,737L126.5,733.5L127,723.5ZM339,641L330.5,647L324.5,647.5L332,641.5L339,641ZM296.5,640.5L297,646.5L303,652.5L335,672L335,681.5L339,686.5L357.5,684.5L385.5,702.5L390,707L390,710.5L357.5,737L350,737L325.5,717L314,718L303.5,728L297,731L297,736.5L317.5,750.5L325,760.5L294.5,784L286,786L248.5,761.5L251.5,752L247.5,746L232,746L191.5,717L254,669.5L296.5,640.5ZM318,615L296.5,633L288.5,636.5L310,618.5L318,615ZM343,592.5L344,594.5L342,595L343,592.5ZM393.5,589.5L393,593.5L389,596L389.5,592L393.5,589.5ZM318,599L308,606L308.5,608.5L313,603.5L317,603L315,606.5L318,606.5L310.5,613L283,631.5L286,631.5L281.5,636L279.5,635.5L280,633L261,645L206,688L208.5,688.5L275,637.5L279,637.5L253,659.5L278,641.5L280,642.5L198.5,704L194.5,704L209.5,691L189.5,706L187.5,705L196,697L157.5,723L151,722L148.5,718L142,716L141.5,713L145,707.5L185.5,678.5L199,665L135,710L136,718.5L151,729.5L159.5,729.5L188.5,709.5L184.5,715L162.5,732L150,734L128.5,717.5L130,708.5L294,588.5L297,589.5L267,614.5L302,589.5L313.5,594.5L318,599ZM389,582L382.5,588L380.5,587.5L387,581.5L389,582ZM288.5,582L291.5,581.5L292,583.5L289,585L288.5,582ZM323.5,577L335.5,581.5L343,591.5L340,592L323.5,577ZM391.5,573.5L389,577L388.5,575L391.5,573.5ZM297,574.5L312.5,574.5L336,593L344,608L344,622.5L339.5,631L333.5,632.5L339.5,628.5L340.5,623L335.5,622.5L334.5,613L325.5,599L314.5,589L300.5,582.5L305.5,581.5L303.5,579L307.5,577L296,577L297,574.5ZM428,571L423.5,576L419.5,576.5L426,570.5L428,571ZM409,566L394.5,579L389.5,580.5L407,565.5L409,566ZM313,563.5L318,561.5L329.5,562.5L349,574L355,582L362,599L362,610.5L358.5,616L356.5,615.5L359.5,611.5L358.5,596L349.5,582L346.5,580L349,586L348,588.5L352,592L350,594L344.5,587L328.5,575L314.5,569.5L321.5,566.5L321.5,564L311,567L313,563.5ZM418,547L406.5,557L398.5,560.5L413,548.5L418,547ZM435,534L422.5,545L418.5,545.5L433,533.5L435,534ZM452,533L445.5,539L443.5,538.5L450,532.5L452,533ZM475,527L468.5,533L466.5,532.5L473,526.5L475,527ZM461,526L454.5,532L452.5,531.5L459,525.5L461,526ZM452,521L436.5,534L434.5,533.5L443,525.5L452,521ZM470,519L462.5,526L460.5,525.5L468,518.5L470,519ZM474,504L468.5,510L455.5,517.5L472,503.5L474,504ZM524,478L478.5,514L469.5,518.5L509,486.5L524,478ZM547,455L539.5,463L484,503L433.5,544L393.5,574L391.5,573.5L417,550.5L542,456.5L547,455ZM584.5,455.5L585,453.5L588,454L584.5,455.5ZM549,446L523.5,467L518.5,468.5L544,447.5L549,446ZM569.5,443.5L570,445.5L566,448.5L569,448L570,458.5L561.5,463L556,463L556,459.5L561.5,460.5L567.5,456.5L562,454L560.5,450L569.5,443.5ZM580.5,442.5L580,449.5L572,457L572.5,453L580.5,442.5ZM560.5,443L563.5,442.5L564,444.5L560.5,443ZM558.5,434L562.5,436.5L561.5,433L565.5,433.5L568,439.5L561,440L558.5,434ZM550,429L534,443L535.5,446.5L543.5,441.5L541.5,446L514,465L364,580L363.5,578L407.5,540L375.5,564L356.5,575L339.5,562.5L345.5,556L337.5,561L333.5,559.5L520,419.5L522,420.5L440,486.5L450.5,480.5L485,451.5L531,417.5L539.5,419.5L550,429ZM582.5,415.5L583,417.5L580,419L582.5,415.5ZM699.5,414L706,415.5L701,416L699.5,414ZM589.5,409.5L590,411.5L587,413L586.5,411L589.5,409.5ZM773,409L763.5,414L736.5,419L708.5,416.5L745.5,415.5L773,409ZM522.5,408.5L523,410.5L519,413L518.5,411L522.5,408.5ZM632,407.5L633,409.5L631,410L632,407.5ZM519.5,407.5L518,413.5L515,415L515.5,410L519.5,407.5ZM530.5,406L537.5,405.5L550.5,412.5L563,425L564,429.5L558,429L558,434L545.5,419L529.5,410.5L531.5,408.5L530.5,406ZM635.5,407L642,404.5L650,406L649.5,408L635.5,407ZM768,403L758.5,407L736.5,410L713.5,408.5L742.5,407.5L768,403ZM681.5,403L691,406.5L684,406L681.5,403ZM529,398L526.5,402L520.5,402.5L529,398ZM531.5,400L535,396.5L545.5,396.5L563.5,405.5L575,418L581,431L581,440.5L577.5,439.5L578.5,436L572.5,423L570,425.5L572,425L572,428.5L575,431L574,443L570.5,431L561.5,417L546.5,406L532,402L531.5,400ZM791,396L777.5,405L758.5,412L719,414L705.5,411.5L748.5,410.5L765.5,406.5L788,395.5L791,396ZM657.5,395L666.5,396.5L681,405.5L675,405L657.5,395ZM800,391L796.5,395L792.5,395.5L796,391.5L800,391ZM635,390L617.5,405L615.5,404.5L626,394.5L635,390ZM549,381.5L563.5,380.5L575.5,384.5L593,400L600,416L600,430.5L592.5,442L588.5,442L595.5,434.5L595.5,422L597.5,421.5L593.5,409L581.5,395L579,395L588,408.5L580,401L583,407.5L579,406L581,408L579,412.5L581,413.5L576,414L562.5,400L549,394L548.5,392L551.5,391L547.5,389.5L550,387.5L563.5,386.5L574,392.5L575.5,391L565.5,385L549,384L549,381.5ZM572.5,342L576,344.5L574,345L572.5,342ZM773,326.5L775,328L774.5,332L772.5,330.5L773,326.5ZM566,326.5L574,334L574.5,340L566,326.5ZM557,316.5L571.5,341L559.5,326.5L557,316.5ZM755.5,311L757.5,310.5L759,313.5L755.5,311ZM748.5,302L751.5,301.5L758.5,306.5L764,313.5L748.5,302ZM721,295.5L728,297L726.5,303L721.5,300.5L721,295.5ZM721.5,283.5L722,286.5L718,292L717.5,287L721.5,283.5ZM603.5,288L612,277.5L633,267.5L657.5,266.5L671.5,270.5L694.5,283.5L696,291.5L704,299.5L713.5,300.5L718,307.5L725,310.5L738.5,308.5L752.5,317.5L764,329L769,341L769,347.5L757.5,360L743.5,366L713,367L696,363L672,351L666.5,337L659.5,332L645.5,326L629,326L623,322L605.5,302.5L602.5,292.5L603.5,288ZM771,263L769.5,268L756,269L742,276L728.5,292L725,290L725,293.5L722.5,293.5L727.5,277L739,266.5L759,258.5L765.5,258.5L771,263ZM653.5,259L668.5,260.5L675,264.5L653.5,259ZM652.5,255L667.5,255.5L684,264.5L652.5,255ZM760,255L759.5,257L735,265L727.5,273L724,273L724.5,276L717.5,275L729.5,263.5L726,263L708.5,282L705,280L704,282.5L708,292.5L701.5,288.5L701.5,280L706.5,270L715,260.5L723,255.5L738,250.5L749.5,250.5L760,255ZM559.5,265L566.5,253L582,237.5L599,227.5L619,220.5L661.5,218.5L694.5,226.5L714.5,236.5L731,249L717,255L709.5,261L707,261L698.5,252L681.5,243L659.5,237L637,237L619,242L606,249L600,258.5L595,260L587,278L587,292.5L592,306.5L599,314.5L591.5,297.5L590.5,280L598.5,262L612,250.5L622,245.5L644,241.5L668.5,243.5L686.5,249.5L707,263L706.5,266L703,266L680.5,251L657.5,245L634,246L611,256L600,268L595,287.5L598,300.5L605,312.5L614,322.5L624,329L621.5,332L601,316L615,330L614,332.5L622.5,334.5L624,330.5L639.5,330.5L649.5,333.5L662,342L663,350.5L666,354.5L690,366.5L706,371.5L736.5,372.5L750.5,369.5L764.5,362.5L775.5,351.5L780.5,341.5L781.5,329L778.5,318L773.5,310L760.5,297L742,287L740.5,284L743.5,283.5L772.5,300.5L787,325L785,343.5L777,357.5L771,362L771.5,365.5L786.5,349.5L789.5,340.5L789.5,327L780.5,306L766.5,292L747.5,279.5L759,272.5L761.5,272.5L762,276.5L766,278.5L765,273.5L774.5,278.5L766.5,272.5L770.5,269.5L796.5,289.5L813,310L819,329L818,352.5L809,369.5L792.5,385L768.5,397L747.5,402L725,403L709,401L706.5,399L709.5,398L684,394L649.5,378L639.5,377.5L643,374.5L651.5,374.5L682,388.5L735,397.5L753.5,396.5L775.5,389.5L802.5,370.5L804.5,367.5L802.5,364L810.5,357.5L813.5,346.5L813.5,333L808.5,314L804,308L812,333L810,348.5L794.5,370L774.5,383L748.5,391L712,391L690,387L661,375L659,371.5L668.5,369L646,369L638,372L600,402L633.5,371L614.5,385L611,384L602.5,392L599.5,391.5L601.5,388L596.5,392L595,391L595.5,394L593,394L582.5,383L577,381L579,376.5L598.5,363.5L609.5,352.5L611.5,343L608,347L609.5,338L607.5,336L600,336L585.5,322L585,326L578.5,319L574,318L574,320.5L592,337.5L601.5,336.5L606,342L607,350.5L586.5,371L575.5,379L571.5,378.5L599.5,354.5L601.5,347L598.5,343L591,341L581,334L562.5,313.5L555.5,294.5L555.5,278L559.5,265Z" style="fill:rgb(75,75,75);fill-rule:nonzero;stroke:rgb(75,75,75);stroke-width:1px;"/>
    </g>
</svg>
