<?xml version="1.0" encoding="UTF-8" standalone="no"?>
<!DOCTYPE svg PUBLIC "-//W3C//DTD SVG 1.1//EN" "http://www.w3.org/Graphics/SVG/1.1/DTD/svg11.dtd">
<svg width="100%" height="100%" viewBox="0 0 603 582" version="1.1" xmlns="http://www.w3.org/2000/svg" xmlns:xlink="http://www.w3.org/1999/xlink" xml:space="preserve" xmlns:serif="http://www.serif.com/" style="fill-rule:evenodd;clip-rule:evenodd;stroke-linejoin:round;">
    <g transform="matrix(0.824244,0,0,0.824244,-122.367,-116.795)">
        <path d="M423.5,827L421,828.5L422.5,829.5L423.5,827ZM470,825L469,828.5L471.5,828.5L472.5,826L470,825ZM546,824.5L549.5,824.5L550.5,822L547,822L546,824.5ZM509,820L510,822.5L513.5,821.5L509,820ZM616,818L617.5,820.5L618.5,818L616,818ZM583,818L586.5,819.5L585.5,817L583,818ZM448,815L450,817.5L454.5,816.5L448,815ZM355,814L355,816.5L358.5,817.5L358.5,815L355,814ZM563,813.5L567.5,814.5L571.5,811L563,813.5ZM601.5,805L583,809.5L590.5,809.5L601.5,805ZM652,803L653.5,805.5L654.5,803L652,803ZM627.5,802L623,804.5L626.5,804.5L627.5,802ZM331,797L330,800.5L332.5,801.5L333.5,798L331,797ZM340,789L341.5,791.5L342.5,790L340,789ZM692.5,781L689,783L689,785.5L692.5,784.5L692.5,781ZM309,780L310,782.5L312.5,781.5L309,780ZM588.5,779L551.5,785L541,783L541.5,786L535.5,784L514,785.5L523.5,786.5L522,789.5L543.5,788.5L578.5,783.5L588.5,779ZM717,777L720.5,778.5L720.5,776L717,777ZM326,775L331.5,781.5L328.5,775L326,775ZM370,773L381.5,783.5L373.5,774L370,773ZM358,763L365.5,769.5L360.5,763L358,763ZM661.5,758L656,758L622.5,771L593,778.5L599.5,779.5L623.5,773.5L661.5,758ZM690.5,743L677.5,751L667,752L665,756.5L690.5,745.5L690.5,743ZM764.5,731L762,729L756,734.5L763.5,733.5L764.5,731ZM360.5,727L330,735L330,737.5L340.5,748.5L334.5,738.5L337.5,735.5L351.5,755.5L350.5,751L344.5,745.5L339.5,736L360.5,727ZM554,722.5L558.5,721L555,720L554,722.5ZM592,719L591,722.5L593.5,722.5L595.5,720L592,719ZM417.5,712L410,723L408,731.5L417.5,715.5L417.5,712ZM617,711L616,713.5L618.5,713.5L617,711ZM785.5,711L784,710L779,714L778,717.5L780.5,717.5L785.5,711ZM554,708L561.5,710.5L559.5,708L554,708ZM418.5,708L416,709.5L417.5,710.5L418.5,708ZM460,703L461.5,706.5L462.5,704L460,703ZM454,701L455.5,703.5L456.5,702L454,701ZM530,700L545.5,705.5L534.5,700L530,700ZM340.5,701L339,700L338,702.5L340.5,701ZM809.5,691L807,691L805,695.5L809.5,691ZM443,688L445.5,690.5L445.5,688L443,688ZM485,687L489,690.5L525.5,700.5L517.5,695L506,694L485,687ZM387,684L388.5,686.5L389.5,685L387,684ZM407,682L406,684.5L408.5,684.5L407,682ZM463,681L476,687.5L482.5,686.5L472.5,682L463,681ZM815.5,678L812,680.5L813.5,681.5L815.5,678ZM699,677L698,678.5L700.5,679.5L699,677ZM640.5,676L635,677L627,683.5L635.5,680.5L640.5,676ZM427,676L427,678.5L431.5,678.5L427,676ZM784.5,674L752.5,703L727,718L710,731.5L719.5,728.5L731,717.5L750.5,707.5L770.5,690.5L784.5,674ZM438,674L447,678.5L456.5,679.5L448.5,675L438,674ZM322,672L322,674.5L324.5,674.5L322,672ZM288,669L289.5,671.5L290.5,670L288,669ZM663.5,662L658,663L651,669.5L663.5,662ZM397,662L432.5,673.5L427.5,670L397,662ZM366,659L369,661.5L375.5,661.5L366,659ZM336,659L338,661.5L344.5,661.5L336,659ZM309,657L311,659.5L314.5,658.5L311.5,656L309,657ZM265,655L264,657.5L266.5,657.5L265,655ZM559.5,677.5L558.5,675L553.5,674.5L552.5,654L550.5,673L537,672L519,667L520,669.5L523.5,668.5L540.5,673.5L542,677.5L545,674.5L551,677.5L559.5,677.5ZM348,653L350,655.5L347,656.5L352.5,656.5L348,653ZM354,650L365,655.5L390.5,660.5L365.5,651L354,650ZM238,647L239,649.5L241.5,648.5L238,647ZM446,645L447,647.5L454.5,649.5L446,645ZM695.5,642L679,650L674,655.5L680.5,653.5L695.5,642ZM293.5,643L287,642L285,647.5L288.5,648.5L287.5,644L293.5,643ZM324,640L325,642.5L350.5,649.5L337.5,643L324,640ZM300,640L306.5,642.5L304.5,640L300,640ZM259,638L260,640.5L263.5,640.5L259,638ZM376,637L402,646.5L412.5,646.5L428,653.5L447.5,657.5L489,671.5L517.5,676.5L511.5,673L410.5,644L404,645L376,637ZM494,636L495,641.5L499,644.5L518.5,648.5L532,654.5L537.5,653.5L540.5,649.5L536.5,643L508,637L502.5,634L494,636ZM506.5,640L510.5,639.5L512,641.5L508,642L506.5,640ZM279,634L284,638.5L288.5,637.5L279,634ZM208,633L207,635.5L210.5,636.5L211.5,634L208,633ZM252,632L259.5,634.5L257.5,632L252,632ZM763.5,631L762,630L761,632.5L763.5,631ZM712.5,630L705,634L703,637.5L709.5,634.5L712.5,630ZM600,633.5L605.5,631L603,632L601,630L600,633.5ZM396,630L409.5,635.5L407.5,633L396,630ZM359,629L360,631.5L364.5,631.5L359,629ZM229,627L231,629.5L237.5,629.5L232.5,626L229,627ZM742,625L741,627.5L744.5,628.5L745.5,626L742,625ZM273,625L293,633.5L318,640.5L320.5,639.5L314.5,636L273,625ZM653.5,622L647.5,627L645,626L641,631.5L642.5,632.5L649.5,627.5L653.5,622ZM730.5,620L720,626.5L728.5,623.5L730.5,620ZM438,621L438,625.5L444,629.5L461.5,632.5L473,637.5L481.5,635.5L481.5,630L477.5,627L446.5,619L438,621ZM469.5,630L473.5,629.5L475,631.5L469.5,630ZM242,616L254,621.5L268.5,624.5L254.5,618L242,616ZM308,615L330,625.5L355.5,629.5L341.5,623L311.5,614L308,615ZM667.5,612L661,615L658,621.5L667.5,612ZM783,611L783,613.5L786.5,612.5L783,611ZM602.5,611L600,615.5L603.5,613.5L602.5,611ZM745.5,610L736,615L736,617.5L743.5,613.5L745.5,610ZM228,610L236,615.5L237.5,614.5L228,610ZM687.5,609L676,620L676,624.5L686.5,613.5L687.5,609ZM219,606L219,608.5L223.5,608.5L223.5,606L219,606ZM202,605L202,607.5L207,611.5L209.5,610.5L205.5,605L202,605ZM687.5,603L682,607L682,611.5L687.5,603ZM236,602L234,604.5L237.5,607.5L236.5,604L238.5,602L236,602ZM761.5,601L755,603L751,607.5L761.5,601ZM243,602.5L249.5,601L244,600L243,602.5ZM319,593L321,595.5L325.5,595.5L319,593ZM787.5,591L781,593L778,596.5L782.5,596.5L787.5,591ZM779.5,590L769,594L768,596.5L776.5,593.5L779.5,590ZM716.5,589L714,591L715,593.5L716.5,589ZM691.5,589L681.5,600L680,596L679,600.5L672,608.5L686.5,597.5L691.5,589ZM307,589L308.5,595.5L309.5,593L307,589ZM812.5,587L809,587L809,589.5L812.5,587ZM706.5,586L701,597.5L706.5,592.5L706.5,586ZM247.5,586L246,590.5L248.5,589.5L247.5,586ZM298,585L297,589.5L299.5,592.5L301.5,591L298,585ZM291.5,585L290,591.5L293.5,587.5L291.5,585ZM629.5,584L625,590L627,594.5L629.5,584ZM237.5,584L232,585L232,587.5L236.5,586.5L237.5,584ZM706.5,581L697,590L698,591.5L706.5,583.5L706.5,581ZM601.5,579L597,584L596,594.5L598.5,585L601.5,585.5L601.5,579ZM564.5,575L562,683.5L537,680L547,686.5L560,690.5L566.5,687.5L564.5,575ZM786,572L787,574.5L792.5,574.5L788.5,571L786,572ZM363,566L364.5,568.5L365.5,567L363,566ZM637.5,564L634,568L635,570.5L637.5,564ZM618.5,564L616,567L617,574.5L618.5,564ZM245,563L246.5,566.5L247.5,564L245,563ZM734.5,561L726,566L721,572.5L726.5,570.5L734.5,561ZM224,561L223,563.5L226.5,564.5L227.5,562L224,561ZM804,560L803,562.5L805.5,563.5L806.5,560L804,560ZM741.5,559L735,565.5L738.5,565.5L741.5,559ZM715.5,552L705,561.5L711.5,560.5L715.5,552ZM731.5,551L725,556L726,558.5L731.5,551ZM697.5,548L695,561.5L697.5,557.5L697.5,548ZM609.5,548L598,558L594,568.5L597.5,561L600.5,559.5L601.5,561.5L603.5,555L609.5,551.5L609.5,548ZM245,544L244,547.5L246.5,547.5L245,544ZM724.5,542L722,542L720,545.5L724.5,542ZM462.5,542L459,551L460,553.5L462.5,549.5L462.5,542ZM516,541L495,564L495,568.5L507,572L508,629.5L512,632.5L525.5,634.5L527.5,632.5L527.5,577L536.5,578.5L540.5,574L521.5,544L516,541ZM520,592.5L522,596.5L518,604.5L521,602L519,611.5L522,613.5L519,622L521,628.5L519,629L516.5,624L513.5,626.5L515.5,618.5L513.5,612L516.5,610.5L516.5,607L513.5,609.5L513.5,601L516.5,600.5L520,592.5ZM514,583.5L516,586L514.5,591L514,583.5ZM515.5,569.5L514,576L513.5,571L515.5,569.5ZM518.5,568.5L519,585.5L520.5,584.5L521,586.5L517,595L516.5,570L518.5,568.5ZM526.5,563.5L530,569.5L523,570L521,577L519.5,572L526.5,563.5ZM522,561.5L523.5,565L521.5,564.5L522,561.5ZM507.5,564L511,561.5L515,563L513.5,567L508,566L507.5,564ZM519.5,557.5L519,566.5L517,567L516.5,561L519.5,557.5ZM515.5,550L517.5,549.5L520,553.5L518,554L515.5,550ZM729.5,539L727,539L726,545.5L729.5,539ZM272,532L271,602.5L277,607.5L299,614.5L305.5,614L292,609L292,600.5L296.5,601.5L299,606.5L300,603.5L324.5,610.5L321.5,606L310,604L308.5,600L307.5,603L299.5,600.5L299.5,597L298.5,600L293,600L284,596L281.5,574L281,594.5L279,595.5L288.5,598.5L290,606.5L275.5,601.5L273.5,592.5L272,532ZM749.5,530L746,538.5L739.5,544L737,543L736,547.5L738,549.5L742.5,542L748.5,537.5L749.5,530ZM602.5,530L599,537L600,539.5L602.5,530ZM460,528L439,551L439,554.5L452,558L451,614.5L468.5,619.5L471.5,617.5L471.5,563L481.5,563.5L483.5,559L466.5,531L460,528ZM461,575.5L466,579L466,593.5L462,596L466,602L465.5,613L463.5,612.5L463.5,604L463,608.5L460,607L460,611.5L457.5,611.5L457.5,601L459.5,603.5L460.5,591L458,596L457.5,588L461,575.5ZM462.5,558.5L463,572.5L458,577L457.5,572L460.5,568.5L459.5,562L462.5,558.5ZM447.5,550L451,549L450.5,551L447.5,550ZM462.5,535.5L466,541L464,550.5L465,547.5L470.5,549.5L475,556.5L467,556L465,558L463,555L459,558L458,563L457.5,550L456.5,552L451.5,551L460.5,540.5L459.5,537L462.5,535.5ZM234,523L233,524.5L235.5,526.5L237.5,524L234,523ZM338,521L337,522.5L339.5,523.5L338,521ZM803,518L803,520.5L805.5,520.5L803,518ZM721.5,517L716,522L714,527.5L721.5,517ZM729.5,510L726,516.5L729.5,513.5L729.5,510ZM747.5,506L745,509L745,516.5L748.5,514.5L747.5,506ZM611.5,503L607,507L609,510.5L611.5,503ZM760.5,502L758.5,505L756,502L756,522.5L756.5,513L760.5,506.5L760.5,502ZM706.5,500L700,509.5L703.5,507.5L706.5,500ZM738.5,495L733,502.5L737.5,500.5L738.5,495ZM238,488.5L240.5,489.5L241.5,487L238,488.5ZM750.5,486L746,491L746,498.5L748.5,496.5L750.5,486ZM756,482L756.5,490.5L758.5,485L756,482ZM738.5,478L736,480L736,487.5L738.5,485.5L738.5,478ZM732.5,473L725,483.5L730.5,478.5L732.5,473ZM552,468L553.5,490.5L554.5,469L552,468ZM749.5,466L741,477.5L744,473.5L747.5,474.5L749.5,466ZM517,446L557.5,458.5L562,462L564.5,533.5L565.5,460L559.5,455L517,446ZM642.5,445L638,446L637,449.5L631.5,454L630,453L628,457.5L629.5,458.5L635,451.5L639.5,457.5L639.5,451L642.5,445ZM738.5,444L736,450.5L738.5,448.5L738.5,444ZM625.5,443L611.5,455L608.5,451L606,452L606,458.5L601,462L603,464L602,467.5L606,462.5L608.5,465.5L608.5,460L616.5,453.5L614,470.5L604.5,479L603,478L602,484.5L620.5,466.5L616,468L615.5,464L617.5,462.5L618.5,453L622.5,450.5L621.5,447L625.5,443ZM761.5,434L756,441L756,446.5L761.5,434ZM739.5,431L736,433L738,435.5L739.5,431ZM642.5,431L637,435L637,438.5L641.5,435.5L642.5,431ZM648,427L647,443.5L649.5,443.5L648,427ZM566,423L571,427.5L579.5,425.5L566,423ZM757.5,417L755,420L756,424.5L757.5,417ZM712.5,414L710,425.5L712.5,424.5L712.5,414ZM473,412L501,420.5L548.5,430.5L568,437.5L581.5,434.5L618.5,412.5L613,413L575.5,433L567,434L473,412ZM747.5,410L744,413L746,415.5L747.5,410ZM852.5,409L848.5,406L845,407L844,415.5L848,423L853,445L854,502.5L848,536.5L836,571.5L818,605.5L797,634.5L763.5,668L737.5,688L688.5,715L650.5,730L584.5,746L538.5,750L476,746L429,735L427.5,732L433.5,719.5L434.5,707L428.5,694L420,693L313,728L312,736.5L317,745.5L354,794.5L390,829.5L402.5,833.5L407.5,827.5L413,801.5L439,807.5L468,810.5L522.5,810.5L573.5,804.5L620.5,793.5L661.5,779.5L704.5,759.5L732.5,742.5L778.5,706.5L809.5,673.5L836.5,632.5L855.5,590.5L868.5,535.5L870.5,479L865.5,444L859.5,423L852.5,409ZM395,811.5L396.5,816L393.5,814.5L395,811.5ZM520.5,802.5L521,800.5L531,801L520.5,802.5ZM490.5,802L506.5,801.5L507,803.5L492,804L490.5,802ZM405.5,798.5L405,810.5L403,812L402.5,806L405.5,798.5ZM442.5,798L473.5,800.5L474,802.5L462,803L444,800L442.5,798ZM399,795.5L400,797.5L398,798L399,795.5ZM688,758L667.5,769L664.5,768.5L680,759.5L688,758ZM709,747L698.5,754L695.5,753.5L706,746.5L709,747ZM759,712L740.5,728L721.5,738.5L757,711.5L759,712ZM786,687L767.5,706L765.5,705.5L784,686.5L786,687ZM810.5,656.5L809,661.5L797,676.5L786,687L785.5,685L810.5,656.5ZM835.5,614.5L836,617.5L826,636.5L812,655L835.5,614.5ZM863,479L864,502.5L862,517.5L859,521L849,567.5L834,606.5L808,650.5L795.5,666L795.5,663L794,664L794,667.5L788,675.5L763.5,700L720.5,732L678.5,755L640.5,771L573.5,789L531.5,794L460,794L405,785L399,795L398.5,784L403,777.5L413.5,779.5L412,783.5L447,789.5L484,791.5L513.5,789.5L473,789L417,782L422.5,780.5L437.5,782.5L436.5,780L400,776L395.5,792L386,787L395,795L393,803L356.5,769.5L351.5,760L343.5,752L356,771.5L381,797L379,800L321.5,733.5L322,731.5L421,699.5L424,700L426,708.5L414,732L416,736.5L454,748.5L497,755.5L542.5,756.5L590.5,751.5L639.5,740.5L688.5,722.5L731.5,699.5L761.5,678.5L794.5,647.5L811.5,627.5L833.5,592.5L846.5,562.5L858.5,518.5L860.5,485L863,479ZM242.5,404L240,405.5L241.5,406.5L242.5,404ZM638.5,401L631,405.5L637.5,403.5L638.5,401ZM280,401L281.5,423.5L281.5,407L291.5,405L283,404L280,401ZM521,400L545.5,406.5L549,410.5L558.5,406.5L539,403L536.5,399L531.5,397L525,397L521,400ZM497,406L503,410.5L507.5,408.5L533,415.5L545.5,412.5L545.5,410L537,413L508,406L506.5,404L509,402.5L515.5,402.5L528,407.5L537.5,408.5L517.5,401.5L517.5,398L523.5,395.5L523.5,393L513,397L513.5,401L504,402L497,406ZM713.5,389L710,404L711,408.5L713.5,403.5L713.5,389ZM423.5,389L404,398.5L407.5,398.5L423.5,389ZM272,455.5L275,393.5L295.5,395.5L336,404.5L338.5,403L299.5,393L272,389L270,391L272,455.5ZM699.5,388L697,393L698,430.5L700.5,424.5L699.5,388ZM733.5,383L725,389L727,398.5L727.5,391L734.5,384.5L733.5,383ZM527,392L531.5,392.5L534,395.5L559.5,399.5L563,404.5L578,394.5L590.5,398.5L584,395L580.5,390L552.5,382L538,385L527,392ZM535.5,391L538,388.5L554.5,391.5L555,393.5L558.5,393.5L559,391.5L572.5,393.5L574,396.5L572.5,399L565,400L564.5,396L543,395L541.5,392L538,394L535.5,391ZM544.5,387L552.5,383.5L575.5,390.5L576,392.5L552.5,386L549,387L549.5,389L544.5,387ZM447.5,369L425,377L418,382.5L447.5,369ZM792,368L793.5,370.5L794.5,369L792,368ZM553,365L616.5,379.5L605.5,375L561.5,365L553,365ZM465.5,361L456,363L450,367.5L465.5,361ZM535.5,356L520,362L460,393.5L502.5,374.5L535.5,356ZM586,355L597.5,358.5L594,360L647.5,372.5L645.5,369L633,367L624.5,363L613,363L610.5,360L607,362L602.5,360.5L605.5,359.5L604.5,358L586,355ZM289,371L362.5,387.5L360.5,385L299.5,370.5L332.5,355L289,371ZM427,339L437,343.5L441.5,342.5L427,339ZM371.5,339L342,349L340,352.5L371.5,339ZM748.5,343L717,337L718,339.5L737.5,342.5L740,345.5L735.5,348L728,348L730,350.5L701,367.5L738.5,350.5L748.5,343ZM693,333L706,337.5L713.5,337.5L700.5,333L693,333ZM382,328L383,330.5L421.5,338.5L403.5,332L382,328ZM300.5,329L299,328L298,330.5L300.5,329ZM631,320L650.5,324.5L646.5,322L631,320ZM531,300L533,302.5L549.5,304.5L531,300ZM457,302.5L475,296.5L492.5,299L474,294L457,302.5ZM481,292L515.5,297.5L491.5,291L481,292ZM573,281L573,283.5L575.5,283.5L573,281ZM268,366L261,373L256,389L257,603.5L260,612.5L274,620.5L547,700.5L575.5,705.5L598.5,695.5L760.5,594.5L773.5,585.5L777.5,579.5L778.5,353L776.5,343L769.5,335L494.5,280L479,280L268,366ZM593.5,676.5L591,681L590.5,678L593.5,676.5ZM591,662.5L594,664L593.5,671L590.5,670.5L591,662.5ZM603.5,651.5L604,663.5L598,668L597.5,660L601.5,656.5L599.5,654L603.5,651.5ZM657,648L650.5,652.5L654,647.5L657,648ZM613.5,645.5L613,655.5L607,661L605.5,658L608.5,653.5L607.5,650L613.5,645.5ZM686,629L680.5,635L674.5,636.5L682,627.5L686,629ZM697.5,621.5L701,616.5L707,617L700.5,622L697.5,621.5ZM745.5,566.5L747,573.5L739,580L738.5,573L745.5,566.5ZM410.5,479L417.5,479.5L420,482.5L416,484L410.5,479ZM382.5,471L389,472.5L384,474L382.5,471ZM592.5,466.5L593,483.5L590,486L589.5,476L592.5,470.5L590.5,467L592.5,466.5ZM587.5,448.5L587,454.5L585,455L584.5,450L587.5,448.5ZM686,423.5L688,428L688,444.5L690,446L686.5,454L686,423.5ZM428,422.5L430,427L428.5,436L428,422.5ZM674.5,419.5L675,466.5L662,475L660.5,431L663.5,429.5L664.5,433.5L666.5,428.5L668,432L668,443.5L665,443L664,451.5L666,455.5L663,460L663,465.5L665,468.5L667,466.5L669.5,468.5L672.5,464.5L672.5,451L670.5,447.5L672.5,435.5L671.5,422L674.5,419.5ZM691,417.5L693,419L691.5,428L691,417.5ZM437.5,415.5L439,422.5L437,426L436,482.5L433.5,488L430,488L425.5,484.5L428,478.5L430.5,481.5L431.5,471L426.5,466.5L427.5,437L430,442.5L432.5,438.5L432.5,416L437.5,415.5ZM430.5,414.5L429,419L428.5,415L430.5,414.5ZM424.5,414.5L424,476.5L422,478L419.5,468.5L419.5,441L421.5,417L424.5,414.5ZM408,409.5L412,411L412,416.5L409,419L412,439.5L414.5,432.5L412.5,429.5L414.5,413L417,414L416.5,474L413.5,463L410.5,468L409,467L408.5,472L405.5,469.5L405.5,446L408,445L414.5,457.5L414.5,451L409.5,442L406.5,441.5L408,409.5ZM393,406.5L396,411L393,428.5L396,430L394,445.5L398.5,438.5L396.5,425L399.5,411L396.5,408L405,410L404,477.5L408,479L406.5,482L398.5,477L395,479L389.5,474.5L390,472.5L394,475.5L399.5,473.5L397.5,454L397,466.5L395.5,469L391.5,466.5L393,406.5ZM383,405.5L388,406L389,459.5L388,465.5L383,467L381.5,463.5L383.5,453.5L381.5,443L380.5,445L378.5,443.5L379.5,423L382.5,424.5L382.5,421L385.5,419.5L380.5,414.5L383,405.5ZM661,403.5L664,405L662.5,420L660.5,419.5L661,403.5ZM374,399.5L377,402L377,456.5L375,464.5L376,468.5L380,469L376.5,473L372.5,471.5L371.5,452.5L373.5,445.5L374,399.5ZM671,398.5L674,400L672.5,409L671,398.5ZM680.5,394.5L682,397.5L679,402L679,408.5L681,410L679,413L680,422.5L678,424L676.5,396L680.5,394.5ZM691.5,389.5L692,391.5L687,395L686,401L684.5,392L691.5,389.5ZM701.5,382.5L703,452.5L700.5,456L694,456L686,461L682.5,466L678,466L677.5,457L680.5,458.5L680.5,453L677.5,454.5L678,424.5L682,425L683,459.5L684.5,460.5L687,455.5L693.5,454.5L695.5,449.5L694.5,445L690.5,446.5L690.5,438L694.5,437.5L694.5,387L701.5,382.5ZM266,380.5L367.5,400.5L368,439.5L370,447L368,452L368,475.5L371,478.5L379.5,477.5L383,480.5L398.5,482.5L402,487.5L410.5,485.5L415,489.5L422.5,488.5L430,493.5L435.5,493.5L439,489.5L442.5,489.5L442.5,485L439.5,483.5L439.5,458L443,418.5L529.5,438.5L573,453L575,463L575,695.5L572.5,698L541,691L372.5,639L318,625L310.5,620L294,618L265.5,608.5L263.5,599.5L262.5,391L266,380.5ZM747.5,379.5L747,383.5L739,389L738.5,385L747.5,379.5ZM754.5,376.5L755,389.5L749,393L749.5,379L751,376.5L754.5,376.5ZM447.5,413.5L464,403.5L538,369.5L609.5,387.5L653,402L582,443L577.5,449L556.5,440L447.5,413.5ZM749,364L740.5,368.5L742,365.5L749,364ZM762.5,361.5L762,375.5L759,379L758.5,364L762.5,361.5ZM745,362L733.5,373L728,374L719.5,381L715,379L708.5,386L706.5,384.5L707,380.5L745,362ZM769.5,346.5L771,573.5L769,578.5L764.5,579.5L768.5,569.5L767.5,482L765,467L764,539.5L762,541L763,573.5L756.5,577.5L756.5,572L760.5,568.5L757.5,566.5L757,540L755,542L755,568.5L749.5,570.5L751.5,557L748,546L748,560.5L738,567L733.5,574L721,582L722.5,585.5L735.5,572.5L735,583.5L714,598L728.5,591.5L753,573.5L756,574L753.5,581L714.5,607L708,608L697.5,618L689,621L661.5,641L628,660L623.5,665L614.5,669L611,668L608.5,672L598.5,678L594.5,677L599,671.5L629.5,649.5L626.5,647L636.5,634.5L634.5,633.5L636.5,626L635,625L631,632L632,635.5L627,641L623.5,653L614.5,655.5L617.5,642L624.5,637.5L624.5,633L620.5,638L617.5,636.5L618,634L608.5,645L605.5,642.5L605,637L605,647.5L599.5,652L597.5,651.5L596,640L595,653.5L590,659L588,604L587,635.5L584,647L586,684.5L583,686L580.5,628.5L581.5,461L584,462L584,482.5L586,487L585,531.5L587.5,534.5L589.5,489L593.5,487.5L596.5,490.5L597.5,458L594,464.5L591,465L591.5,457L621,435.5L644.5,422.5L639,423L618.5,438L612,439L612,436L608.5,442L598.5,448L596,445L591.5,451L589.5,450.5L589.5,446L655.5,408.5L656,478.5L658,481.5L663.5,481.5L677,470.5L683.5,471.5L692,463.5L694.5,464.5L697,460.5L702.5,460.5L706.5,456.5L708,387.5L710.5,388.5L725,378.5L737.5,374.5L755.5,364.5L753.5,374L750,375L749,371L749,374.5L739.5,382L737,378L737,390.5L734,393L737,395.5L734,406.5L736.5,407.5L742.5,399.5L737.5,400.5L738.5,392L745.5,385.5L746,402.5L754,390.5L756,393L756,403.5L751,406L751.5,410.5L756.5,404.5L758.5,387L761.5,385.5L762.5,380.5L764,418.5L766.5,419.5L768.5,354L755.5,355L769.5,346.5ZM453,355L450.5,358L403,378L370.5,396L269.5,374.5L284,365.5L365,333.5L453,355ZM393.5,322L400.5,320.5L408,323.5L437.5,326.5L471,335.5L467,336.5L481.5,339.5L484.5,337L464.5,331L418.5,321L402,320L402,317.5L408.5,315.5L492.5,333.5L494,336.5L478,343L393.5,322ZM765,341L705.5,376L647.5,361L588,349L588,351.5L697.5,376.5L700.5,381L690,382L687.5,379L656.5,371L649,373L656,375.5L663.5,374.5L666,376L665,378.5L670.5,376.5L688.5,382.5L683.5,388L614.5,368L568,358L567,359.5L592.5,364.5L597,369.5L602.5,370.5L597,366.5L612.5,369.5L615,373.5L620.5,374.5L624.5,372.5L636,377.5L675.5,387.5L678,389.5L671,394L668.5,391L663,391L653.5,386L622,380L654.5,388.5L656.5,391L648,391L654,393.5L658,391.5L665.5,392.5L667,395.5L659.5,401L604.5,383L544,369L542.5,367L585.5,348.5L594.5,341.5L592.5,339L587,339L586.5,343L464,400L440.5,414L435,413L432.5,410L455.5,397.5L456.5,395L433,406L429.5,410L418.5,406L411,406L412.5,402L404,405L396,403L395.5,401L384.5,399.5L385,397.5L388.5,397.5L414.5,383L390,393L381.5,399L374.5,398.5L378,394.5L458.5,355.5L456.5,352L371,332L372,329.5L385,324.5L434.5,333.5L437,337.5L443.5,338L440,335.5L473.5,342.5L476,344.5L469.5,348L454,345L463.5,347.5L464,353.5L514.5,330.5L519.5,332.5L519.5,335L498,343L480.5,353L474,354L473,356.5L477.5,356.5L501,343.5L516.5,338.5L520,334.5L529.5,334.5L529.5,338L498,352L483,361.5L527,340.5L529,341L527,343.5L534.5,340.5L528.5,340.5L533,335.5L551,339L464,378L433.5,395L420,399L421,400.5L441.5,393.5L463,380.5L501.5,365.5L549.5,343.5L553,339.5L563.5,341.5L565.5,340.5L565,337.5L613.5,314.5L614.5,312L605,313L608,314.5L602.5,319L571,332L562.5,338L555,338L555,335.5L587.5,321.5L605,309.5L620.5,310.5L625.5,314L569,341L570,343.5L575.5,343.5L630,314.5L675.5,321.5L765,341ZM603,309L556.5,335L543.5,334.5L548,330.5L590.5,313.5L598,307.5L603,309ZM595,307L579.5,316L538.5,333L527.5,331.5L534,326.5L544.5,324.5L578,308.5L584.5,308.5L588,305.5L595,307ZM582,304L581.5,306L572,308L559.5,316L555,316L547.5,321L527,328L525.5,331L517.5,329.5L520,326.5L567.5,307.5L575,302.5L582,304ZM414.5,314.5L426,307.5L480,286.5L504.5,288.5L568,302L512.5,328L508,328L499.5,334L482.5,328L414.5,314.5ZM393,279L396.5,280.5L394.5,278L393,279ZM335.5,278L334,277L333,279.5L335.5,278ZM665,274L668.5,275.5L667.5,273L665,274ZM532.5,260L531,259L530,261.5L532.5,260ZM417,241L418.5,243.5L419.5,241L417,241ZM556,237L555,238.5L557.5,240.5L556,237ZM353.5,230L334,237L310,251.5L353.5,230ZM600,218L611.5,221.5L605.5,218L600,218ZM582,212L592,216.5L595.5,215.5L582,212ZM689.5,231L668,207L670,212.5L686,231L683.5,235L650.5,248L646,246L609,254L613,245.5L619.5,246.5L631.5,243.5L630,242L615,245L614.5,242L618.5,236.5L618.5,231L616,230L612,242.5L602,257.5L610.5,259.5L647,247.5L651,249.5L689.5,236.5L689.5,231ZM477.5,202L446,204L383,218L362,227.5L407,213.5L438,206.5L470.5,204.5L477.5,202ZM485,201L566.5,207.5L517.5,201L485,201ZM707.5,236L667.5,186L645.5,164L633.5,156L628,156L624,160L621.5,185L596.5,180L556.5,176L504,176L453,181L414,189L382,199L344,215L309,234L274,259L236,295L216,319L198,346L183,375L168,416L158,473L161,535.5L164,550.5L172,569.5L177,575.5L180.5,575.5L182.5,568L175.5,552.5L170.5,526.5L170.5,468L175.5,440L189.5,400L207.5,367L233.5,333L267,300.5L305,273.5L349,250.5L381,238.5L410,230.5L460,222.5L500.5,221.5L538.5,224.5L575.5,231.5L599.5,239.5L601,241.5L587,260L587,265.5L598,278.5L626.5,274.5L690.5,255.5L708.5,245.5L707.5,236ZM609.5,269.5L610,267.5L614,268L609.5,269.5ZM625,265L619.5,268L613.5,267.5L625,265ZM665,254L656.5,258L653.5,256.5L660,253.5L665,254ZM666.5,253.5L672,252L670.5,254L666.5,253.5ZM698,235L696.5,238L677.5,245L604,264L595.5,258L612.5,234.5L608.5,228L618.5,228L601.5,221L547.5,210L496.5,206L465,207L412,215L379,224L342,238L306,256L266.5,285L264.5,284L271,277L253,292L259,290.5L243,304L212.5,339.5L226.5,317L243.5,297L271,270.5L304,245.5L363,213.5L408,197.5L459,186.5L501,182.5L571.5,183.5L625.5,191.5L628.5,188.5L629.5,167L631,163.5L633.5,163.5L667,196L698,235Z" style="fill-rule:nonzero;stroke:black;stroke-width:1px;"/>
    </g>
</svg>
